ISO-10303-21;
HEADER;
/* Generated by software containing ST-Developer
 * from STEP Tools, Inc. (www.steptools.com) 
 */
/* OPTION: using custom renumber hook */

FILE_DESCRIPTION(
/* description */ ('STEP AP242 Edition 2',
'CAx-IF Rec.Pracs.---Representation and Presentation of Product Manufa
cturing Information (PMI)---4.0---2014-10-13',
'CAx-IF Rec.Pracs.---3D Tessellated Geometry---0.4---2014-09-14','2;1',
'CAx-IF Rec.Pracs.---User Defined Attributes---1.5---2016-08-15'),
/* implementation_level */ '2;1');

FILE_NAME(
/* name */ 'Part Studio 1 - Part 1',
/* time_stamp */ '2026-09-16T07:13:35Z',
/* author */ (''),
/* organization */ (''),
/* preprocessor_version */ 'ST-DEVELOPER v20',
/* originating_system */ 'ONSHAPE BY PTC INC, 1.220',
/* authorisation */ '  ');

FILE_SCHEMA (('AP242_MANAGED_MODEL_BASED_3D_ENGINEERING_MIM_LF { 1 0 10303 442 3 1 4 }'));
ENDSEC;

DATA;
#10=SHAPE_REPRESENTATION_RELATIONSHIP('','',#409,#11);
#11=ADVANCED_BREP_SHAPE_REPRESENTATION('',(#407),#663);
#12=LINE('',#571,#48);
#13=LINE('',#574,#49);
#14=LINE('',#576,#50);
#15=LINE('',#578,#51);
#16=LINE('',#580,#52);
#17=LINE('',#582,#53);
#18=LINE('',#584,#54);
#19=LINE('',#586,#55);
#20=LINE('',#588,#56);
#21=LINE('',#591,#57);
#22=LINE('',#592,#58);
#23=LINE('',#594,#59);
#24=LINE('',#596,#60);
#25=LINE('',#598,#61);
#26=LINE('',#601,#62);
#27=LINE('',#602,#63);
#28=LINE('',#604,#64);
#29=LINE('',#606,#65);
#30=LINE('',#608,#66);
#31=LINE('',#610,#67);
#32=LINE('',#611,#68);
#33=LINE('',#613,#69);
#34=LINE('',#615,#70);
#35=LINE('',#617,#71);
#36=LINE('',#619,#72);
#37=LINE('',#621,#73);
#38=LINE('',#630,#74);
#39=LINE('',#632,#75);
#40=LINE('',#634,#76);
#41=LINE('',#636,#77);
#42=LINE('',#638,#78);
#43=LINE('',#640,#79);
#44=LINE('',#642,#80);
#45=LINE('',#644,#81);
#46=LINE('',#646,#82);
#47=LINE('',#648,#83);
#48=VECTOR('',#468,1.);
#49=VECTOR('',#469,1.);
#50=VECTOR('',#470,1.);
#51=VECTOR('',#471,1.);
#52=VECTOR('',#472,1.);
#53=VECTOR('',#473,1.);
#54=VECTOR('',#474,1.);
#55=VECTOR('',#475,1.);
#56=VECTOR('',#478,1.);
#57=VECTOR('',#479,1.);
#58=VECTOR('',#480,1.);
#59=VECTOR('',#483,1.);
#60=VECTOR('',#484,1.);
#61=VECTOR('',#487,1.);
#62=VECTOR('',#488,1.);
#63=VECTOR('',#489,1.);
#64=VECTOR('',#490,1.);
#65=VECTOR('',#491,1.);
#66=VECTOR('',#492,1.);
#67=VECTOR('',#495,1.);
#68=VECTOR('',#496,1.);
#69=VECTOR('',#499,1.);
#70=VECTOR('',#500,1.);
#71=VECTOR('',#501,1.);
#72=VECTOR('',#502,1.);
#73=VECTOR('',#503,1.);
#74=VECTOR('',#514,1.);
#75=VECTOR('',#517,1.);
#76=VECTOR('',#518,1.);
#77=VECTOR('',#521,1.);
#78=VECTOR('',#522,1.);
#79=VECTOR('',#525,1.);
#80=VECTOR('',#526,1.);
#81=VECTOR('',#529,1.);
#82=VECTOR('',#530,1.);
#83=VECTOR('',#533,1.);
#84=PLANE('',#420);
#85=PLANE('',#421);
#86=PLANE('',#422);
#87=PLANE('',#423);
#88=PLANE('',#424);
#89=PLANE('',#425);
#90=PLANE('',#426);
#91=PLANE('',#430);
#92=PLANE('',#431);
#93=PLANE('',#432);
#94=PLANE('',#433);
#95=PLANE('',#434);
#96=PLANE('',#435);
#97=PLANE('',#436);
#98=PLANE('',#439);
#99=PLANE('',#442);
#100=PLANE('',#445);
#101=ORIENTED_EDGE('',*,*,#197,.T.);
#102=ORIENTED_EDGE('',*,*,#198,.T.);
#103=ORIENTED_EDGE('',*,*,#199,.T.);
#104=ORIENTED_EDGE('',*,*,#200,.T.);
#105=ORIENTED_EDGE('',*,*,#201,.T.);
#106=ORIENTED_EDGE('',*,*,#202,.F.);
#107=ORIENTED_EDGE('',*,*,#203,.T.);
#108=ORIENTED_EDGE('',*,*,#204,.T.);
#109=ORIENTED_EDGE('',*,*,#205,.T.);
#110=ORIENTED_EDGE('',*,*,#206,.T.);
#111=ORIENTED_EDGE('',*,*,#207,.F.);
#112=ORIENTED_EDGE('',*,*,#208,.F.);
#113=ORIENTED_EDGE('',*,*,#209,.T.);
#114=ORIENTED_EDGE('',*,*,#210,.F.);
#115=ORIENTED_EDGE('',*,*,#199,.F.);
#116=ORIENTED_EDGE('',*,*,#197,.F.);
#117=ORIENTED_EDGE('',*,*,#211,.T.);
#118=ORIENTED_EDGE('',*,*,#212,.T.);
#119=ORIENTED_EDGE('',*,*,#209,.F.);
#120=ORIENTED_EDGE('',*,*,#213,.T.);
#121=ORIENTED_EDGE('',*,*,#214,.T.);
#122=ORIENTED_EDGE('',*,*,#215,.F.);
#123=ORIENTED_EDGE('',*,*,#213,.F.);
#124=ORIENTED_EDGE('',*,*,#208,.T.);
#125=ORIENTED_EDGE('',*,*,#216,.F.);
#126=ORIENTED_EDGE('',*,*,#217,.T.);
#127=ORIENTED_EDGE('',*,*,#211,.F.);
#128=ORIENTED_EDGE('',*,*,#215,.T.);
#129=ORIENTED_EDGE('',*,*,#218,.T.);
#130=ORIENTED_EDGE('',*,*,#219,.F.);
#131=ORIENTED_EDGE('',*,*,#220,.F.);
#132=ORIENTED_EDGE('',*,*,#221,.F.);
#133=ORIENTED_EDGE('',*,*,#222,.F.);
#134=ORIENTED_EDGE('',*,*,#206,.F.);
#135=ORIENTED_EDGE('',*,*,#223,.T.);
#136=ORIENTED_EDGE('',*,*,#219,.T.);
#137=ORIENTED_EDGE('',*,*,#201,.F.);
#138=ORIENTED_EDGE('',*,*,#224,.F.);
#139=ORIENTED_EDGE('',*,*,#220,.T.);
#140=ORIENTED_EDGE('',*,*,#223,.F.);
#141=ORIENTED_EDGE('',*,*,#205,.F.);
#142=ORIENTED_EDGE('',*,*,#225,.T.);
#143=ORIENTED_EDGE('',*,*,#226,.F.);
#144=ORIENTED_EDGE('',*,*,#227,.F.);
#145=ORIENTED_EDGE('',*,*,#228,.T.);
#146=ORIENTED_EDGE('',*,*,#229,.F.);
#147=ORIENTED_EDGE('',*,*,#230,.F.);
#148=ORIENTED_EDGE('',*,*,#231,.F.);
#149=ORIENTED_EDGE('',*,*,#207,.T.);
#150=ORIENTED_EDGE('',*,*,#222,.T.);
#151=ORIENTED_EDGE('',*,*,#218,.F.);
#152=ORIENTED_EDGE('',*,*,#214,.F.);
#153=ORIENTED_EDGE('',*,*,#212,.F.);
#154=ORIENTED_EDGE('',*,*,#217,.F.);
#155=ORIENTED_EDGE('',*,*,#232,.T.);
#156=ORIENTED_EDGE('',*,*,#210,.T.);
#157=ORIENTED_EDGE('',*,*,#224,.T.);
#158=ORIENTED_EDGE('',*,*,#233,.F.);
#159=ORIENTED_EDGE('',*,*,#234,.F.);
#160=ORIENTED_EDGE('',*,*,#221,.T.);
#161=ORIENTED_EDGE('',*,*,#228,.F.);
#162=ORIENTED_EDGE('',*,*,#235,.F.);
#163=ORIENTED_EDGE('',*,*,#236,.T.);
#164=ORIENTED_EDGE('',*,*,#233,.T.);
#165=ORIENTED_EDGE('',*,*,#227,.T.);
#166=ORIENTED_EDGE('',*,*,#237,.F.);
#167=ORIENTED_EDGE('',*,*,#238,.F.);
#168=ORIENTED_EDGE('',*,*,#235,.T.);
#169=ORIENTED_EDGE('',*,*,#226,.T.);
#170=ORIENTED_EDGE('',*,*,#239,.F.);
#171=ORIENTED_EDGE('',*,*,#240,.F.);
#172=ORIENTED_EDGE('',*,*,#237,.T.);
#173=ORIENTED_EDGE('',*,*,#225,.F.);
#174=ORIENTED_EDGE('',*,*,#204,.F.);
#175=ORIENTED_EDGE('',*,*,#241,.T.);
#176=ORIENTED_EDGE('',*,*,#239,.T.);
#177=ORIENTED_EDGE('',*,*,#232,.F.);
#178=ORIENTED_EDGE('',*,*,#216,.T.);
#179=ORIENTED_EDGE('',*,*,#234,.T.);
#180=ORIENTED_EDGE('',*,*,#236,.F.);
#181=ORIENTED_EDGE('',*,*,#238,.T.);
#182=ORIENTED_EDGE('',*,*,#240,.T.);
#183=ORIENTED_EDGE('',*,*,#241,.F.);
#184=ORIENTED_EDGE('',*,*,#203,.F.);
#185=ORIENTED_EDGE('',*,*,#242,.F.);
#186=ORIENTED_EDGE('',*,*,#231,.T.);
#187=ORIENTED_EDGE('',*,*,#202,.T.);
#188=ORIENTED_EDGE('',*,*,#242,.T.);
#189=ORIENTED_EDGE('',*,*,#243,.F.);
#190=ORIENTED_EDGE('',*,*,#229,.T.);
#191=ORIENTED_EDGE('',*,*,#200,.F.);
#192=ORIENTED_EDGE('',*,*,#243,.T.);
#193=ORIENTED_EDGE('',*,*,#244,.F.);
#194=ORIENTED_EDGE('',*,*,#230,.T.);
#195=ORIENTED_EDGE('',*,*,#198,.F.);
#196=ORIENTED_EDGE('',*,*,#244,.T.);
#197=EDGE_CURVE('',#245,#245,#281,.T.);
#198=EDGE_CURVE('',#246,#246,#282,.T.);
#199=EDGE_CURVE('',#247,#247,#283,.T.);
#200=EDGE_CURVE('',#248,#248,#284,.T.);
#201=EDGE_CURVE('',#249,#249,#285,.T.);
#202=EDGE_CURVE('',#250,#250,#286,.T.);
#203=EDGE_CURVE('',#251,#252,#12,.T.);
#204=EDGE_CURVE('',#252,#253,#13,.T.);
#205=EDGE_CURVE('',#253,#254,#14,.T.);
#206=EDGE_CURVE('',#254,#255,#15,.T.);
#207=EDGE_CURVE('',#256,#255,#16,.T.);
#208=EDGE_CURVE('',#257,#256,#17,.T.);
#209=EDGE_CURVE('',#257,#258,#18,.T.);
#210=EDGE_CURVE('',#251,#258,#19,.T.);
#211=EDGE_CURVE('',#259,#260,#20,.T.);
#212=EDGE_CURVE('',#260,#258,#21,.T.);
#213=EDGE_CURVE('',#257,#259,#22,.T.);
#214=EDGE_CURVE('',#256,#261,#23,.T.);
#215=EDGE_CURVE('',#259,#261,#24,.T.);
#216=EDGE_CURVE('',#262,#263,#25,.T.);
#217=EDGE_CURVE('',#262,#260,#26,.T.);
#218=EDGE_CURVE('',#261,#264,#27,.T.);
#219=EDGE_CURVE('',#265,#264,#28,.T.);
#220=EDGE_CURVE('',#266,#265,#29,.T.);
#221=EDGE_CURVE('',#263,#266,#30,.T.);
#222=EDGE_CURVE('',#255,#264,#31,.T.);
#223=EDGE_CURVE('',#254,#265,#32,.T.);
#224=EDGE_CURVE('',#266,#267,#33,.T.);
#225=EDGE_CURVE('',#253,#268,#34,.T.);
#226=EDGE_CURVE('',#269,#268,#35,.T.);
#227=EDGE_CURVE('',#270,#269,#36,.T.);
#228=EDGE_CURVE('',#270,#267,#37,.T.);
#229=EDGE_CURVE('',#271,#271,#287,.T.);
#230=EDGE_CURVE('',#272,#272,#288,.T.);
#231=EDGE_CURVE('',#273,#273,#289,.T.);
#232=EDGE_CURVE('',#262,#251,#38,.T.);
#233=EDGE_CURVE('',#274,#267,#39,.T.);
#234=EDGE_CURVE('',#263,#274,#40,.T.);
#235=EDGE_CURVE('',#275,#270,#41,.T.);
#236=EDGE_CURVE('',#275,#274,#42,.T.);
#237=EDGE_CURVE('',#276,#269,#43,.T.);
#238=EDGE_CURVE('',#275,#276,#44,.T.);
#239=EDGE_CURVE('',#277,#268,#45,.T.);
#240=EDGE_CURVE('',#276,#277,#46,.T.);
#241=EDGE_CURVE('',#252,#277,#47,.T.);
#242=EDGE_CURVE('',#278,#278,#290,.T.);
#243=EDGE_CURVE('',#279,#279,#291,.T.);
#244=EDGE_CURVE('',#280,#280,#292,.T.);
#245=VERTEX_POINT('',#557);
#246=VERTEX_POINT('',#559);
#247=VERTEX_POINT('',#562);
#248=VERTEX_POINT('',#564);
#249=VERTEX_POINT('',#567);
#250=VERTEX_POINT('',#569);
#251=VERTEX_POINT('',#572);
#252=VERTEX_POINT('',#573);
#253=VERTEX_POINT('',#575);
#254=VERTEX_POINT('',#577);
#255=VERTEX_POINT('',#579);
#256=VERTEX_POINT('',#581);
#257=VERTEX_POINT('',#583);
#258=VERTEX_POINT('',#585);
#259=VERTEX_POINT('',#589);
#260=VERTEX_POINT('',#590);
#261=VERTEX_POINT('',#595);
#262=VERTEX_POINT('',#599);
#263=VERTEX_POINT('',#600);
#264=VERTEX_POINT('',#603);
#265=VERTEX_POINT('',#605);
#266=VERTEX_POINT('',#607);
#267=VERTEX_POINT('',#614);
#268=VERTEX_POINT('',#616);
#269=VERTEX_POINT('',#618);
#270=VERTEX_POINT('',#620);
#271=VERTEX_POINT('',#624);
#272=VERTEX_POINT('',#626);
#273=VERTEX_POINT('',#628);
#274=VERTEX_POINT('',#633);
#275=VERTEX_POINT('',#637);
#276=VERTEX_POINT('',#641);
#277=VERTEX_POINT('',#645);
#278=VERTEX_POINT('',#652);
#279=VERTEX_POINT('',#656);
#280=VERTEX_POINT('',#660);
#281=CIRCLE('',#412,0.0015);
#282=CIRCLE('',#413,0.0015);
#283=CIRCLE('',#415,0.0015);
#284=CIRCLE('',#416,0.0015);
#285=CIRCLE('',#418,0.0015);
#286=CIRCLE('',#419,0.0015);
#287=CIRCLE('',#427,0.0025);
#288=CIRCLE('',#428,0.0025);
#289=CIRCLE('',#429,0.0025);
#290=CIRCLE('',#438,0.0025);
#291=CIRCLE('',#441,0.0025);
#292=CIRCLE('',#444,0.0025);
#293=EDGE_LOOP('',(#101));
#294=EDGE_LOOP('',(#102));
#295=EDGE_LOOP('',(#103));
#296=EDGE_LOOP('',(#104));
#297=EDGE_LOOP('',(#105));
#298=EDGE_LOOP('',(#106));
#299=EDGE_LOOP('',(#107,#108,#109,#110,#111,#112,#113,#114));
#300=EDGE_LOOP('',(#115));
#301=EDGE_LOOP('',(#116));
#302=EDGE_LOOP('',(#117,#118,#119,#120));
#303=EDGE_LOOP('',(#121,#122,#123,#124));
#304=EDGE_LOOP('',(#125,#126,#127,#128,#129,#130,#131,#132));
#305=EDGE_LOOP('',(#133,#134,#135,#136));
#306=EDGE_LOOP('',(#137));
#307=EDGE_LOOP('',(#138,#139,#140,#141,#142,#143,#144,#145));
#308=EDGE_LOOP('',(#146));
#309=EDGE_LOOP('',(#147));
#310=EDGE_LOOP('',(#148));
#311=EDGE_LOOP('',(#149,#150,#151,#152));
#312=EDGE_LOOP('',(#153,#154,#155,#156));
#313=EDGE_LOOP('',(#157,#158,#159,#160));
#314=EDGE_LOOP('',(#161,#162,#163,#164));
#315=EDGE_LOOP('',(#165,#166,#167,#168));
#316=EDGE_LOOP('',(#169,#170,#171,#172));
#317=EDGE_LOOP('',(#173,#174,#175,#176));
#318=EDGE_LOOP('',(#177,#178,#179,#180,#181,#182,#183,#184));
#319=EDGE_LOOP('',(#185));
#320=EDGE_LOOP('',(#186));
#321=EDGE_LOOP('',(#187));
#322=EDGE_LOOP('',(#188));
#323=EDGE_LOOP('',(#189));
#324=EDGE_LOOP('',(#190));
#325=EDGE_LOOP('',(#191));
#326=EDGE_LOOP('',(#192));
#327=EDGE_LOOP('',(#193));
#328=EDGE_LOOP('',(#194));
#329=EDGE_LOOP('',(#195));
#330=EDGE_LOOP('',(#196));
#331=FACE_BOUND('',#293,.T.);
#332=FACE_BOUND('',#294,.T.);
#333=FACE_BOUND('',#295,.T.);
#334=FACE_BOUND('',#296,.T.);
#335=FACE_BOUND('',#297,.T.);
#336=FACE_BOUND('',#298,.T.);
#337=FACE_BOUND('',#299,.T.);
#338=FACE_BOUND('',#300,.T.);
#339=FACE_BOUND('',#301,.T.);
#340=FACE_BOUND('',#302,.T.);
#341=FACE_BOUND('',#303,.T.);
#342=FACE_BOUND('',#304,.T.);
#343=FACE_BOUND('',#305,.T.);
#344=FACE_BOUND('',#306,.T.);
#345=FACE_BOUND('',#307,.T.);
#346=FACE_BOUND('',#308,.T.);
#347=FACE_BOUND('',#309,.T.);
#348=FACE_BOUND('',#310,.T.);
#349=FACE_BOUND('',#311,.T.);
#350=FACE_BOUND('',#312,.T.);
#351=FACE_BOUND('',#313,.T.);
#352=FACE_BOUND('',#314,.T.);
#353=FACE_BOUND('',#315,.T.);
#354=FACE_BOUND('',#316,.T.);
#355=FACE_BOUND('',#317,.T.);
#356=FACE_BOUND('',#318,.T.);
#357=FACE_BOUND('',#319,.T.);
#358=FACE_BOUND('',#320,.T.);
#359=FACE_BOUND('',#321,.T.);
#360=FACE_BOUND('',#322,.T.);
#361=FACE_BOUND('',#323,.T.);
#362=FACE_BOUND('',#324,.T.);
#363=FACE_BOUND('',#325,.T.);
#364=FACE_BOUND('',#326,.T.);
#365=FACE_BOUND('',#327,.T.);
#366=FACE_BOUND('',#328,.T.);
#367=FACE_BOUND('',#329,.T.);
#368=FACE_BOUND('',#330,.T.);
#369=CYLINDRICAL_SURFACE('',#411,0.0015);
#370=CYLINDRICAL_SURFACE('',#414,0.0015);
#371=CYLINDRICAL_SURFACE('',#417,0.0015);
#372=CYLINDRICAL_SURFACE('',#437,0.0025);
#373=CYLINDRICAL_SURFACE('',#440,0.0025);
#374=CYLINDRICAL_SURFACE('',#443,0.0025);
#375=ADVANCED_FACE('',(#331,#332),#369,.F.);
#376=ADVANCED_FACE('',(#333,#334),#370,.F.);
#377=ADVANCED_FACE('',(#335,#336),#371,.F.);
#378=ADVANCED_FACE('',(#337),#84,.T.);
#379=ADVANCED_FACE('',(#338,#339,#340),#85,.T.);
#380=ADVANCED_FACE('',(#341),#86,.F.);
#381=ADVANCED_FACE('',(#342),#87,.F.);
#382=ADVANCED_FACE('',(#343),#88,.T.);
#383=ADVANCED_FACE('',(#344,#345),#89,.T.);
#384=ADVANCED_FACE('',(#346,#347,#348,#349),#90,.F.);
#385=ADVANCED_FACE('',(#350),#91,.T.);
#386=ADVANCED_FACE('',(#351),#92,.F.);
#387=ADVANCED_FACE('',(#352),#93,.T.);
#388=ADVANCED_FACE('',(#353),#94,.F.);
#389=ADVANCED_FACE('',(#354),#95,.F.);
#390=ADVANCED_FACE('',(#355),#96,.T.);
#391=ADVANCED_FACE('',(#356),#97,.T.);
#392=ADVANCED_FACE('',(#357,#358),#372,.F.);
#393=ADVANCED_FACE('',(#359,#360),#98,.T.);
#394=ADVANCED_FACE('',(#361,#362),#373,.F.);
#395=ADVANCED_FACE('',(#363,#364),#99,.T.);
#396=ADVANCED_FACE('',(#365,#366),#374,.F.);
#397=ADVANCED_FACE('',(#367,#368),#100,.T.);
#398=CLOSED_SHELL('',(#375,#376,#377,#378,#379,#380,#381,#382,#383,#384,
#385,#386,#387,#388,#389,#390,#391,#392,#393,#394,#395,#396,#397));
#399=STYLED_ITEM('',(#400),#407);
#400=PRESENTATION_STYLE_ASSIGNMENT((#401));
#401=SURFACE_STYLE_USAGE(.BOTH.,#402);
#402=SURFACE_SIDE_STYLE('',(#403));
#403=SURFACE_STYLE_FILL_AREA(#404);
#404=FILL_AREA_STYLE('',(#405));
#405=FILL_AREA_STYLE_COLOUR('',#406);
#406=COLOUR_RGB('',0.615686274509804,0.811764705882353,0.929411764705882);
#407=MANIFOLD_SOLID_BREP('Part 1',#398);
#408=SHAPE_DEFINITION_REPRESENTATION(#668,#409);
#409=SHAPE_REPRESENTATION('Part 1',(#410),#663);
#410=AXIS2_PLACEMENT_3D('',#554,#446,#447);
#411=AXIS2_PLACEMENT_3D('',#555,#448,#449);
#412=AXIS2_PLACEMENT_3D('',#556,#450,#451);
#413=AXIS2_PLACEMENT_3D('',#558,#452,#453);
#414=AXIS2_PLACEMENT_3D('',#560,#454,#455);
#415=AXIS2_PLACEMENT_3D('',#561,#456,#457);
#416=AXIS2_PLACEMENT_3D('',#563,#458,#459);
#417=AXIS2_PLACEMENT_3D('',#565,#460,#461);
#418=AXIS2_PLACEMENT_3D('',#566,#462,#463);
#419=AXIS2_PLACEMENT_3D('',#568,#464,#465);
#420=AXIS2_PLACEMENT_3D('',#570,#466,#467);
#421=AXIS2_PLACEMENT_3D('',#587,#476,#477);
#422=AXIS2_PLACEMENT_3D('',#593,#481,#482);
#423=AXIS2_PLACEMENT_3D('',#597,#485,#486);
#424=AXIS2_PLACEMENT_3D('',#609,#493,#494);
#425=AXIS2_PLACEMENT_3D('',#612,#497,#498);
#426=AXIS2_PLACEMENT_3D('',#622,#504,#505);
#427=AXIS2_PLACEMENT_3D('',#623,#506,#507);
#428=AXIS2_PLACEMENT_3D('',#625,#508,#509);
#429=AXIS2_PLACEMENT_3D('',#627,#510,#511);
#430=AXIS2_PLACEMENT_3D('',#629,#512,#513);
#431=AXIS2_PLACEMENT_3D('',#631,#515,#516);
#432=AXIS2_PLACEMENT_3D('',#635,#519,#520);
#433=AXIS2_PLACEMENT_3D('',#639,#523,#524);
#434=AXIS2_PLACEMENT_3D('',#643,#527,#528);
#435=AXIS2_PLACEMENT_3D('',#647,#531,#532);
#436=AXIS2_PLACEMENT_3D('',#649,#534,#535);
#437=AXIS2_PLACEMENT_3D('',#650,#536,#537);
#438=AXIS2_PLACEMENT_3D('',#651,#538,#539);
#439=AXIS2_PLACEMENT_3D('',#653,#540,#541);
#440=AXIS2_PLACEMENT_3D('',#654,#542,#543);
#441=AXIS2_PLACEMENT_3D('',#655,#544,#545);
#442=AXIS2_PLACEMENT_3D('',#657,#546,#547);
#443=AXIS2_PLACEMENT_3D('',#658,#548,#549);
#444=AXIS2_PLACEMENT_3D('',#659,#550,#551);
#445=AXIS2_PLACEMENT_3D('',#661,#552,#553);
#446=DIRECTION('',(0.,0.,1.));
#447=DIRECTION('',(1.,0.,0.));
#448=DIRECTION('',(0.,0.,-1.));
#449=DIRECTION('',(-1.,0.,0.));
#450=DIRECTION('',(0.,0.,1.));
#451=DIRECTION('',(1.,0.,0.));
#452=DIRECTION('',(0.,0.,-1.));
#453=DIRECTION('',(-1.,0.,0.));
#454=DIRECTION('',(0.,0.,-1.));
#455=DIRECTION('',(-1.,0.,0.));
#456=DIRECTION('',(0.,0.,1.));
#457=DIRECTION('',(1.,0.,0.));
#458=DIRECTION('',(0.,0.,-1.));
#459=DIRECTION('',(-1.,0.,0.));
#460=DIRECTION('',(0.,0.,1.));
#461=DIRECTION('',(1.,0.,0.));
#462=DIRECTION('',(0.,0.,1.));
#463=DIRECTION('',(1.,0.,0.));
#464=DIRECTION('',(0.,0.,1.));
#465=DIRECTION('',(1.,0.,0.));
#466=DIRECTION('',(0.,1.,0.));
#467=DIRECTION('',(0.,0.,1.));
#468=DIRECTION('',(1.,0.,0.));
#469=DIRECTION('',(0.,0.,1.));
#470=DIRECTION('',(1.,0.,0.));
#471=DIRECTION('',(0.,0.,-1.));
#472=DIRECTION('',(1.,0.,0.));
#473=DIRECTION('',(0.,0.,-1.));
#474=DIRECTION('',(1.,0.,0.));
#475=DIRECTION('',(0.,0.,1.));
#476=DIRECTION('',(0.,0.,1.));
#477=DIRECTION('',(1.,0.,0.));
#478=DIRECTION('',(1.,0.,0.));
#479=DIRECTION('',(0.,1.,0.));
#480=DIRECTION('',(0.,-1.,0.));
#481=DIRECTION('',(1.,0.,0.));
#482=DIRECTION('',(0.,0.,-1.));
#483=DIRECTION('',(0.,-1.,0.));
#484=DIRECTION('',(0.,0.,-1.));
#485=DIRECTION('',(0.,1.,0.));
#486=DIRECTION('',(0.,0.,1.));
#487=DIRECTION('',(1.,0.,0.));
#488=DIRECTION('',(0.,0.,1.));
#489=DIRECTION('',(1.,0.,0.));
#490=DIRECTION('',(0.,0.,-1.));
#491=DIRECTION('',(1.,0.,0.));
#492=DIRECTION('',(0.,0.,1.));
#493=DIRECTION('',(1.,8.56653568383609E-17,0.));
#494=DIRECTION('',(-8.56653568383609E-17,1.,0.));
#495=DIRECTION('',(8.56653568383609E-17,-1.,0.));
#496=DIRECTION('',(8.56653568383609E-17,-1.,0.));
#497=DIRECTION('',(0.,0.,1.));
#498=DIRECTION('',(1.,0.,0.));
#499=DIRECTION('',(-1.020425574104E-16,1.,0.));
#500=DIRECTION('',(0.,-1.,0.));
#501=DIRECTION('',(1.,0.,0.));
#502=DIRECTION('',(-1.92747052886312E-16,1.,0.));
#503=DIRECTION('',(1.,0.,0.));
#504=DIRECTION('',(0.,0.,1.));
#505=DIRECTION('',(1.,0.,0.));
#506=DIRECTION('',(0.,0.,-1.));
#507=DIRECTION('',(-1.,0.,0.));
#508=DIRECTION('',(0.,0.,-1.));
#509=DIRECTION('',(-1.,0.,0.));
#510=DIRECTION('',(0.,0.,-1.));
#511=DIRECTION('',(-1.,0.,0.));
#512=DIRECTION('',(1.,0.,0.));
#513=DIRECTION('',(0.,0.,-1.));
#514=DIRECTION('',(0.,1.,0.));
#515=DIRECTION('',(1.,1.020425574104E-16,0.));
#516=DIRECTION('',(-1.020425574104E-16,1.,0.));
#517=DIRECTION('',(0.,0.,1.));
#518=DIRECTION('',(-1.020425574104E-16,1.,0.));
#519=DIRECTION('',(0.,-1.,0.));
#520=DIRECTION('',(0.,0.,-1.));
#521=DIRECTION('',(0.,0.,1.));
#522=DIRECTION('',(1.,0.,0.));
#523=DIRECTION('',(1.,1.92747052886312E-16,0.));
#524=DIRECTION('',(-1.92747052886312E-16,1.,0.));
#525=DIRECTION('',(0.,0.,1.));
#526=DIRECTION('',(-1.92747052886312E-16,1.,0.));
#527=DIRECTION('',(0.,-1.,0.));
#528=DIRECTION('',(0.,0.,-1.));
#529=DIRECTION('',(0.,0.,1.));
#530=DIRECTION('',(1.,0.,0.));
#531=DIRECTION('',(-1.,0.,0.));
#532=DIRECTION('',(0.,0.,1.));
#533=DIRECTION('',(0.,-1.,0.));
#534=DIRECTION('',(0.,0.,1.));
#535=DIRECTION('',(1.,0.,0.));
#536=DIRECTION('',(0.,0.,-1.));
#537=DIRECTION('',(-1.,0.,0.));
#538=DIRECTION('',(0.,0.,-1.));
#539=DIRECTION('',(-1.,0.,0.));
#540=DIRECTION('',(0.,0.,-1.));
#541=DIRECTION('',(1.,0.,0.));
#542=DIRECTION('',(0.,0.,-1.));
#543=DIRECTION('',(-1.,0.,0.));
#544=DIRECTION('',(0.,0.,-1.));
#545=DIRECTION('',(-1.,0.,0.));
#546=DIRECTION('',(0.,0.,-1.));
#547=DIRECTION('',(1.,0.,0.));
#548=DIRECTION('',(0.,0.,-1.));
#549=DIRECTION('',(-1.,0.,0.));
#550=DIRECTION('',(0.,0.,-1.));
#551=DIRECTION('',(-1.,0.,0.));
#552=DIRECTION('',(0.,0.,-1.));
#553=DIRECTION('',(1.,0.,0.));
#554=CARTESIAN_POINT('',(0.,0.,0.));
#555=CARTESIAN_POINT('',(-0.0239273902649669,0.0417972139686346,0.025));
#556=CARTESIAN_POINT('',(-0.0239273902649669,0.0417972139686346,0.004));
#557=CARTESIAN_POINT('',(-0.0224273902649669,0.0417972139686346,0.004));
#558=CARTESIAN_POINT('',(-0.0239273902649669,0.0417972139686346,0.0015));
#559=CARTESIAN_POINT('',(-0.0254273902649669,0.0417972139686346,0.0015));
#560=CARTESIAN_POINT('',(-0.0239273902649669,-0.0316027860313654,0.025));
#561=CARTESIAN_POINT('',(-0.0239273902649669,-0.0316027860313654,0.004));
#562=CARTESIAN_POINT('',(-0.0224273902649669,-0.0316027860313654,0.004));
#563=CARTESIAN_POINT('',(-0.0239273902649669,-0.0316027860313654,0.0015));
#564=CARTESIAN_POINT('',(-0.0254273902649669,-0.0316027860313654,0.0015));
#565=CARTESIAN_POINT('',(0.024972609735033,-0.0299027860313654,-0.021));
#566=CARTESIAN_POINT('',(0.024972609735033,-0.0299027860313654,0.004));
#567=CARTESIAN_POINT('',(0.026472609735033,-0.0299027860313654,0.004));
#568=CARTESIAN_POINT('',(0.024972609735033,-0.0299027860313654,0.0015));
#569=CARTESIAN_POINT('',(0.026472609735033,-0.0299027860313654,0.0015));
#570=CARTESIAN_POINT('',(0.00147260973503303,0.0455972139686346,0.004));
#571=CARTESIAN_POINT('',(0.00147260973503303,0.0455972139686346,0.002));
#572=CARTESIAN_POINT('',(-0.0215273902649669,0.0455972139686346,0.002));
#573=CARTESIAN_POINT('',(0.025472609735033,0.0455972139686346,0.002));
#574=CARTESIAN_POINT('',(0.025472609735033,0.0455972139686346,0.002));
#575=CARTESIAN_POINT('',(0.025472609735033,0.0455972139686346,0.004));
#576=CARTESIAN_POINT('',(0.00147260973503303,0.0455972139686346,0.004));
#577=CARTESIAN_POINT('',(0.029472609735033,0.0455972139686346,0.004));
#578=CARTESIAN_POINT('',(0.029472609735033,0.0455972139686346,0.004));
#579=CARTESIAN_POINT('',(0.029472609735033,0.0455972139686346,0.));
#580=CARTESIAN_POINT('',(0.00147260973503303,0.0455972139686346,0.));
#581=CARTESIAN_POINT('',(-0.026527390264967,0.0455972139686346,0.));
#582=CARTESIAN_POINT('',(-0.026527390264967,0.0455972139686346,0.004));
#583=CARTESIAN_POINT('',(-0.026527390264967,0.0455972139686346,0.004));
#584=CARTESIAN_POINT('',(0.00147260973503303,0.0455972139686346,0.004));
#585=CARTESIAN_POINT('',(-0.0215273902649669,0.0455972139686346,0.004));
#586=CARTESIAN_POINT('',(-0.0215273902649669,0.0455972139686346,0.002));
#587=CARTESIAN_POINT('',(0.00147260973503303,0.00509721396863461,0.004));
#588=CARTESIAN_POINT('',(0.00147260973503303,-0.0354027860313654,0.004));
#589=CARTESIAN_POINT('',(-0.0265273902649669,-0.0354027860313654,0.004));
#590=CARTESIAN_POINT('',(-0.0215273902649669,-0.0354027860313654,0.004));
#591=CARTESIAN_POINT('',(-0.0215273902649669,-0.0269027860313654,0.004));
#592=CARTESIAN_POINT('',(-0.0265273902649669,0.00509721396863461,0.004));
#593=CARTESIAN_POINT('',(-0.0265273902649669,0.00509721396863461,0.004));
#594=CARTESIAN_POINT('',(-0.0265273902649669,0.00509721396863461,0.));
#595=CARTESIAN_POINT('',(-0.0265273902649669,-0.0354027860313654,0.));
#596=CARTESIAN_POINT('',(-0.0265273902649669,-0.0354027860313654,0.004));
#597=CARTESIAN_POINT('',(0.00147260973503303,-0.0354027860313654,0.004));
#598=CARTESIAN_POINT('',(0.00147260973503303,-0.0354027860313654,0.002));
#599=CARTESIAN_POINT('',(-0.0215273902649669,-0.0354027860313654,0.002));
#600=CARTESIAN_POINT('',(0.00947260973503303,-0.0354027860313654,0.002));
#601=CARTESIAN_POINT('',(-0.0215273902649669,-0.0354027860313654,0.002));
#602=CARTESIAN_POINT('',(0.00147260973503303,-0.0354027860313654,0.));
#603=CARTESIAN_POINT('',(0.029472609735033,-0.0354027860313654,0.));
#604=CARTESIAN_POINT('',(0.029472609735033,-0.0354027860313654,0.004));
#605=CARTESIAN_POINT('',(0.029472609735033,-0.0354027860313654,0.004));
#606=CARTESIAN_POINT('',(0.00147260973503303,-0.0354027860313654,0.004));
#607=CARTESIAN_POINT('',(0.00947260973503303,-0.0354027860313654,0.004));
#608=CARTESIAN_POINT('',(0.00947260973503303,-0.0354027860313654,0.002));
#609=CARTESIAN_POINT('',(0.029472609735033,0.00509721396863461,0.004));
#610=CARTESIAN_POINT('',(0.029472609735033,0.00509721396863461,0.));
#611=CARTESIAN_POINT('',(0.029472609735033,0.00509721396863461,0.004));
#612=CARTESIAN_POINT('',(0.00147260973503303,0.00509721396863461,0.004));
#613=CARTESIAN_POINT('',(0.00947260973503303,-0.0269027860313654,0.004));
#614=CARTESIAN_POINT('',(0.00947260973503303,-0.0184027860313654,0.004));
#615=CARTESIAN_POINT('',(0.025472609735033,0.0315972139686346,0.004));
#616=CARTESIAN_POINT('',(0.025472609735033,0.0175972139686346,0.004));
#617=CARTESIAN_POINT('',(0.0164726097350331,0.0175972139686346,0.004));
#618=CARTESIAN_POINT('',(0.00747260973503303,0.0175972139686346,0.004));
#619=CARTESIAN_POINT('',(0.00747260973503303,-0.000402786031365395,0.004));
#620=CARTESIAN_POINT('',(0.00747260973503304,-0.0184027860313654,0.004));
#621=CARTESIAN_POINT('',(0.00847260973503303,-0.0184027860313654,0.004));
#622=CARTESIAN_POINT('',(0.00147260973503303,0.00509721396863461,0.));
#623=CARTESIAN_POINT('',(-0.0239273902649669,-0.0316027860313654,0.));
#624=CARTESIAN_POINT('',(-0.0264273902649669,-0.0316027860313654,0.));
#625=CARTESIAN_POINT('',(-0.0239273902649669,0.0417972139686346,0.));
#626=CARTESIAN_POINT('',(-0.0264273902649669,0.0417972139686346,0.));
#627=CARTESIAN_POINT('',(0.024972609735033,-0.0299027860313654,0.));
#628=CARTESIAN_POINT('',(0.022472609735033,-0.0299027860313654,0.));
#629=CARTESIAN_POINT('',(-0.0215273902649669,-0.0269027860313654,0.002));
#630=CARTESIAN_POINT('',(-0.0215273902649669,-0.0269027860313654,0.002));
#631=CARTESIAN_POINT('',(0.00947260973503303,-0.0269027860313654,0.002));
#632=CARTESIAN_POINT('',(0.00947260973503303,-0.0184027860313654,0.002));
#633=CARTESIAN_POINT('',(0.00947260973503303,-0.0184027860313654,0.002));
#634=CARTESIAN_POINT('',(0.00947260973503303,-0.0269027860313654,0.002));
#635=CARTESIAN_POINT('',(0.00847260973503303,-0.0184027860313654,0.002));
#636=CARTESIAN_POINT('',(0.00747260973503304,-0.0184027860313654,0.002));
#637=CARTESIAN_POINT('',(0.00747260973503304,-0.0184027860313654,0.002));
#638=CARTESIAN_POINT('',(0.00847260973503303,-0.0184027860313654,0.002));
#639=CARTESIAN_POINT('',(0.00747260973503303,-0.000402786031365395,0.002));
#640=CARTESIAN_POINT('',(0.00747260973503303,0.0175972139686346,0.002));
#641=CARTESIAN_POINT('',(0.00747260973503303,0.0175972139686346,0.002));
#642=CARTESIAN_POINT('',(0.00747260973503303,-0.000402786031365395,0.002));
#643=CARTESIAN_POINT('',(0.0164726097350331,0.0175972139686346,0.002));
#644=CARTESIAN_POINT('',(0.025472609735033,0.0175972139686346,0.002));
#645=CARTESIAN_POINT('',(0.025472609735033,0.0175972139686346,0.002));
#646=CARTESIAN_POINT('',(0.0164726097350331,0.0175972139686346,0.002));
#647=CARTESIAN_POINT('',(0.025472609735033,0.0315972139686346,0.002));
#648=CARTESIAN_POINT('',(0.025472609735033,0.0315972139686346,0.002));
#649=CARTESIAN_POINT('',(0.00147260973503303,0.00509721396863461,0.002));
#650=CARTESIAN_POINT('',(0.024972609735033,-0.0299027860313654,0.0015));
#651=CARTESIAN_POINT('',(0.024972609735033,-0.0299027860313654,0.0015));
#652=CARTESIAN_POINT('',(0.022472609735033,-0.0299027860313654,0.0015));
#653=CARTESIAN_POINT('',(0.00147260973503303,0.00509721396863461,0.0015));
#654=CARTESIAN_POINT('',(-0.0239273902649669,-0.0316027860313654,0.0015));
#655=CARTESIAN_POINT('',(-0.0239273902649669,-0.0316027860313654,0.0015));
#656=CARTESIAN_POINT('',(-0.0264273902649669,-0.0316027860313654,0.0015));
#657=CARTESIAN_POINT('',(0.00147260973503303,0.00509721396863461,0.0015));
#658=CARTESIAN_POINT('',(-0.0239273902649669,0.0417972139686346,0.0015));
#659=CARTESIAN_POINT('',(-0.0239273902649669,0.0417972139686346,0.0015));
#660=CARTESIAN_POINT('',(-0.0264273902649669,0.0417972139686346,0.0015));
#661=CARTESIAN_POINT('',(0.00147260973503303,0.00509721396863461,0.0015));
#662=MECHANICAL_DESIGN_GEOMETRIC_PRESENTATION_REPRESENTATION('',(#399),
#663);
#663=(
GEOMETRIC_REPRESENTATION_CONTEXT(3)
GLOBAL_UNCERTAINTY_ASSIGNED_CONTEXT((#664))
GLOBAL_UNIT_ASSIGNED_CONTEXT((#667,#666,#665))
REPRESENTATION_CONTEXT('Part 1','TOP_LEVEL_ASSEMBLY_PART')
);
#664=UNCERTAINTY_MEASURE_WITH_UNIT(LENGTH_MEASURE(1.E-8),#667,
'DISTANCE_ACCURACY_VALUE','Maximum Tolerance applied to model');
#665=(
NAMED_UNIT(*)
SI_UNIT($,.STERADIAN.)
SOLID_ANGLE_UNIT()
);
#666=(
NAMED_UNIT(*)
PLANE_ANGLE_UNIT()
SI_UNIT($,.RADIAN.)
);
#667=(
LENGTH_UNIT()
NAMED_UNIT(*)
SI_UNIT($,.METRE.)
);
#668=PRODUCT_DEFINITION_SHAPE('','',#669);
#669=PRODUCT_DEFINITION('','',#671,#670);
#670=PRODUCT_DEFINITION_CONTEXT('',#677,'design');
#671=PRODUCT_DEFINITION_FORMATION_WITH_SPECIFIED_SOURCE('','',#673,
 .NOT_KNOWN.);
#672=PRODUCT_RELATED_PRODUCT_CATEGORY('','',(#673));
#673=PRODUCT('Part 1','Part 1','Part 1',(#675));
#674=PRODUCT_CATEGORY('','');
#675=PRODUCT_CONTEXT('',#677,'mechanical');
#676=APPLICATION_PROTOCOL_DEFINITION('international standard',
'ap242_managed_model_based_3d_engineering',2020,#677);
#677=APPLICATION_CONTEXT('managed model based 3d engineering');
ENDSEC;
END-ISO-10303-21;
