ISO-10303-21;
HEADER;
/* Generated by software containing ST-Developer
 * from STEP Tools, Inc. (www.steptools.com) 
 */
/* OPTION: using custom renumber hook */

FILE_DESCRIPTION(
/* description */ ('STEP AP242 Edition 2',
'CAx-IF Rec.Pracs.---Representation and Presentation of Product Manufa
cturing Information (PMI)---4.0---2014-10-13',
'CAx-IF Rec.Pracs.---3D Tessellated Geometry---0.4---2014-09-14','2;1',
'CAx-IF Rec.Pracs.---User Defined Attributes---1.5---2016-08-15'),
/* implementation_level */ '2;1');

FILE_NAME(
/* name */ 'Part Studio 2 - Part 1',
/* time_stamp */ '2026-09-16T07:13:56Z',
/* author */ (''),
/* organization */ (''),
/* preprocessor_version */ 'ST-DEVELOPER v20',
/* originating_system */ 'ONSHAPE BY PTC INC, 1.220',
/* authorisation */ '  ');

FILE_SCHEMA (('AP242_MANAGED_MODEL_BASED_3D_ENGINEERING_MIM_LF { 1 0 10303 442 3 1 4 }'));
ENDSEC;

DATA;
#10=SHAPE_REPRESENTATION_RELATIONSHIP('','',#727,#11);
#11=ADVANCED_BREP_SHAPE_REPRESENTATION('',(#725),#1191);
#12=SPHERICAL_SURFACE('',#766,0.001);
#13=SPHERICAL_SURFACE('',#777,0.001);
#14=SPHERICAL_SURFACE('',#779,0.001);
#15=SPHERICAL_SURFACE('',#785,0.001);
#16=CYLINDRICAL_SURFACE('',#761,0.00175);
#17=CYLINDRICAL_SURFACE('',#764,0.001);
#18=CYLINDRICAL_SURFACE('',#769,0.001);
#19=CYLINDRICAL_SURFACE('',#771,0.001);
#20=CYLINDRICAL_SURFACE('',#773,0.001);
#21=CYLINDRICAL_SURFACE('',#775,0.001);
#22=CYLINDRICAL_SURFACE('',#781,0.001);
#23=CYLINDRICAL_SURFACE('',#783,0.001);
#24=CYLINDRICAL_SURFACE('',#787,0.001);
#25=CIRCLE('',#732,0.001);
#26=CIRCLE('',#733,0.001);
#27=CIRCLE('',#734,0.001);
#28=CIRCLE('',#735,0.001);
#29=CIRCLE('',#744,0.00175);
#30=CIRCLE('',#762,0.00175);
#31=CIRCLE('',#765,0.001);
#32=CIRCLE('',#767,0.001);
#33=CIRCLE('',#768,0.001);
#34=CIRCLE('',#770,0.001);
#35=CIRCLE('',#772,0.001);
#36=CIRCLE('',#774,0.001);
#37=CIRCLE('',#776,0.001);
#38=CIRCLE('',#778,0.001);
#39=CIRCLE('',#780,0.001);
#40=CIRCLE('',#782,0.001);
#41=CIRCLE('',#784,0.001);
#42=CIRCLE('',#786,0.001);
#43=ORIENTED_EDGE('',*,*,#239,.T.);
#44=ORIENTED_EDGE('',*,*,#240,.T.);
#45=ORIENTED_EDGE('',*,*,#241,.T.);
#46=ORIENTED_EDGE('',*,*,#242,.F.);
#47=ORIENTED_EDGE('',*,*,#243,.T.);
#48=ORIENTED_EDGE('',*,*,#244,.T.);
#49=ORIENTED_EDGE('',*,*,#245,.T.);
#50=ORIENTED_EDGE('',*,*,#246,.T.);
#51=ORIENTED_EDGE('',*,*,#247,.T.);
#52=ORIENTED_EDGE('',*,*,#248,.T.);
#53=ORIENTED_EDGE('',*,*,#249,.T.);
#54=ORIENTED_EDGE('',*,*,#250,.F.);
#55=ORIENTED_EDGE('',*,*,#251,.T.);
#56=ORIENTED_EDGE('',*,*,#252,.T.);
#57=ORIENTED_EDGE('',*,*,#253,.T.);
#58=ORIENTED_EDGE('',*,*,#254,.T.);
#59=ORIENTED_EDGE('',*,*,#241,.F.);
#60=ORIENTED_EDGE('',*,*,#255,.T.);
#61=ORIENTED_EDGE('',*,*,#256,.T.);
#62=ORIENTED_EDGE('',*,*,#257,.T.);
#63=ORIENTED_EDGE('',*,*,#258,.F.);
#64=ORIENTED_EDGE('',*,*,#259,.F.);
#65=ORIENTED_EDGE('',*,*,#260,.T.);
#66=ORIENTED_EDGE('',*,*,#261,.T.);
#67=ORIENTED_EDGE('',*,*,#262,.T.);
#68=ORIENTED_EDGE('',*,*,#263,.T.);
#69=ORIENTED_EDGE('',*,*,#264,.F.);
#70=ORIENTED_EDGE('',*,*,#265,.F.);
#71=ORIENTED_EDGE('',*,*,#266,.T.);
#72=ORIENTED_EDGE('',*,*,#267,.T.);
#73=ORIENTED_EDGE('',*,*,#253,.F.);
#74=ORIENTED_EDGE('',*,*,#268,.T.);
#75=ORIENTED_EDGE('',*,*,#269,.F.);
#76=ORIENTED_EDGE('',*,*,#270,.F.);
#77=ORIENTED_EDGE('',*,*,#249,.F.);
#78=ORIENTED_EDGE('',*,*,#271,.T.);
#79=ORIENTED_EDGE('',*,*,#245,.F.);
#80=ORIENTED_EDGE('',*,*,#272,.T.);
#81=ORIENTED_EDGE('',*,*,#273,.F.);
#82=ORIENTED_EDGE('',*,*,#274,.F.);
#83=ORIENTED_EDGE('',*,*,#275,.T.);
#84=ORIENTED_EDGE('',*,*,#276,.T.);
#85=ORIENTED_EDGE('',*,*,#277,.F.);
#86=ORIENTED_EDGE('',*,*,#278,.F.);
#87=ORIENTED_EDGE('',*,*,#256,.F.);
#88=ORIENTED_EDGE('',*,*,#279,.T.);
#89=ORIENTED_EDGE('',*,*,#280,.T.);
#90=ORIENTED_EDGE('',*,*,#281,.T.);
#91=ORIENTED_EDGE('',*,*,#260,.F.);
#92=ORIENTED_EDGE('',*,*,#282,.F.);
#93=ORIENTED_EDGE('',*,*,#283,.F.);
#94=ORIENTED_EDGE('',*,*,#284,.T.);
#95=ORIENTED_EDGE('',*,*,#262,.F.);
#96=ORIENTED_EDGE('',*,*,#285,.T.);
#97=ORIENTED_EDGE('',*,*,#286,.T.);
#98=ORIENTED_EDGE('',*,*,#287,.T.);
#99=ORIENTED_EDGE('',*,*,#266,.F.);
#100=ORIENTED_EDGE('',*,*,#288,.F.);
#101=ORIENTED_EDGE('',*,*,#289,.F.);
#102=ORIENTED_EDGE('',*,*,#290,.T.);
#103=ORIENTED_EDGE('',*,*,#291,.T.);
#104=ORIENTED_EDGE('',*,*,#292,.T.);
#105=ORIENTED_EDGE('',*,*,#293,.T.);
#106=ORIENTED_EDGE('',*,*,#294,.T.);
#107=ORIENTED_EDGE('',*,*,#275,.F.);
#108=ORIENTED_EDGE('',*,*,#295,.F.);
#109=ORIENTED_EDGE('',*,*,#296,.T.);
#110=ORIENTED_EDGE('',*,*,#297,.T.);
#111=ORIENTED_EDGE('',*,*,#278,.T.);
#112=ORIENTED_EDGE('',*,*,#298,.F.);
#113=ORIENTED_EDGE('',*,*,#299,.F.);
#114=ORIENTED_EDGE('',*,*,#295,.T.);
#115=ORIENTED_EDGE('',*,*,#277,.T.);
#116=ORIENTED_EDGE('',*,*,#300,.F.);
#117=ORIENTED_EDGE('',*,*,#301,.F.);
#118=ORIENTED_EDGE('',*,*,#298,.T.);
#119=ORIENTED_EDGE('',*,*,#276,.F.);
#120=ORIENTED_EDGE('',*,*,#297,.F.);
#121=ORIENTED_EDGE('',*,*,#302,.T.);
#122=ORIENTED_EDGE('',*,*,#300,.T.);
#123=ORIENTED_EDGE('',*,*,#303,.F.);
#124=ORIENTED_EDGE('',*,*,#296,.F.);
#125=ORIENTED_EDGE('',*,*,#299,.T.);
#126=ORIENTED_EDGE('',*,*,#301,.T.);
#127=ORIENTED_EDGE('',*,*,#302,.F.);
#128=ORIENTED_EDGE('',*,*,#265,.T.);
#129=ORIENTED_EDGE('',*,*,#304,.F.);
#130=ORIENTED_EDGE('',*,*,#305,.F.);
#131=ORIENTED_EDGE('',*,*,#288,.T.);
#132=ORIENTED_EDGE('',*,*,#263,.F.);
#133=ORIENTED_EDGE('',*,*,#290,.F.);
#134=ORIENTED_EDGE('',*,*,#306,.T.);
#135=ORIENTED_EDGE('',*,*,#307,.T.);
#136=ORIENTED_EDGE('',*,*,#264,.T.);
#137=ORIENTED_EDGE('',*,*,#307,.F.);
#138=ORIENTED_EDGE('',*,*,#308,.F.);
#139=ORIENTED_EDGE('',*,*,#304,.T.);
#140=ORIENTED_EDGE('',*,*,#305,.T.);
#141=ORIENTED_EDGE('',*,*,#308,.T.);
#142=ORIENTED_EDGE('',*,*,#306,.F.);
#143=ORIENTED_EDGE('',*,*,#289,.T.);
#144=ORIENTED_EDGE('',*,*,#270,.T.);
#145=ORIENTED_EDGE('',*,*,#309,.F.);
#146=ORIENTED_EDGE('',*,*,#310,.F.);
#147=ORIENTED_EDGE('',*,*,#250,.T.);
#148=ORIENTED_EDGE('',*,*,#268,.F.);
#149=ORIENTED_EDGE('',*,*,#252,.F.);
#150=ORIENTED_EDGE('',*,*,#311,.T.);
#151=ORIENTED_EDGE('',*,*,#312,.T.);
#152=ORIENTED_EDGE('',*,*,#269,.T.);
#153=ORIENTED_EDGE('',*,*,#312,.F.);
#154=ORIENTED_EDGE('',*,*,#313,.F.);
#155=ORIENTED_EDGE('',*,*,#309,.T.);
#156=ORIENTED_EDGE('',*,*,#310,.T.);
#157=ORIENTED_EDGE('',*,*,#313,.T.);
#158=ORIENTED_EDGE('',*,*,#311,.F.);
#159=ORIENTED_EDGE('',*,*,#251,.F.);
#160=ORIENTED_EDGE('',*,*,#274,.T.);
#161=ORIENTED_EDGE('',*,*,#314,.F.);
#162=ORIENTED_EDGE('',*,*,#315,.F.);
#163=ORIENTED_EDGE('',*,*,#242,.T.);
#164=ORIENTED_EDGE('',*,*,#272,.F.);
#165=ORIENTED_EDGE('',*,*,#244,.F.);
#166=ORIENTED_EDGE('',*,*,#316,.T.);
#167=ORIENTED_EDGE('',*,*,#317,.T.);
#168=ORIENTED_EDGE('',*,*,#273,.T.);
#169=ORIENTED_EDGE('',*,*,#317,.F.);
#170=ORIENTED_EDGE('',*,*,#318,.F.);
#171=ORIENTED_EDGE('',*,*,#314,.T.);
#172=ORIENTED_EDGE('',*,*,#315,.T.);
#173=ORIENTED_EDGE('',*,*,#318,.T.);
#174=ORIENTED_EDGE('',*,*,#316,.F.);
#175=ORIENTED_EDGE('',*,*,#243,.F.);
#176=ORIENTED_EDGE('',*,*,#259,.T.);
#177=ORIENTED_EDGE('',*,*,#319,.F.);
#178=ORIENTED_EDGE('',*,*,#320,.F.);
#179=ORIENTED_EDGE('',*,*,#282,.T.);
#180=ORIENTED_EDGE('',*,*,#257,.F.);
#181=ORIENTED_EDGE('',*,*,#284,.F.);
#182=ORIENTED_EDGE('',*,*,#321,.T.);
#183=ORIENTED_EDGE('',*,*,#322,.T.);
#184=ORIENTED_EDGE('',*,*,#258,.T.);
#185=ORIENTED_EDGE('',*,*,#322,.F.);
#186=ORIENTED_EDGE('',*,*,#323,.F.);
#187=ORIENTED_EDGE('',*,*,#319,.T.);
#188=ORIENTED_EDGE('',*,*,#320,.T.);
#189=ORIENTED_EDGE('',*,*,#323,.T.);
#190=ORIENTED_EDGE('',*,*,#321,.F.);
#191=ORIENTED_EDGE('',*,*,#283,.T.);
#192=ORIENTED_EDGE('',*,*,#324,.F.);
#193=ORIENTED_EDGE('',*,*,#303,.T.);
#194=ORIENTED_EDGE('',*,*,#324,.T.);
#195=ORIENTED_EDGE('',*,*,#325,.F.);
#196=ORIENTED_EDGE('',*,*,#254,.F.);
#197=ORIENTED_EDGE('',*,*,#267,.F.);
#198=ORIENTED_EDGE('',*,*,#287,.F.);
#199=ORIENTED_EDGE('',*,*,#326,.F.);
#200=ORIENTED_EDGE('',*,*,#325,.T.);
#201=ORIENTED_EDGE('',*,*,#327,.F.);
#202=ORIENTED_EDGE('',*,*,#261,.F.);
#203=ORIENTED_EDGE('',*,*,#281,.F.);
#204=ORIENTED_EDGE('',*,*,#328,.F.);
#205=ORIENTED_EDGE('',*,*,#285,.F.);
#206=ORIENTED_EDGE('',*,*,#327,.T.);
#207=ORIENTED_EDGE('',*,*,#286,.F.);
#208=ORIENTED_EDGE('',*,*,#329,.F.);
#209=ORIENTED_EDGE('',*,*,#293,.F.);
#210=ORIENTED_EDGE('',*,*,#326,.T.);
#211=ORIENTED_EDGE('',*,*,#292,.F.);
#212=ORIENTED_EDGE('',*,*,#330,.F.);
#213=ORIENTED_EDGE('',*,*,#247,.F.);
#214=ORIENTED_EDGE('',*,*,#271,.F.);
#215=ORIENTED_EDGE('',*,*,#248,.F.);
#216=ORIENTED_EDGE('',*,*,#331,.F.);
#217=ORIENTED_EDGE('',*,*,#246,.F.);
#218=ORIENTED_EDGE('',*,*,#329,.T.);
#219=ORIENTED_EDGE('',*,*,#328,.T.);
#220=ORIENTED_EDGE('',*,*,#332,.F.);
#221=ORIENTED_EDGE('',*,*,#331,.T.);
#222=ORIENTED_EDGE('',*,*,#330,.T.);
#223=ORIENTED_EDGE('',*,*,#333,.F.);
#224=ORIENTED_EDGE('',*,*,#332,.T.);
#225=ORIENTED_EDGE('',*,*,#280,.F.);
#226=ORIENTED_EDGE('',*,*,#334,.F.);
#227=ORIENTED_EDGE('',*,*,#294,.F.);
#228=ORIENTED_EDGE('',*,*,#333,.T.);
#229=ORIENTED_EDGE('',*,*,#291,.F.);
#230=ORIENTED_EDGE('',*,*,#335,.F.);
#231=ORIENTED_EDGE('',*,*,#239,.F.);
#232=ORIENTED_EDGE('',*,*,#335,.T.);
#233=ORIENTED_EDGE('',*,*,#334,.T.);
#234=ORIENTED_EDGE('',*,*,#336,.F.);
#235=ORIENTED_EDGE('',*,*,#336,.T.);
#236=ORIENTED_EDGE('',*,*,#279,.F.);
#237=ORIENTED_EDGE('',*,*,#255,.F.);
#238=ORIENTED_EDGE('',*,*,#240,.F.);
#239=EDGE_CURVE('',#337,#338,#399,.F.);
#240=EDGE_CURVE('',#338,#339,#400,.T.);
#241=EDGE_CURVE('',#339,#340,#401,.T.);
#242=EDGE_CURVE('',#341,#340,#402,.T.);
#243=EDGE_CURVE('',#341,#342,#403,.T.);
#244=EDGE_CURVE('',#342,#343,#404,.T.);
#245=EDGE_CURVE('',#343,#344,#405,.T.);
#246=EDGE_CURVE('',#344,#337,#406,.F.);
#247=EDGE_CURVE('',#345,#346,#407,.F.);
#248=EDGE_CURVE('',#346,#347,#408,.T.);
#249=EDGE_CURVE('',#347,#348,#409,.T.);
#250=EDGE_CURVE('',#349,#348,#410,.T.);
#251=EDGE_CURVE('',#349,#350,#411,.T.);
#252=EDGE_CURVE('',#350,#351,#412,.T.);
#253=EDGE_CURVE('',#351,#352,#413,.T.);
#254=EDGE_CURVE('',#352,#345,#414,.F.);
#255=EDGE_CURVE('',#339,#353,#25,.F.);
#256=EDGE_CURVE('',#353,#354,#415,.T.);
#257=EDGE_CURVE('',#354,#355,#416,.T.);
#258=EDGE_CURVE('',#356,#355,#417,.T.);
#259=EDGE_CURVE('',#357,#356,#418,.T.);
#260=EDGE_CURVE('',#357,#358,#419,.T.);
#261=EDGE_CURVE('',#358,#359,#26,.F.);
#262=EDGE_CURVE('',#359,#360,#420,.T.);
#263=EDGE_CURVE('',#360,#361,#421,.T.);
#264=EDGE_CURVE('',#362,#361,#422,.T.);
#265=EDGE_CURVE('',#363,#362,#423,.T.);
#266=EDGE_CURVE('',#363,#364,#424,.T.);
#267=EDGE_CURVE('',#364,#352,#27,.F.);
#268=EDGE_CURVE('',#351,#365,#425,.T.);
#269=EDGE_CURVE('',#366,#365,#426,.T.);
#270=EDGE_CURVE('',#348,#366,#427,.T.);
#271=EDGE_CURVE('',#347,#344,#28,.F.);
#272=EDGE_CURVE('',#343,#367,#428,.T.);
#273=EDGE_CURVE('',#368,#367,#429,.T.);
#274=EDGE_CURVE('',#340,#368,#430,.T.);
#275=EDGE_CURVE('',#369,#370,#431,.T.);
#276=EDGE_CURVE('',#370,#371,#432,.T.);
#277=EDGE_CURVE('',#372,#371,#433,.T.);
#278=EDGE_CURVE('',#369,#372,#434,.T.);
#279=EDGE_CURVE('',#353,#373,#435,.F.);
#280=EDGE_CURVE('',#373,#374,#436,.T.);
#281=EDGE_CURVE('',#374,#358,#437,.T.);
#282=EDGE_CURVE('',#375,#357,#438,.T.);
#283=EDGE_CURVE('',#376,#375,#439,.T.);
#284=EDGE_CURVE('',#376,#354,#440,.T.);
#285=EDGE_CURVE('',#359,#377,#441,.F.);
#286=EDGE_CURVE('',#377,#378,#442,.T.);
#287=EDGE_CURVE('',#378,#364,#443,.T.);
#288=EDGE_CURVE('',#379,#363,#444,.T.);
#289=EDGE_CURVE('',#380,#379,#445,.T.);
#290=EDGE_CURVE('',#380,#360,#446,.T.);
#291=EDGE_CURVE('',#381,#382,#447,.T.);
#292=EDGE_CURVE('',#382,#383,#448,.T.);
#293=EDGE_CURVE('',#383,#384,#449,.F.);
#294=EDGE_CURVE('',#384,#381,#450,.F.);
#295=EDGE_CURVE('',#385,#369,#451,.T.);
#296=EDGE_CURVE('',#385,#386,#452,.T.);
#297=EDGE_CURVE('',#386,#370,#453,.T.);
#298=EDGE_CURVE('',#387,#372,#454,.T.);
#299=EDGE_CURVE('',#385,#387,#455,.T.);
#300=EDGE_CURVE('',#388,#371,#456,.T.);
#301=EDGE_CURVE('',#387,#388,#457,.T.);
#302=EDGE_CURVE('',#386,#388,#458,.T.);
#303=EDGE_CURVE('',#389,#389,#29,.T.);
#304=EDGE_CURVE('',#390,#362,#459,.T.);
#305=EDGE_CURVE('',#379,#390,#460,.T.);
#306=EDGE_CURVE('',#380,#391,#461,.T.);
#307=EDGE_CURVE('',#391,#361,#462,.T.);
#308=EDGE_CURVE('',#390,#391,#463,.T.);
#309=EDGE_CURVE('',#392,#366,#464,.T.);
#310=EDGE_CURVE('',#349,#392,#465,.T.);
#311=EDGE_CURVE('',#350,#393,#466,.T.);
#312=EDGE_CURVE('',#393,#365,#467,.T.);
#313=EDGE_CURVE('',#392,#393,#468,.T.);
#314=EDGE_CURVE('',#394,#368,#469,.T.);
#315=EDGE_CURVE('',#341,#394,#470,.T.);
#316=EDGE_CURVE('',#342,#395,#471,.T.);
#317=EDGE_CURVE('',#395,#367,#472,.T.);
#318=EDGE_CURVE('',#394,#395,#473,.T.);
#319=EDGE_CURVE('',#396,#356,#474,.T.);
#320=EDGE_CURVE('',#375,#396,#475,.T.);
#321=EDGE_CURVE('',#376,#397,#476,.T.);
#322=EDGE_CURVE('',#397,#355,#477,.T.);
#323=EDGE_CURVE('',#396,#397,#478,.T.);
#324=EDGE_CURVE('',#398,#398,#30,.T.);
#325=EDGE_CURVE('',#345,#378,#31,.T.);
#326=EDGE_CURVE('',#345,#383,#32,.F.);
#327=EDGE_CURVE('',#383,#378,#33,.F.);
#328=EDGE_CURVE('',#377,#374,#34,.T.);
#329=EDGE_CURVE('',#384,#377,#35,.T.);
#330=EDGE_CURVE('',#346,#382,#36,.T.);
#331=EDGE_CURVE('',#337,#346,#37,.T.);
#332=EDGE_CURVE('',#384,#374,#38,.F.);
#333=EDGE_CURVE('',#337,#382,#39,.F.);
#334=EDGE_CURVE('',#381,#373,#40,.T.);
#335=EDGE_CURVE('',#338,#381,#41,.T.);
#336=EDGE_CURVE('',#338,#373,#42,.F.);
#337=VERTEX_POINT('',#991);
#338=VERTEX_POINT('',#992);
#339=VERTEX_POINT('',#994);
#340=VERTEX_POINT('',#996);
#341=VERTEX_POINT('',#998);
#342=VERTEX_POINT('',#1000);
#343=VERTEX_POINT('',#1002);
#344=VERTEX_POINT('',#1004);
#345=VERTEX_POINT('',#1008);
#346=VERTEX_POINT('',#1009);
#347=VERTEX_POINT('',#1011);
#348=VERTEX_POINT('',#1013);
#349=VERTEX_POINT('',#1015);
#350=VERTEX_POINT('',#1017);
#351=VERTEX_POINT('',#1019);
#352=VERTEX_POINT('',#1021);
#353=VERTEX_POINT('',#1025);
#354=VERTEX_POINT('',#1027);
#355=VERTEX_POINT('',#1029);
#356=VERTEX_POINT('',#1031);
#357=VERTEX_POINT('',#1033);
#358=VERTEX_POINT('',#1035);
#359=VERTEX_POINT('',#1037);
#360=VERTEX_POINT('',#1039);
#361=VERTEX_POINT('',#1041);
#362=VERTEX_POINT('',#1043);
#363=VERTEX_POINT('',#1045);
#364=VERTEX_POINT('',#1047);
#365=VERTEX_POINT('',#1050);
#366=VERTEX_POINT('',#1052);
#367=VERTEX_POINT('',#1056);
#368=VERTEX_POINT('',#1058);
#369=VERTEX_POINT('',#1061);
#370=VERTEX_POINT('',#1062);
#371=VERTEX_POINT('',#1064);
#372=VERTEX_POINT('',#1066);
#373=VERTEX_POINT('',#1070);
#374=VERTEX_POINT('',#1072);
#375=VERTEX_POINT('',#1075);
#376=VERTEX_POINT('',#1077);
#377=VERTEX_POINT('',#1081);
#378=VERTEX_POINT('',#1083);
#379=VERTEX_POINT('',#1086);
#380=VERTEX_POINT('',#1088);
#381=VERTEX_POINT('',#1092);
#382=VERTEX_POINT('',#1093);
#383=VERTEX_POINT('',#1095);
#384=VERTEX_POINT('',#1097);
#385=VERTEX_POINT('',#1101);
#386=VERTEX_POINT('',#1103);
#387=VERTEX_POINT('',#1107);
#388=VERTEX_POINT('',#1111);
#389=VERTEX_POINT('',#1117);
#390=VERTEX_POINT('',#1120);
#391=VERTEX_POINT('',#1124);
#392=VERTEX_POINT('',#1131);
#393=VERTEX_POINT('',#1135);
#394=VERTEX_POINT('',#1142);
#395=VERTEX_POINT('',#1146);
#396=VERTEX_POINT('',#1153);
#397=VERTEX_POINT('',#1157);
#398=VERTEX_POINT('',#1164);
#399=LINE('',#990,#479);
#400=LINE('',#993,#480);
#401=LINE('',#995,#481);
#402=LINE('',#997,#482);
#403=LINE('',#999,#483);
#404=LINE('',#1001,#484);
#405=LINE('',#1003,#485);
#406=LINE('',#1005,#486);
#407=LINE('',#1007,#487);
#408=LINE('',#1010,#488);
#409=LINE('',#1012,#489);
#410=LINE('',#1014,#490);
#411=LINE('',#1016,#491);
#412=LINE('',#1018,#492);
#413=LINE('',#1020,#493);
#414=LINE('',#1022,#494);
#415=LINE('',#1026,#495);
#416=LINE('',#1028,#496);
#417=LINE('',#1030,#497);
#418=LINE('',#1032,#498);
#419=LINE('',#1034,#499);
#420=LINE('',#1038,#500);
#421=LINE('',#1040,#501);
#422=LINE('',#1042,#502);
#423=LINE('',#1044,#503);
#424=LINE('',#1046,#504);
#425=LINE('',#1049,#505);
#426=LINE('',#1051,#506);
#427=LINE('',#1053,#507);
#428=LINE('',#1055,#508);
#429=LINE('',#1057,#509);
#430=LINE('',#1059,#510);
#431=LINE('',#1060,#511);
#432=LINE('',#1063,#512);
#433=LINE('',#1065,#513);
#434=LINE('',#1067,#514);
#435=LINE('',#1069,#515);
#436=LINE('',#1071,#516);
#437=LINE('',#1073,#517);
#438=LINE('',#1074,#518);
#439=LINE('',#1076,#519);
#440=LINE('',#1078,#520);
#441=LINE('',#1080,#521);
#442=LINE('',#1082,#522);
#443=LINE('',#1084,#523);
#444=LINE('',#1085,#524);
#445=LINE('',#1087,#525);
#446=LINE('',#1089,#526);
#447=LINE('',#1091,#527);
#448=LINE('',#1094,#528);
#449=LINE('',#1096,#529);
#450=LINE('',#1098,#530);
#451=LINE('',#1100,#531);
#452=LINE('',#1102,#532);
#453=LINE('',#1104,#533);
#454=LINE('',#1106,#534);
#455=LINE('',#1108,#535);
#456=LINE('',#1110,#536);
#457=LINE('',#1112,#537);
#458=LINE('',#1114,#538);
#459=LINE('',#1119,#539);
#460=LINE('',#1121,#540);
#461=LINE('',#1123,#541);
#462=LINE('',#1125,#542);
#463=LINE('',#1127,#543);
#464=LINE('',#1130,#544);
#465=LINE('',#1132,#545);
#466=LINE('',#1134,#546);
#467=LINE('',#1136,#547);
#468=LINE('',#1138,#548);
#469=LINE('',#1141,#549);
#470=LINE('',#1143,#550);
#471=LINE('',#1145,#551);
#472=LINE('',#1147,#552);
#473=LINE('',#1149,#553);
#474=LINE('',#1152,#554);
#475=LINE('',#1154,#555);
#476=LINE('',#1156,#556);
#477=LINE('',#1158,#557);
#478=LINE('',#1160,#558);
#479=VECTOR('',#792,1.);
#480=VECTOR('',#793,1.);
#481=VECTOR('',#794,1.);
#482=VECTOR('',#795,1.);
#483=VECTOR('',#796,1.);
#484=VECTOR('',#797,1.);
#485=VECTOR('',#798,1.);
#486=VECTOR('',#799,1.);
#487=VECTOR('',#802,1.);
#488=VECTOR('',#803,1.);
#489=VECTOR('',#804,1.);
#490=VECTOR('',#805,1.);
#491=VECTOR('',#806,1.);
#492=VECTOR('',#807,1.);
#493=VECTOR('',#808,1.);
#494=VECTOR('',#809,1.);
#495=VECTOR('',#814,1.);
#496=VECTOR('',#815,1.);
#497=VECTOR('',#816,1.);
#498=VECTOR('',#817,1.);
#499=VECTOR('',#818,1.);
#500=VECTOR('',#821,1.);
#501=VECTOR('',#822,1.);
#502=VECTOR('',#823,1.);
#503=VECTOR('',#824,1.);
#504=VECTOR('',#825,1.);
#505=VECTOR('',#828,1.);
#506=VECTOR('',#829,1.);
#507=VECTOR('',#830,1.);
#508=VECTOR('',#833,1.);
#509=VECTOR('',#834,1.);
#510=VECTOR('',#835,1.);
#511=VECTOR('',#836,1.);
#512=VECTOR('',#837,1.);
#513=VECTOR('',#838,1.);
#514=VECTOR('',#839,1.);
#515=VECTOR('',#842,1.);
#516=VECTOR('',#843,1.);
#517=VECTOR('',#844,1.);
#518=VECTOR('',#845,1.);
#519=VECTOR('',#846,1.);
#520=VECTOR('',#847,1.);
#521=VECTOR('',#850,1.);
#522=VECTOR('',#851,1.);
#523=VECTOR('',#852,1.);
#524=VECTOR('',#853,1.);
#525=VECTOR('',#854,1.);
#526=VECTOR('',#855,1.);
#527=VECTOR('',#858,1.);
#528=VECTOR('',#859,1.);
#529=VECTOR('',#860,1.);
#530=VECTOR('',#861,1.);
#531=VECTOR('',#864,1.);
#532=VECTOR('',#865,1.);
#533=VECTOR('',#866,1.);
#534=VECTOR('',#869,1.);
#535=VECTOR('',#870,1.);
#536=VECTOR('',#873,1.);
#537=VECTOR('',#874,1.);
#538=VECTOR('',#877,1.);
#539=VECTOR('',#884,1.);
#540=VECTOR('',#885,1.);
#541=VECTOR('',#888,1.);
#542=VECTOR('',#889,1.);
#543=VECTOR('',#892,1.);
#544=VECTOR('',#897,1.);
#545=VECTOR('',#898,1.);
#546=VECTOR('',#901,1.);
#547=VECTOR('',#902,1.);
#548=VECTOR('',#905,1.);
#549=VECTOR('',#910,1.);
#550=VECTOR('',#911,1.);
#551=VECTOR('',#914,1.);
#552=VECTOR('',#915,1.);
#553=VECTOR('',#918,1.);
#554=VECTOR('',#923,1.);
#555=VECTOR('',#924,1.);
#556=VECTOR('',#927,1.);
#557=VECTOR('',#928,1.);
#558=VECTOR('',#931,1.);
#559=EDGE_LOOP('',(#43,#44,#45,#46,#47,#48,#49,#50));
#560=EDGE_LOOP('',(#51,#52,#53,#54,#55,#56,#57,#58));
#561=EDGE_LOOP('',(#59,#60,#61,#62,#63,#64,#65,#66,#67,#68,#69,#70,#71,
#72,#73,#74,#75,#76,#77,#78,#79,#80,#81,#82));
#562=EDGE_LOOP('',(#83,#84,#85,#86));
#563=EDGE_LOOP('',(#87,#88,#89,#90,#91,#92,#93,#94));
#564=EDGE_LOOP('',(#95,#96,#97,#98,#99,#100,#101,#102));
#565=EDGE_LOOP('',(#103,#104,#105,#106));
#566=EDGE_LOOP('',(#107,#108,#109,#110));
#567=EDGE_LOOP('',(#111,#112,#113,#114));
#568=EDGE_LOOP('',(#115,#116,#117,#118));
#569=EDGE_LOOP('',(#119,#120,#121,#122));
#570=EDGE_LOOP('',(#123));
#571=EDGE_LOOP('',(#124,#125,#126,#127));
#572=EDGE_LOOP('',(#128,#129,#130,#131));
#573=EDGE_LOOP('',(#132,#133,#134,#135));
#574=EDGE_LOOP('',(#136,#137,#138,#139));
#575=EDGE_LOOP('',(#140,#141,#142,#143));
#576=EDGE_LOOP('',(#144,#145,#146,#147));
#577=EDGE_LOOP('',(#148,#149,#150,#151));
#578=EDGE_LOOP('',(#152,#153,#154,#155));
#579=EDGE_LOOP('',(#156,#157,#158,#159));
#580=EDGE_LOOP('',(#160,#161,#162,#163));
#581=EDGE_LOOP('',(#164,#165,#166,#167));
#582=EDGE_LOOP('',(#168,#169,#170,#171));
#583=EDGE_LOOP('',(#172,#173,#174,#175));
#584=EDGE_LOOP('',(#176,#177,#178,#179));
#585=EDGE_LOOP('',(#180,#181,#182,#183));
#586=EDGE_LOOP('',(#184,#185,#186,#187));
#587=EDGE_LOOP('',(#188,#189,#190,#191));
#588=EDGE_LOOP('',(#192));
#589=EDGE_LOOP('',(#193));
#590=EDGE_LOOP('',(#194));
#591=EDGE_LOOP('',(#195,#196,#197,#198));
#592=EDGE_LOOP('',(#199,#200,#201));
#593=EDGE_LOOP('',(#202,#203,#204,#205));
#594=EDGE_LOOP('',(#206,#207,#208,#209));
#595=EDGE_LOOP('',(#210,#211,#212,#213));
#596=EDGE_LOOP('',(#214,#215,#216,#217));
#597=EDGE_LOOP('',(#218,#219,#220));
#598=EDGE_LOOP('',(#221,#222,#223));
#599=EDGE_LOOP('',(#224,#225,#226,#227));
#600=EDGE_LOOP('',(#228,#229,#230,#231));
#601=EDGE_LOOP('',(#232,#233,#234));
#602=EDGE_LOOP('',(#235,#236,#237,#238));
#603=FACE_BOUND('',#559,.T.);
#604=FACE_BOUND('',#560,.T.);
#605=FACE_BOUND('',#561,.T.);
#606=FACE_BOUND('',#562,.T.);
#607=FACE_BOUND('',#563,.T.);
#608=FACE_BOUND('',#564,.T.);
#609=FACE_BOUND('',#565,.T.);
#610=FACE_BOUND('',#566,.T.);
#611=FACE_BOUND('',#567,.T.);
#612=FACE_BOUND('',#568,.T.);
#613=FACE_BOUND('',#569,.T.);
#614=FACE_BOUND('',#570,.T.);
#615=FACE_BOUND('',#571,.T.);
#616=FACE_BOUND('',#572,.T.);
#617=FACE_BOUND('',#573,.T.);
#618=FACE_BOUND('',#574,.T.);
#619=FACE_BOUND('',#575,.T.);
#620=FACE_BOUND('',#576,.T.);
#621=FACE_BOUND('',#577,.T.);
#622=FACE_BOUND('',#578,.T.);
#623=FACE_BOUND('',#579,.T.);
#624=FACE_BOUND('',#580,.T.);
#625=FACE_BOUND('',#581,.T.);
#626=FACE_BOUND('',#582,.T.);
#627=FACE_BOUND('',#583,.T.);
#628=FACE_BOUND('',#584,.T.);
#629=FACE_BOUND('',#585,.T.);
#630=FACE_BOUND('',#586,.T.);
#631=FACE_BOUND('',#587,.T.);
#632=FACE_BOUND('',#588,.T.);
#633=FACE_BOUND('',#589,.T.);
#634=FACE_BOUND('',#590,.T.);
#635=FACE_BOUND('',#591,.T.);
#636=FACE_BOUND('',#592,.T.);
#637=FACE_BOUND('',#593,.T.);
#638=FACE_BOUND('',#594,.T.);
#639=FACE_BOUND('',#595,.T.);
#640=FACE_BOUND('',#596,.T.);
#641=FACE_BOUND('',#597,.T.);
#642=FACE_BOUND('',#598,.T.);
#643=FACE_BOUND('',#599,.T.);
#644=FACE_BOUND('',#600,.T.);
#645=FACE_BOUND('',#601,.T.);
#646=FACE_BOUND('',#602,.T.);
#647=PLANE('',#729);
#648=PLANE('',#730);
#649=PLANE('',#731);
#650=PLANE('',#736);
#651=PLANE('',#737);
#652=PLANE('',#738);
#653=PLANE('',#739);
#654=PLANE('',#740);
#655=PLANE('',#741);
#656=PLANE('',#742);
#657=PLANE('',#743);
#658=PLANE('',#745);
#659=PLANE('',#746);
#660=PLANE('',#747);
#661=PLANE('',#748);
#662=PLANE('',#749);
#663=PLANE('',#750);
#664=PLANE('',#751);
#665=PLANE('',#752);
#666=PLANE('',#753);
#667=PLANE('',#754);
#668=PLANE('',#755);
#669=PLANE('',#756);
#670=PLANE('',#757);
#671=PLANE('',#758);
#672=PLANE('',#759);
#673=PLANE('',#760);
#674=PLANE('',#763);
#675=ADVANCED_FACE('',(#603),#647,.F.);
#676=ADVANCED_FACE('',(#604),#648,.F.);
#677=ADVANCED_FACE('',(#605,#606),#649,.F.);
#678=ADVANCED_FACE('',(#607),#650,.T.);
#679=ADVANCED_FACE('',(#608),#651,.T.);
#680=ADVANCED_FACE('',(#609),#652,.T.);
#681=ADVANCED_FACE('',(#610),#653,.T.);
#682=ADVANCED_FACE('',(#611),#654,.F.);
#683=ADVANCED_FACE('',(#612),#655,.F.);
#684=ADVANCED_FACE('',(#613),#656,.T.);
#685=ADVANCED_FACE('',(#614,#615),#657,.T.);
#686=ADVANCED_FACE('',(#616),#658,.F.);
#687=ADVANCED_FACE('',(#617),#659,.T.);
#688=ADVANCED_FACE('',(#618),#660,.F.);
#689=ADVANCED_FACE('',(#619),#661,.F.);
#690=ADVANCED_FACE('',(#620),#662,.F.);
#691=ADVANCED_FACE('',(#621),#663,.T.);
#692=ADVANCED_FACE('',(#622),#664,.F.);
#693=ADVANCED_FACE('',(#623),#665,.F.);
#694=ADVANCED_FACE('',(#624),#666,.F.);
#695=ADVANCED_FACE('',(#625),#667,.T.);
#696=ADVANCED_FACE('',(#626),#668,.F.);
#697=ADVANCED_FACE('',(#627),#669,.F.);
#698=ADVANCED_FACE('',(#628),#670,.F.);
#699=ADVANCED_FACE('',(#629),#671,.T.);
#700=ADVANCED_FACE('',(#630),#672,.F.);
#701=ADVANCED_FACE('',(#631),#673,.F.);
#702=ADVANCED_FACE('',(#632,#633),#16,.T.);
#703=ADVANCED_FACE('',(#634),#674,.T.);
#704=ADVANCED_FACE('',(#635),#17,.T.);
#705=ADVANCED_FACE('',(#636),#12,.T.);
#706=ADVANCED_FACE('',(#637),#18,.T.);
#707=ADVANCED_FACE('',(#638),#19,.T.);
#708=ADVANCED_FACE('',(#639),#20,.T.);
#709=ADVANCED_FACE('',(#640),#21,.T.);
#710=ADVANCED_FACE('',(#641),#13,.T.);
#711=ADVANCED_FACE('',(#642),#14,.T.);
#712=ADVANCED_FACE('',(#643),#22,.T.);
#713=ADVANCED_FACE('',(#644),#23,.T.);
#714=ADVANCED_FACE('',(#645),#15,.T.);
#715=ADVANCED_FACE('',(#646),#24,.T.);
#716=CLOSED_SHELL('',(#675,#676,#677,#678,#679,#680,#681,#682,#683,#684,
#685,#686,#687,#688,#689,#690,#691,#692,#693,#694,#695,#696,#697,#698,#699,
#700,#701,#702,#703,#704,#705,#706,#707,#708,#709,#710,#711,#712,#713,#714,
#715));
#717=STYLED_ITEM('',(#718),#725);
#718=PRESENTATION_STYLE_ASSIGNMENT((#719));
#719=SURFACE_STYLE_USAGE(.BOTH.,#720);
#720=SURFACE_SIDE_STYLE('',(#721));
#721=SURFACE_STYLE_FILL_AREA(#722);
#722=FILL_AREA_STYLE('',(#723));
#723=FILL_AREA_STYLE_COLOUR('',#724);
#724=COLOUR_RGB('',0.615686274509804,0.811764705882353,0.929411764705882);
#725=MANIFOLD_SOLID_BREP('Part 1',#716);
#726=SHAPE_DEFINITION_REPRESENTATION(#1196,#727);
#727=SHAPE_REPRESENTATION('Part 1',(#728),#1191);
#728=AXIS2_PLACEMENT_3D('',#988,#788,#789);
#729=AXIS2_PLACEMENT_3D('',#989,#790,#791);
#730=AXIS2_PLACEMENT_3D('',#1006,#800,#801);
#731=AXIS2_PLACEMENT_3D('',#1023,#810,#811);
#732=AXIS2_PLACEMENT_3D('',#1024,#812,#813);
#733=AXIS2_PLACEMENT_3D('',#1036,#819,#820);
#734=AXIS2_PLACEMENT_3D('',#1048,#826,#827);
#735=AXIS2_PLACEMENT_3D('',#1054,#831,#832);
#736=AXIS2_PLACEMENT_3D('',#1068,#840,#841);
#737=AXIS2_PLACEMENT_3D('',#1079,#848,#849);
#738=AXIS2_PLACEMENT_3D('',#1090,#856,#857);
#739=AXIS2_PLACEMENT_3D('',#1099,#862,#863);
#740=AXIS2_PLACEMENT_3D('',#1105,#867,#868);
#741=AXIS2_PLACEMENT_3D('',#1109,#871,#872);
#742=AXIS2_PLACEMENT_3D('',#1113,#875,#876);
#743=AXIS2_PLACEMENT_3D('',#1115,#878,#879);
#744=AXIS2_PLACEMENT_3D('',#1116,#880,#881);
#745=AXIS2_PLACEMENT_3D('',#1118,#882,#883);
#746=AXIS2_PLACEMENT_3D('',#1122,#886,#887);
#747=AXIS2_PLACEMENT_3D('',#1126,#890,#891);
#748=AXIS2_PLACEMENT_3D('',#1128,#893,#894);
#749=AXIS2_PLACEMENT_3D('',#1129,#895,#896);
#750=AXIS2_PLACEMENT_3D('',#1133,#899,#900);
#751=AXIS2_PLACEMENT_3D('',#1137,#903,#904);
#752=AXIS2_PLACEMENT_3D('',#1139,#906,#907);
#753=AXIS2_PLACEMENT_3D('',#1140,#908,#909);
#754=AXIS2_PLACEMENT_3D('',#1144,#912,#913);
#755=AXIS2_PLACEMENT_3D('',#1148,#916,#917);
#756=AXIS2_PLACEMENT_3D('',#1150,#919,#920);
#757=AXIS2_PLACEMENT_3D('',#1151,#921,#922);
#758=AXIS2_PLACEMENT_3D('',#1155,#925,#926);
#759=AXIS2_PLACEMENT_3D('',#1159,#929,#930);
#760=AXIS2_PLACEMENT_3D('',#1161,#932,#933);
#761=AXIS2_PLACEMENT_3D('',#1162,#934,#935);
#762=AXIS2_PLACEMENT_3D('',#1163,#936,#937);
#763=AXIS2_PLACEMENT_3D('',#1165,#938,#939);
#764=AXIS2_PLACEMENT_3D('',#1166,#940,#941);
#765=AXIS2_PLACEMENT_3D('',#1167,#942,#943);
#766=AXIS2_PLACEMENT_3D('',#1168,#944,#945);
#767=AXIS2_PLACEMENT_3D('',#1169,#946,#947);
#768=AXIS2_PLACEMENT_3D('',#1170,#948,#949);
#769=AXIS2_PLACEMENT_3D('',#1171,#950,#951);
#770=AXIS2_PLACEMENT_3D('',#1172,#952,#953);
#771=AXIS2_PLACEMENT_3D('',#1173,#954,#955);
#772=AXIS2_PLACEMENT_3D('',#1174,#956,#957);
#773=AXIS2_PLACEMENT_3D('',#1175,#958,#959);
#774=AXIS2_PLACEMENT_3D('',#1176,#960,#961);
#775=AXIS2_PLACEMENT_3D('',#1177,#962,#963);
#776=AXIS2_PLACEMENT_3D('',#1178,#964,#965);
#777=AXIS2_PLACEMENT_3D('',#1179,#966,#967);
#778=AXIS2_PLACEMENT_3D('',#1180,#968,#969);
#779=AXIS2_PLACEMENT_3D('',#1181,#970,#971);
#780=AXIS2_PLACEMENT_3D('',#1182,#972,#973);
#781=AXIS2_PLACEMENT_3D('',#1183,#974,#975);
#782=AXIS2_PLACEMENT_3D('',#1184,#976,#977);
#783=AXIS2_PLACEMENT_3D('',#1185,#978,#979);
#784=AXIS2_PLACEMENT_3D('',#1186,#980,#981);
#785=AXIS2_PLACEMENT_3D('',#1187,#982,#983);
#786=AXIS2_PLACEMENT_3D('',#1188,#984,#985);
#787=AXIS2_PLACEMENT_3D('',#1189,#986,#987);
#788=DIRECTION('',(0.,0.,1.));
#789=DIRECTION('',(1.,0.,0.));
#790=DIRECTION('',(1.,0.,0.));
#791=DIRECTION('',(0.,0.,-1.));
#792=DIRECTION('',(0.,-1.,0.));
#793=DIRECTION('',(0.,0.,-1.));
#794=DIRECTION('',(0.,-1.,0.));
#795=DIRECTION('',(0.,0.,-1.));
#796=DIRECTION('',(0.,-1.,0.));
#797=DIRECTION('',(0.,0.,-1.));
#798=DIRECTION('',(0.,-1.,0.));
#799=DIRECTION('',(0.,0.,-1.));
#800=DIRECTION('',(0.,1.,0.));
#801=DIRECTION('',(0.,0.,1.));
#802=DIRECTION('',(1.,0.,0.));
#803=DIRECTION('',(0.,0.,-1.));
#804=DIRECTION('',(1.,0.,0.));
#805=DIRECTION('',(0.,0.,-1.));
#806=DIRECTION('',(1.,0.,0.));
#807=DIRECTION('',(0.,0.,-1.));
#808=DIRECTION('',(1.,0.,0.));
#809=DIRECTION('',(0.,0.,-1.));
#810=DIRECTION('',(0.,0.,1.));
#811=DIRECTION('',(1.,0.,0.));
#812=DIRECTION('',(0.,0.,1.));
#813=DIRECTION('',(1.,0.,0.));
#814=DIRECTION('',(1.,0.,0.));
#815=DIRECTION('',(0.,1.,0.));
#816=DIRECTION('',(-1.,0.,0.));
#817=DIRECTION('',(0.,1.,0.));
#818=DIRECTION('',(1.,0.,0.));
#819=DIRECTION('',(0.,0.,1.));
#820=DIRECTION('',(1.,0.,0.));
#821=DIRECTION('',(0.,-1.,0.));
#822=DIRECTION('',(1.,0.,0.));
#823=DIRECTION('',(0.,1.,0.));
#824=DIRECTION('',(1.,0.,0.));
#825=DIRECTION('',(0.,-1.,0.));
#826=DIRECTION('',(0.,0.,1.));
#827=DIRECTION('',(1.,0.,0.));
#828=DIRECTION('',(0.,-1.,0.));
#829=DIRECTION('',(1.,0.,0.));
#830=DIRECTION('',(0.,-1.,0.));
#831=DIRECTION('',(0.,0.,1.));
#832=DIRECTION('',(1.,0.,0.));
#833=DIRECTION('',(-1.,0.,0.));
#834=DIRECTION('',(0.,-1.,0.));
#835=DIRECTION('',(-1.,0.,0.));
#836=DIRECTION('',(1.,0.,0.));
#837=DIRECTION('',(0.,1.,0.));
#838=DIRECTION('',(1.,0.,0.));
#839=DIRECTION('',(0.,1.,0.));
#840=DIRECTION('',(0.,1.,0.));
#841=DIRECTION('',(0.,0.,1.));
#842=DIRECTION('',(0.,0.,-1.));
#843=DIRECTION('',(1.,0.,0.));
#844=DIRECTION('',(0.,0.,-1.));
#845=DIRECTION('',(0.,0.,-1.));
#846=DIRECTION('',(1.,0.,0.));
#847=DIRECTION('',(0.,0.,-1.));
#848=DIRECTION('',(1.,0.,0.));
#849=DIRECTION('',(0.,0.,-1.));
#850=DIRECTION('',(0.,0.,-1.));
#851=DIRECTION('',(0.,-1.,0.));
#852=DIRECTION('',(0.,0.,-1.));
#853=DIRECTION('',(0.,0.,-1.));
#854=DIRECTION('',(0.,-1.,0.));
#855=DIRECTION('',(0.,0.,-1.));
#856=DIRECTION('',(0.,0.,1.));
#857=DIRECTION('',(1.,0.,0.));
#858=DIRECTION('',(0.,-1.,0.));
#859=DIRECTION('',(1.,0.,0.));
#860=DIRECTION('',(0.,-1.,0.));
#861=DIRECTION('',(1.,0.,0.));
#862=DIRECTION('',(0.,1.,0.));
#863=DIRECTION('',(0.,0.,1.));
#864=DIRECTION('',(0.,0.,-1.));
#865=DIRECTION('',(1.,0.,0.));
#866=DIRECTION('',(0.,0.,-1.));
#867=DIRECTION('',(-1.,0.,0.));
#868=DIRECTION('',(0.,0.,1.));
#869=DIRECTION('',(0.,0.,-1.));
#870=DIRECTION('',(0.,1.,0.));
#871=DIRECTION('',(0.,1.,0.));
#872=DIRECTION('',(0.,0.,1.));
#873=DIRECTION('',(0.,0.,-1.));
#874=DIRECTION('',(1.,0.,0.));
#875=DIRECTION('',(-1.,0.,0.));
#876=DIRECTION('',(0.,0.,1.));
#877=DIRECTION('',(0.,1.,0.));
#878=DIRECTION('',(0.,0.,-1.));
#879=DIRECTION('',(1.,0.,0.));
#880=DIRECTION('',(0.,0.,-1.));
#881=DIRECTION('',(-1.,0.,0.));
#882=DIRECTION('',(0.,1.,0.));
#883=DIRECTION('',(0.,0.,1.));
#884=DIRECTION('',(0.,0.,-1.));
#885=DIRECTION('',(1.,0.,0.));
#886=DIRECTION('',(0.,1.,0.));
#887=DIRECTION('',(0.,0.,1.));
#888=DIRECTION('',(1.,0.,0.));
#889=DIRECTION('',(0.,0.,-1.));
#890=DIRECTION('',(-1.,0.,0.));
#891=DIRECTION('',(0.,0.,1.));
#892=DIRECTION('',(0.,1.,0.));
#893=DIRECTION('',(0.,0.,-1.));
#894=DIRECTION('',(1.,0.,0.));
#895=DIRECTION('',(1.,0.,0.));
#896=DIRECTION('',(0.,0.,-1.));
#897=DIRECTION('',(0.,0.,-1.));
#898=DIRECTION('',(0.,-1.,0.));
#899=DIRECTION('',(1.,0.,0.));
#900=DIRECTION('',(0.,0.,-1.));
#901=DIRECTION('',(0.,-1.,0.));
#902=DIRECTION('',(0.,0.,-1.));
#903=DIRECTION('',(0.,1.,0.));
#904=DIRECTION('',(0.,0.,1.));
#905=DIRECTION('',(1.,0.,0.));
#906=DIRECTION('',(0.,0.,-1.));
#907=DIRECTION('',(1.,0.,0.));
#908=DIRECTION('',(0.,-1.,0.));
#909=DIRECTION('',(0.,0.,-1.));
#910=DIRECTION('',(0.,0.,-1.));
#911=DIRECTION('',(-1.,0.,0.));
#912=DIRECTION('',(0.,-1.,0.));
#913=DIRECTION('',(0.,0.,-1.));
#914=DIRECTION('',(-1.,0.,0.));
#915=DIRECTION('',(0.,0.,-1.));
#916=DIRECTION('',(1.,0.,0.));
#917=DIRECTION('',(0.,0.,-1.));
#918=DIRECTION('',(0.,-1.,0.));
#919=DIRECTION('',(0.,0.,-1.));
#920=DIRECTION('',(1.,0.,0.));
#921=DIRECTION('',(-1.,0.,0.));
#922=DIRECTION('',(0.,0.,1.));
#923=DIRECTION('',(0.,0.,-1.));
#924=DIRECTION('',(0.,1.,0.));
#925=DIRECTION('',(-1.,0.,0.));
#926=DIRECTION('',(0.,0.,1.));
#927=DIRECTION('',(0.,1.,0.));
#928=DIRECTION('',(0.,0.,-1.));
#929=DIRECTION('',(0.,-1.,0.));
#930=DIRECTION('',(0.,0.,-1.));
#931=DIRECTION('',(-1.,0.,0.));
#932=DIRECTION('',(0.,0.,-1.));
#933=DIRECTION('',(1.,0.,0.));
#934=DIRECTION('',(0.,0.,1.));
#935=DIRECTION('',(1.,0.,0.));
#936=DIRECTION('',(0.,0.,-1.));
#937=DIRECTION('',(-1.,0.,0.));
#938=DIRECTION('',(0.,0.,-1.));
#939=DIRECTION('',(1.,0.,0.));
#940=DIRECTION('',(0.,0.,1.));
#941=DIRECTION('',(1.,0.,0.));
#942=DIRECTION('',(0.,0.,1.));
#943=DIRECTION('',(1.,0.,0.));
#944=DIRECTION('',(1.,0.,0.));
#945=DIRECTION('',(0.,0.,-1.));
#946=DIRECTION('',(1.,0.,0.));
#947=DIRECTION('',(0.,0.,-1.));
#948=DIRECTION('',(0.,-1.,0.));
#949=DIRECTION('',(0.,0.,-1.));
#950=DIRECTION('',(0.,0.,-1.));
#951=DIRECTION('',(-1.,0.,0.));
#952=DIRECTION('',(0.,0.,1.));
#953=DIRECTION('',(1.,0.,0.));
#954=DIRECTION('',(0.,-1.,0.));
#955=DIRECTION('',(0.,0.,-1.));
#956=DIRECTION('',(0.,1.,0.));
#957=DIRECTION('',(0.,0.,1.));
#958=DIRECTION('',(-1.,0.,0.));
#959=DIRECTION('',(0.,0.,1.));
#960=DIRECTION('',(-1.,0.,0.));
#961=DIRECTION('',(0.,0.,1.));
#962=DIRECTION('',(0.,0.,-1.));
#963=DIRECTION('',(-1.,0.,0.));
#964=DIRECTION('',(0.,0.,1.));
#965=DIRECTION('',(1.,0.,0.));
#966=DIRECTION('',(1.,0.,0.));
#967=DIRECTION('',(0.,0.,-1.));
#968=DIRECTION('',(1.,0.,0.));
#969=DIRECTION('',(0.,0.,-1.));
#970=DIRECTION('',(0.,-1.,0.));
#971=DIRECTION('',(0.,0.,-1.));
#972=DIRECTION('',(0.,-1.,0.));
#973=DIRECTION('',(0.,0.,-1.));
#974=DIRECTION('',(1.,0.,0.));
#975=DIRECTION('',(0.,0.,-1.));
#976=DIRECTION('',(-1.,0.,0.));
#977=DIRECTION('',(0.,0.,1.));
#978=DIRECTION('',(0.,1.,0.));
#979=DIRECTION('',(0.,0.,1.));
#980=DIRECTION('',(0.,1.,0.));
#981=DIRECTION('',(0.,0.,1.));
#982=DIRECTION('',(0.,0.,1.));
#983=DIRECTION('',(1.,0.,0.));
#984=DIRECTION('',(0.,0.,1.));
#985=DIRECTION('',(1.,0.,0.));
#986=DIRECTION('',(0.,0.,1.));
#987=DIRECTION('',(1.,0.,0.));
#988=CARTESIAN_POINT('',(0.,0.,0.));
#989=CARTESIAN_POINT('',(-0.0201600721031427,0.0165461127609014,0.005));
#990=CARTESIAN_POINT('',(-0.0201600721031427,0.0205461127609014,0.004));
#991=CARTESIAN_POINT('',(-0.0201600721031427,0.0135461127609014,0.004));
#992=CARTESIAN_POINT('',(-0.0201600721031427,0.0195461127609015,0.004));
#993=CARTESIAN_POINT('',(-0.0201600721031427,0.0195461127609015,0.));
#994=CARTESIAN_POINT('',(-0.0201600721031427,0.0195461127609015,0.));
#995=CARTESIAN_POINT('',(-0.0201600721031427,0.0165461127609014,0.));
#996=CARTESIAN_POINT('',(-0.0201600721031427,0.0175461127609014,0.));
#997=CARTESIAN_POINT('',(-0.0201600721031427,0.0175461127609014,0.001));
#998=CARTESIAN_POINT('',(-0.0201600721031427,0.0175461127609014,0.001));
#999=CARTESIAN_POINT('',(-0.0201600721031427,0.0165461127609014,0.001));
#1000=CARTESIAN_POINT('',(-0.0201600721031427,0.0155461127609015,0.001));
#1001=CARTESIAN_POINT('',(-0.0201600721031427,0.0155461127609015,0.001));
#1002=CARTESIAN_POINT('',(-0.0201600721031427,0.0155461127609015,0.));
#1003=CARTESIAN_POINT('',(-0.0201600721031427,0.0165461127609014,0.));
#1004=CARTESIAN_POINT('',(-0.0201600721031427,0.0135461127609014,0.));
#1005=CARTESIAN_POINT('',(-0.0201600721031427,0.0135461127609014,0.005));
#1006=CARTESIAN_POINT('',(-0.0161600721031427,0.0125461127609014,0.005));
#1007=CARTESIAN_POINT('',(-0.0201600721031427,0.0125461127609014,0.004));
#1008=CARTESIAN_POINT('',(-0.0131600721031427,0.0125461127609014,0.004));
#1009=CARTESIAN_POINT('',(-0.0191600721031428,0.0125461127609014,0.004));
#1010=CARTESIAN_POINT('',(-0.0191600721031428,0.0125461127609014,0.005));
#1011=CARTESIAN_POINT('',(-0.0191600721031428,0.0125461127609014,0.));
#1012=CARTESIAN_POINT('',(-0.0161600721031427,0.0125461127609014,0.));
#1013=CARTESIAN_POINT('',(-0.0171600721031427,0.0125461127609014,0.));
#1014=CARTESIAN_POINT('',(-0.0171600721031427,0.0125461127609014,0.001));
#1015=CARTESIAN_POINT('',(-0.0171600721031427,0.0125461127609014,0.001));
#1016=CARTESIAN_POINT('',(-0.0161600721031427,0.0125461127609014,0.001));
#1017=CARTESIAN_POINT('',(-0.0151600721031427,0.0125461127609014,0.001));
#1018=CARTESIAN_POINT('',(-0.0151600721031427,0.0125461127609014,0.001));
#1019=CARTESIAN_POINT('',(-0.0151600721031427,0.0125461127609014,0.));
#1020=CARTESIAN_POINT('',(-0.0161600721031427,0.0125461127609014,0.));
#1021=CARTESIAN_POINT('',(-0.0131600721031427,0.0125461127609014,0.));
#1022=CARTESIAN_POINT('',(-0.0131600721031427,0.0125461127609014,0.005));
#1023=CARTESIAN_POINT('',(-0.0161600721031427,0.0165461127609014,0.));
#1024=CARTESIAN_POINT('',(-0.0191600721031428,0.0195461127609015,0.));
#1025=CARTESIAN_POINT('',(-0.0191600721031428,0.0205461127609014,0.));
#1026=CARTESIAN_POINT('',(-0.0161600721031427,0.0205461127609014,0.));
#1027=CARTESIAN_POINT('',(-0.0171600721031427,0.0205461127609014,0.));
#1028=CARTESIAN_POINT('',(-0.0171600721031427,0.0215461127609015,0.));
#1029=CARTESIAN_POINT('',(-0.0171600721031427,0.0225461127609014,0.));
#1030=CARTESIAN_POINT('',(-0.0161600721031427,0.0225461127609014,0.));
#1031=CARTESIAN_POINT('',(-0.0151600721031427,0.0225461127609014,0.));
#1032=CARTESIAN_POINT('',(-0.0151600721031427,0.0215461127609015,0.));
#1033=CARTESIAN_POINT('',(-0.0151600721031427,0.0205461127609014,0.));
#1034=CARTESIAN_POINT('',(-0.0161600721031427,0.0205461127609014,0.));
#1035=CARTESIAN_POINT('',(-0.0131600721031427,0.0205461127609014,0.));
#1036=CARTESIAN_POINT('',(-0.0131600721031427,0.0195461127609015,0.));
#1037=CARTESIAN_POINT('',(-0.0121600721031427,0.0195461127609015,0.));
#1038=CARTESIAN_POINT('',(-0.0121600721031427,0.0165461127609014,0.));
#1039=CARTESIAN_POINT('',(-0.0121600721031427,0.0175461127609014,0.));
#1040=CARTESIAN_POINT('',(-0.0111600721031427,0.0175461127609014,0.));
#1041=CARTESIAN_POINT('',(-0.0101600721031427,0.0175461127609014,0.));
#1042=CARTESIAN_POINT('',(-0.0101600721031427,0.0165461127609014,0.));
#1043=CARTESIAN_POINT('',(-0.0101600721031427,0.0155461127609015,0.));
#1044=CARTESIAN_POINT('',(-0.0111600721031427,0.0155461127609015,0.));
#1045=CARTESIAN_POINT('',(-0.0121600721031427,0.0155461127609015,0.));
#1046=CARTESIAN_POINT('',(-0.0121600721031427,0.0165461127609014,0.));
#1047=CARTESIAN_POINT('',(-0.0121600721031427,0.0135461127609014,0.));
#1048=CARTESIAN_POINT('',(-0.0131600721031427,0.0135461127609014,0.));
#1049=CARTESIAN_POINT('',(-0.0151600721031427,0.0115461127609014,0.));
#1050=CARTESIAN_POINT('',(-0.0151600721031427,0.0105461127609014,0.));
#1051=CARTESIAN_POINT('',(-0.0161600721031427,0.0105461127609014,0.));
#1052=CARTESIAN_POINT('',(-0.0171600721031427,0.0105461127609014,0.));
#1053=CARTESIAN_POINT('',(-0.0171600721031427,0.0115461127609014,0.));
#1054=CARTESIAN_POINT('',(-0.0191600721031428,0.0135461127609014,0.));
#1055=CARTESIAN_POINT('',(-0.0204100721031427,0.0155461127609015,0.));
#1056=CARTESIAN_POINT('',(-0.0206600721031427,0.0155461127609015,0.));
#1057=CARTESIAN_POINT('',(-0.0206600721031427,0.0165461127609014,0.));
#1058=CARTESIAN_POINT('',(-0.0206600721031427,0.0175461127609014,0.));
#1059=CARTESIAN_POINT('',(-0.0204100721031427,0.0175461127609014,0.));
#1060=CARTESIAN_POINT('',(-0.0161600721031427,0.0135461127609014,0.));
#1061=CARTESIAN_POINT('',(-0.0191600721031428,0.0135461127609014,0.));
#1062=CARTESIAN_POINT('',(-0.0131600721031427,0.0135461127609014,0.));
#1063=CARTESIAN_POINT('',(-0.0131600721031427,0.0165461127609014,0.));
#1064=CARTESIAN_POINT('',(-0.0131600721031427,0.0195461127609015,0.));
#1065=CARTESIAN_POINT('',(-0.0161600721031427,0.0195461127609015,0.));
#1066=CARTESIAN_POINT('',(-0.0191600721031428,0.0195461127609015,0.));
#1067=CARTESIAN_POINT('',(-0.0191600721031428,0.0165461127609014,0.));
#1068=CARTESIAN_POINT('',(-0.0161600721031427,0.0205461127609014,0.005));
#1069=CARTESIAN_POINT('',(-0.0191600721031428,0.0205461127609014,0.005));
#1070=CARTESIAN_POINT('',(-0.0191600721031428,0.0205461127609014,0.004));
#1071=CARTESIAN_POINT('',(-0.0161600721031427,0.0205461127609014,0.004));
#1072=CARTESIAN_POINT('',(-0.0131600721031427,0.0205461127609014,0.004));
#1073=CARTESIAN_POINT('',(-0.0131600721031427,0.0205461127609014,0.005));
#1074=CARTESIAN_POINT('',(-0.0151600721031427,0.0205461127609014,0.001));
#1075=CARTESIAN_POINT('',(-0.0151600721031427,0.0205461127609014,0.001));
#1076=CARTESIAN_POINT('',(-0.0161600721031427,0.0205461127609014,0.001));
#1077=CARTESIAN_POINT('',(-0.0171600721031427,0.0205461127609014,0.001));
#1078=CARTESIAN_POINT('',(-0.0171600721031427,0.0205461127609014,0.001));
#1079=CARTESIAN_POINT('',(-0.0121600721031427,0.0165461127609014,0.005));
#1080=CARTESIAN_POINT('',(-0.0121600721031427,0.0195461127609015,0.005));
#1081=CARTESIAN_POINT('',(-0.0121600721031427,0.0195461127609015,0.004));
#1082=CARTESIAN_POINT('',(-0.0121600721031427,0.0165461127609014,0.004));
#1083=CARTESIAN_POINT('',(-0.0121600721031427,0.0135461127609014,0.004));
#1084=CARTESIAN_POINT('',(-0.0121600721031427,0.0135461127609014,0.));
#1085=CARTESIAN_POINT('',(-0.0121600721031427,0.0155461127609015,0.001));
#1086=CARTESIAN_POINT('',(-0.0121600721031427,0.0155461127609015,0.001));
#1087=CARTESIAN_POINT('',(-0.0121600721031427,0.0165461127609014,0.001));
#1088=CARTESIAN_POINT('',(-0.0121600721031427,0.0175461127609014,0.001));
#1089=CARTESIAN_POINT('',(-0.0121600721031427,0.0175461127609014,0.001));
#1090=CARTESIAN_POINT('',(-0.0161600721031427,0.0165461127609014,0.005));
#1091=CARTESIAN_POINT('',(-0.0191600721031428,0.0125461127609014,0.005));
#1092=CARTESIAN_POINT('',(-0.0191600721031428,0.0195461127609015,0.005));
#1093=CARTESIAN_POINT('',(-0.0191600721031428,0.0135461127609014,0.005));
#1094=CARTESIAN_POINT('',(-0.0121600721031427,0.0135461127609014,0.005));
#1095=CARTESIAN_POINT('',(-0.0131600721031427,0.0135461127609014,0.005));
#1096=CARTESIAN_POINT('',(-0.0131600721031427,0.0165461127609014,0.005));
#1097=CARTESIAN_POINT('',(-0.0131600721031427,0.0195461127609015,0.005));
#1098=CARTESIAN_POINT('',(-0.0161600721031427,0.0195461127609015,0.005));
#1099=CARTESIAN_POINT('',(-0.0161600721031427,0.0135461127609014,0.004));
#1100=CARTESIAN_POINT('',(-0.0191600721031428,0.0135461127609014,0.004));
#1101=CARTESIAN_POINT('',(-0.0191600721031428,0.0135461127609014,0.004));
#1102=CARTESIAN_POINT('',(-0.0161600721031427,0.0135461127609014,0.004));
#1103=CARTESIAN_POINT('',(-0.0131600721031427,0.0135461127609014,0.004));
#1104=CARTESIAN_POINT('',(-0.0131600721031427,0.0135461127609014,0.004));
#1105=CARTESIAN_POINT('',(-0.0191600721031428,0.0165461127609014,0.004));
#1106=CARTESIAN_POINT('',(-0.0191600721031428,0.0195461127609015,0.004));
#1107=CARTESIAN_POINT('',(-0.0191600721031428,0.0195461127609015,0.004));
#1108=CARTESIAN_POINT('',(-0.0191600721031428,0.0165461127609014,0.004));
#1109=CARTESIAN_POINT('',(-0.0161600721031427,0.0195461127609015,0.004));
#1110=CARTESIAN_POINT('',(-0.0131600721031427,0.0195461127609015,0.004));
#1111=CARTESIAN_POINT('',(-0.0131600721031427,0.0195461127609015,0.004));
#1112=CARTESIAN_POINT('',(-0.0161600721031427,0.0195461127609015,0.004));
#1113=CARTESIAN_POINT('',(-0.0131600721031427,0.0165461127609014,0.004));
#1114=CARTESIAN_POINT('',(-0.0131600721031427,0.0165461127609014,0.004));
#1115=CARTESIAN_POINT('',(-0.0161600721031427,0.0165461127609014,0.004));
#1116=CARTESIAN_POINT('',(-0.0161600721031427,0.0167150013148784,0.004));
#1117=CARTESIAN_POINT('',(-0.0179100721031428,0.0167150013148784,0.004));
#1118=CARTESIAN_POINT('',(-0.0111600721031427,0.0155461127609015,0.001));
#1119=CARTESIAN_POINT('',(-0.0101600721031427,0.0155461127609015,0.001));
#1120=CARTESIAN_POINT('',(-0.0101600721031427,0.0155461127609015,0.001));
#1121=CARTESIAN_POINT('',(-0.0111600721031427,0.0155461127609015,0.001));
#1122=CARTESIAN_POINT('',(-0.0111600721031427,0.0175461127609014,0.001));
#1123=CARTESIAN_POINT('',(-0.0111600721031427,0.0175461127609014,0.001));
#1124=CARTESIAN_POINT('',(-0.0101600721031427,0.0175461127609014,0.001));
#1125=CARTESIAN_POINT('',(-0.0101600721031427,0.0175461127609014,0.001));
#1126=CARTESIAN_POINT('',(-0.0101600721031427,0.0165461127609014,0.001));
#1127=CARTESIAN_POINT('',(-0.0101600721031427,0.0165461127609014,0.001));
#1128=CARTESIAN_POINT('',(-0.0154100721031427,0.0165461127609014,0.001));
#1129=CARTESIAN_POINT('',(-0.0171600721031427,0.0115461127609014,0.001));
#1130=CARTESIAN_POINT('',(-0.0171600721031427,0.0105461127609014,0.001));
#1131=CARTESIAN_POINT('',(-0.0171600721031427,0.0105461127609014,0.001));
#1132=CARTESIAN_POINT('',(-0.0171600721031427,0.0115461127609014,0.001));
#1133=CARTESIAN_POINT('',(-0.0151600721031427,0.0115461127609014,0.001));
#1134=CARTESIAN_POINT('',(-0.0151600721031427,0.0115461127609014,0.001));
#1135=CARTESIAN_POINT('',(-0.0151600721031427,0.0105461127609014,0.001));
#1136=CARTESIAN_POINT('',(-0.0151600721031427,0.0105461127609014,0.001));
#1137=CARTESIAN_POINT('',(-0.0161600721031427,0.0105461127609014,0.001));
#1138=CARTESIAN_POINT('',(-0.0161600721031427,0.0105461127609014,0.001));
#1139=CARTESIAN_POINT('',(-0.0154100721031427,0.0165461127609014,0.001));
#1140=CARTESIAN_POINT('',(-0.0204100721031427,0.0175461127609014,0.001));
#1141=CARTESIAN_POINT('',(-0.0206600721031427,0.0175461127609014,0.001));
#1142=CARTESIAN_POINT('',(-0.0206600721031427,0.0175461127609014,0.001));
#1143=CARTESIAN_POINT('',(-0.0204100721031427,0.0175461127609014,0.001));
#1144=CARTESIAN_POINT('',(-0.0204100721031427,0.0155461127609015,0.001));
#1145=CARTESIAN_POINT('',(-0.0204100721031427,0.0155461127609015,0.001));
#1146=CARTESIAN_POINT('',(-0.0206600721031427,0.0155461127609015,0.001));
#1147=CARTESIAN_POINT('',(-0.0206600721031427,0.0155461127609015,0.001));
#1148=CARTESIAN_POINT('',(-0.0206600721031427,0.0165461127609014,0.001));
#1149=CARTESIAN_POINT('',(-0.0206600721031427,0.0165461127609014,0.001));
#1150=CARTESIAN_POINT('',(-0.0154100721031427,0.0165461127609014,0.001));
#1151=CARTESIAN_POINT('',(-0.0151600721031427,0.0215461127609015,0.001));
#1152=CARTESIAN_POINT('',(-0.0151600721031427,0.0225461127609014,0.001));
#1153=CARTESIAN_POINT('',(-0.0151600721031427,0.0225461127609014,0.001));
#1154=CARTESIAN_POINT('',(-0.0151600721031427,0.0215461127609015,0.001));
#1155=CARTESIAN_POINT('',(-0.0171600721031427,0.0215461127609015,0.001));
#1156=CARTESIAN_POINT('',(-0.0171600721031427,0.0215461127609015,0.001));
#1157=CARTESIAN_POINT('',(-0.0171600721031427,0.0225461127609014,0.001));
#1158=CARTESIAN_POINT('',(-0.0171600721031427,0.0225461127609014,0.001));
#1159=CARTESIAN_POINT('',(-0.0161600721031427,0.0225461127609014,0.001));
#1160=CARTESIAN_POINT('',(-0.0161600721031427,0.0225461127609014,0.001));
#1161=CARTESIAN_POINT('',(-0.0154100721031427,0.0165461127609014,0.001));
#1162=CARTESIAN_POINT('',(-0.0161600721031427,0.0167150013148784,0.));
#1163=CARTESIAN_POINT('',(-0.0161600721031427,0.0167150013148784,0.));
#1164=CARTESIAN_POINT('',(-0.0179100721031428,0.0167150013148784,0.));
#1165=CARTESIAN_POINT('',(-0.0161600721031427,0.0165461127609014,0.));
#1166=CARTESIAN_POINT('',(-0.0131600721031427,0.0135461127609014,0.005));
#1167=CARTESIAN_POINT('',(-0.0131600721031427,0.0135461127609014,0.004));
#1168=CARTESIAN_POINT('',(-0.0131600721031427,0.0135461127609014,0.004));
#1169=CARTESIAN_POINT('',(-0.0131600721031427,0.0135461127609014,0.004));
#1170=CARTESIAN_POINT('',(-0.0131600721031427,0.0135461127609014,0.004));
#1171=CARTESIAN_POINT('',(-0.0131600721031427,0.0195461127609015,0.005));
#1172=CARTESIAN_POINT('',(-0.0131600721031427,0.0195461127609015,0.004));
#1173=CARTESIAN_POINT('',(-0.0131600721031427,0.0165461127609014,0.004));
#1174=CARTESIAN_POINT('',(-0.0131600721031427,0.0195461127609015,0.004));
#1175=CARTESIAN_POINT('',(-0.0161600721031427,0.0135461127609014,0.004));
#1176=CARTESIAN_POINT('',(-0.0191600721031428,0.0135461127609014,0.004));
#1177=CARTESIAN_POINT('',(-0.0191600721031428,0.0135461127609014,0.005));
#1178=CARTESIAN_POINT('',(-0.0191600721031428,0.0135461127609014,0.004));
#1179=CARTESIAN_POINT('',(-0.0131600721031427,0.0195461127609015,0.004));
#1180=CARTESIAN_POINT('',(-0.0131600721031427,0.0195461127609015,0.004));
#1181=CARTESIAN_POINT('',(-0.0191600721031428,0.0135461127609014,0.004));
#1182=CARTESIAN_POINT('',(-0.0191600721031428,0.0135461127609014,0.004));
#1183=CARTESIAN_POINT('',(-0.0161600721031427,0.0195461127609015,0.004));
#1184=CARTESIAN_POINT('',(-0.0191600721031428,0.0195461127609015,0.004));
#1185=CARTESIAN_POINT('',(-0.0191600721031428,0.0165461127609014,0.004));
#1186=CARTESIAN_POINT('',(-0.0191600721031428,0.0195461127609015,0.004));
#1187=CARTESIAN_POINT('',(-0.0191600721031428,0.0195461127609015,0.004));
#1188=CARTESIAN_POINT('',(-0.0191600721031428,0.0195461127609015,0.004));
#1189=CARTESIAN_POINT('',(-0.0191600721031428,0.0195461127609015,0.005));
#1190=MECHANICAL_DESIGN_GEOMETRIC_PRESENTATION_REPRESENTATION('',(#717),
#1191);
#1191=(
GEOMETRIC_REPRESENTATION_CONTEXT(3)
GLOBAL_UNCERTAINTY_ASSIGNED_CONTEXT((#1192))
GLOBAL_UNIT_ASSIGNED_CONTEXT((#1195,#1194,#1193))
REPRESENTATION_CONTEXT('Part 1','TOP_LEVEL_ASSEMBLY_PART')
);
#1192=UNCERTAINTY_MEASURE_WITH_UNIT(LENGTH_MEASURE(1.E-8),#1195,
'DISTANCE_ACCURACY_VALUE','Maximum Tolerance applied to model');
#1193=(
NAMED_UNIT(*)
SI_UNIT($,.STERADIAN.)
SOLID_ANGLE_UNIT()
);
#1194=(
NAMED_UNIT(*)
PLANE_ANGLE_UNIT()
SI_UNIT($,.RADIAN.)
);
#1195=(
LENGTH_UNIT()
NAMED_UNIT(*)
SI_UNIT($,.METRE.)
);
#1196=PRODUCT_DEFINITION_SHAPE('','',#1197);
#1197=PRODUCT_DEFINITION('','',#1199,#1198);
#1198=PRODUCT_DEFINITION_CONTEXT('',#1205,'design');
#1199=PRODUCT_DEFINITION_FORMATION_WITH_SPECIFIED_SOURCE('','',#1201,
 .NOT_KNOWN.);
#1200=PRODUCT_RELATED_PRODUCT_CATEGORY('','',(#1201));
#1201=PRODUCT('Part 1','Part 1','Part 1',(#1203));
#1202=PRODUCT_CATEGORY('','');
#1203=PRODUCT_CONTEXT('',#1205,'mechanical');
#1204=APPLICATION_PROTOCOL_DEFINITION('international standard',
'ap242_managed_model_based_3d_engineering',2020,#1205);
#1205=APPLICATION_CONTEXT('managed model based 3d engineering');
ENDSEC;
END-ISO-10303-21;
