ISO-10303-21;
HEADER;
/* Generated by software containing ST-Developer
 * from STEP Tools, Inc. (www.steptools.com) 
 */
/* OPTION: using custom renumber hook */

FILE_DESCRIPTION(
/* description */ ('STEP AP242 Edition 2',
'CAx-IF Rec.Pracs.---Representation and Presentation of Product Manufa
cturing Information (PMI)---4.0---2014-10-13',
'CAx-IF Rec.Pracs.---3D Tessellated Geometry---0.4---2014-09-14','2;1',
'CAx-IF Rec.Pracs.---User Defined Attributes---1.5---2016-08-15'),
/* implementation_level */ '2;1');

FILE_NAME(
/* name */ 'front plate - Part 5',
/* time_stamp */ '2026-09-16T07:44:52Z',
/* author */ (''),
/* organization */ (''),
/* preprocessor_version */ 'ST-DEVELOPER v20',
/* originating_system */ 'ONSHAPE BY PTC INC, 1.220',
/* authorisation */ '  ');

FILE_SCHEMA (('AP242_MANAGED_MODEL_BASED_3D_ENGINEERING_MIM_LF { 1 0 10303 442 3 1 4 }'));
ENDSEC;

DATA;
#10=SHAPE_REPRESENTATION_RELATIONSHIP('','',#1269,#11);
#11=ADVANCED_BREP_SHAPE_REPRESENTATION('',(#1267),#2089);
#12=SPHERICAL_SURFACE('',#1367,0.002);
#13=SPHERICAL_SURFACE('',#1378,0.002);
#14=SPHERICAL_SURFACE('',#1380,0.002);
#15=SPHERICAL_SURFACE('',#1386,0.002);
#16=CYLINDRICAL_SURFACE('',#1318,0.0015);
#17=CYLINDRICAL_SURFACE('',#1321,0.0025);
#18=CYLINDRICAL_SURFACE('',#1325,0.0015);
#19=CYLINDRICAL_SURFACE('',#1328,0.0025);
#20=CYLINDRICAL_SURFACE('',#1332,0.0015);
#21=CYLINDRICAL_SURFACE('',#1335,0.0025);
#22=CYLINDRICAL_SURFACE('',#1339,0.0015);
#23=CYLINDRICAL_SURFACE('',#1342,0.0025);
#24=CYLINDRICAL_SURFACE('',#1346,0.00125);
#25=CYLINDRICAL_SURFACE('',#1349,0.0025);
#26=CYLINDRICAL_SURFACE('',#1353,0.00125);
#27=CYLINDRICAL_SURFACE('',#1356,0.0025);
#28=CYLINDRICAL_SURFACE('',#1364,0.0025);
#29=CYLINDRICAL_SURFACE('',#1365,0.002);
#30=CYLINDRICAL_SURFACE('',#1370,0.002);
#31=CYLINDRICAL_SURFACE('',#1372,0.002);
#32=CYLINDRICAL_SURFACE('',#1374,0.002);
#33=CYLINDRICAL_SURFACE('',#1376,0.002);
#34=CYLINDRICAL_SURFACE('',#1382,0.002);
#35=CYLINDRICAL_SURFACE('',#1384,0.002);
#36=CYLINDRICAL_SURFACE('',#1388,0.002);
#37=CIRCLE('',#1274,0.0025);
#38=CIRCLE('',#1275,0.0025);
#39=CIRCLE('',#1276,0.0025);
#40=CIRCLE('',#1277,0.0025);
#41=CIRCLE('',#1278,0.0025);
#42=CIRCLE('',#1279,0.0025);
#43=CIRCLE('',#1282,0.0025);
#44=CIRCLE('',#1310,0.0025);
#45=CIRCLE('',#1314,0.002);
#46=CIRCLE('',#1315,0.002);
#47=CIRCLE('',#1316,0.002);
#48=CIRCLE('',#1317,0.002);
#49=CIRCLE('',#1319,0.0015);
#50=CIRCLE('',#1320,0.0015);
#51=CIRCLE('',#1322,0.0025);
#52=CIRCLE('',#1326,0.0015);
#53=CIRCLE('',#1327,0.0015);
#54=CIRCLE('',#1329,0.0025);
#55=CIRCLE('',#1333,0.0015);
#56=CIRCLE('',#1334,0.0015);
#57=CIRCLE('',#1336,0.0025);
#58=CIRCLE('',#1340,0.0015);
#59=CIRCLE('',#1341,0.0015);
#60=CIRCLE('',#1343,0.0025);
#61=CIRCLE('',#1347,0.00125);
#62=CIRCLE('',#1348,0.00125);
#63=CIRCLE('',#1350,0.0025);
#64=CIRCLE('',#1354,0.00125);
#65=CIRCLE('',#1355,0.00125);
#66=CIRCLE('',#1357,0.0025);
#67=CIRCLE('',#1366,0.002);
#68=CIRCLE('',#1368,0.002);
#69=CIRCLE('',#1369,0.002);
#70=CIRCLE('',#1371,0.002);
#71=CIRCLE('',#1373,0.002);
#72=CIRCLE('',#1375,0.002);
#73=CIRCLE('',#1377,0.002);
#74=CIRCLE('',#1379,0.002);
#75=CIRCLE('',#1381,0.002);
#76=CIRCLE('',#1383,0.002);
#77=CIRCLE('',#1385,0.002);
#78=CIRCLE('',#1387,0.002);
#79=ORIENTED_EDGE('',*,*,#395,.T.);
#80=ORIENTED_EDGE('',*,*,#396,.T.);
#81=ORIENTED_EDGE('',*,*,#397,.F.);
#82=ORIENTED_EDGE('',*,*,#398,.T.);
#83=ORIENTED_EDGE('',*,*,#399,.T.);
#84=ORIENTED_EDGE('',*,*,#400,.T.);
#85=ORIENTED_EDGE('',*,*,#401,.F.);
#86=ORIENTED_EDGE('',*,*,#402,.F.);
#87=ORIENTED_EDGE('',*,*,#403,.F.);
#88=ORIENTED_EDGE('',*,*,#404,.F.);
#89=ORIENTED_EDGE('',*,*,#405,.T.);
#90=ORIENTED_EDGE('',*,*,#406,.T.);
#91=ORIENTED_EDGE('',*,*,#407,.T.);
#92=ORIENTED_EDGE('',*,*,#408,.T.);
#93=ORIENTED_EDGE('',*,*,#409,.F.);
#94=ORIENTED_EDGE('',*,*,#410,.F.);
#95=ORIENTED_EDGE('',*,*,#411,.F.);
#96=ORIENTED_EDGE('',*,*,#412,.F.);
#97=ORIENTED_EDGE('',*,*,#413,.F.);
#98=ORIENTED_EDGE('',*,*,#414,.F.);
#99=ORIENTED_EDGE('',*,*,#415,.F.);
#100=ORIENTED_EDGE('',*,*,#416,.F.);
#101=ORIENTED_EDGE('',*,*,#417,.T.);
#102=ORIENTED_EDGE('',*,*,#418,.T.);
#103=ORIENTED_EDGE('',*,*,#419,.F.);
#104=ORIENTED_EDGE('',*,*,#420,.F.);
#105=ORIENTED_EDGE('',*,*,#421,.T.);
#106=ORIENTED_EDGE('',*,*,#422,.T.);
#107=ORIENTED_EDGE('',*,*,#423,.F.);
#108=ORIENTED_EDGE('',*,*,#424,.F.);
#109=ORIENTED_EDGE('',*,*,#425,.T.);
#110=ORIENTED_EDGE('',*,*,#426,.T.);
#111=ORIENTED_EDGE('',*,*,#427,.F.);
#112=ORIENTED_EDGE('',*,*,#428,.F.);
#113=ORIENTED_EDGE('',*,*,#429,.T.);
#114=ORIENTED_EDGE('',*,*,#430,.T.);
#115=ORIENTED_EDGE('',*,*,#431,.F.);
#116=ORIENTED_EDGE('',*,*,#432,.F.);
#117=ORIENTED_EDGE('',*,*,#433,.T.);
#118=ORIENTED_EDGE('',*,*,#434,.T.);
#119=ORIENTED_EDGE('',*,*,#435,.F.);
#120=ORIENTED_EDGE('',*,*,#436,.F.);
#121=ORIENTED_EDGE('',*,*,#437,.T.);
#122=ORIENTED_EDGE('',*,*,#438,.T.);
#123=ORIENTED_EDGE('',*,*,#439,.F.);
#124=ORIENTED_EDGE('',*,*,#440,.F.);
#125=ORIENTED_EDGE('',*,*,#441,.F.);
#126=ORIENTED_EDGE('',*,*,#442,.T.);
#127=ORIENTED_EDGE('',*,*,#403,.T.);
#128=ORIENTED_EDGE('',*,*,#443,.F.);
#129=ORIENTED_EDGE('',*,*,#444,.T.);
#130=ORIENTED_EDGE('',*,*,#445,.T.);
#131=ORIENTED_EDGE('',*,*,#446,.T.);
#132=ORIENTED_EDGE('',*,*,#447,.T.);
#133=ORIENTED_EDGE('',*,*,#448,.F.);
#134=ORIENTED_EDGE('',*,*,#449,.T.);
#135=ORIENTED_EDGE('',*,*,#450,.T.);
#136=ORIENTED_EDGE('',*,*,#451,.T.);
#137=ORIENTED_EDGE('',*,*,#452,.T.);
#138=ORIENTED_EDGE('',*,*,#453,.T.);
#139=ORIENTED_EDGE('',*,*,#454,.F.);
#140=ORIENTED_EDGE('',*,*,#417,.F.);
#141=ORIENTED_EDGE('',*,*,#455,.T.);
#142=ORIENTED_EDGE('',*,*,#456,.F.);
#143=ORIENTED_EDGE('',*,*,#455,.F.);
#144=ORIENTED_EDGE('',*,*,#420,.T.);
#145=ORIENTED_EDGE('',*,*,#457,.T.);
#146=ORIENTED_EDGE('',*,*,#458,.F.);
#147=ORIENTED_EDGE('',*,*,#457,.F.);
#148=ORIENTED_EDGE('',*,*,#419,.T.);
#149=ORIENTED_EDGE('',*,*,#459,.T.);
#150=ORIENTED_EDGE('',*,*,#460,.T.);
#151=ORIENTED_EDGE('',*,*,#461,.F.);
#152=ORIENTED_EDGE('',*,*,#421,.F.);
#153=ORIENTED_EDGE('',*,*,#462,.T.);
#154=ORIENTED_EDGE('',*,*,#463,.F.);
#155=ORIENTED_EDGE('',*,*,#462,.F.);
#156=ORIENTED_EDGE('',*,*,#424,.T.);
#157=ORIENTED_EDGE('',*,*,#464,.T.);
#158=ORIENTED_EDGE('',*,*,#465,.F.);
#159=ORIENTED_EDGE('',*,*,#464,.F.);
#160=ORIENTED_EDGE('',*,*,#423,.T.);
#161=ORIENTED_EDGE('',*,*,#466,.T.);
#162=ORIENTED_EDGE('',*,*,#467,.T.);
#163=ORIENTED_EDGE('',*,*,#468,.F.);
#164=ORIENTED_EDGE('',*,*,#425,.F.);
#165=ORIENTED_EDGE('',*,*,#469,.T.);
#166=ORIENTED_EDGE('',*,*,#470,.F.);
#167=ORIENTED_EDGE('',*,*,#469,.F.);
#168=ORIENTED_EDGE('',*,*,#428,.T.);
#169=ORIENTED_EDGE('',*,*,#471,.T.);
#170=ORIENTED_EDGE('',*,*,#472,.F.);
#171=ORIENTED_EDGE('',*,*,#471,.F.);
#172=ORIENTED_EDGE('',*,*,#427,.T.);
#173=ORIENTED_EDGE('',*,*,#473,.T.);
#174=ORIENTED_EDGE('',*,*,#474,.T.);
#175=ORIENTED_EDGE('',*,*,#475,.F.);
#176=ORIENTED_EDGE('',*,*,#429,.F.);
#177=ORIENTED_EDGE('',*,*,#476,.T.);
#178=ORIENTED_EDGE('',*,*,#477,.F.);
#179=ORIENTED_EDGE('',*,*,#476,.F.);
#180=ORIENTED_EDGE('',*,*,#432,.T.);
#181=ORIENTED_EDGE('',*,*,#478,.T.);
#182=ORIENTED_EDGE('',*,*,#479,.F.);
#183=ORIENTED_EDGE('',*,*,#478,.F.);
#184=ORIENTED_EDGE('',*,*,#431,.T.);
#185=ORIENTED_EDGE('',*,*,#480,.T.);
#186=ORIENTED_EDGE('',*,*,#481,.T.);
#187=ORIENTED_EDGE('',*,*,#482,.F.);
#188=ORIENTED_EDGE('',*,*,#433,.F.);
#189=ORIENTED_EDGE('',*,*,#483,.T.);
#190=ORIENTED_EDGE('',*,*,#484,.F.);
#191=ORIENTED_EDGE('',*,*,#483,.F.);
#192=ORIENTED_EDGE('',*,*,#436,.T.);
#193=ORIENTED_EDGE('',*,*,#485,.T.);
#194=ORIENTED_EDGE('',*,*,#486,.F.);
#195=ORIENTED_EDGE('',*,*,#485,.F.);
#196=ORIENTED_EDGE('',*,*,#435,.T.);
#197=ORIENTED_EDGE('',*,*,#487,.T.);
#198=ORIENTED_EDGE('',*,*,#488,.T.);
#199=ORIENTED_EDGE('',*,*,#489,.F.);
#200=ORIENTED_EDGE('',*,*,#437,.F.);
#201=ORIENTED_EDGE('',*,*,#490,.T.);
#202=ORIENTED_EDGE('',*,*,#491,.F.);
#203=ORIENTED_EDGE('',*,*,#490,.F.);
#204=ORIENTED_EDGE('',*,*,#440,.T.);
#205=ORIENTED_EDGE('',*,*,#492,.T.);
#206=ORIENTED_EDGE('',*,*,#493,.F.);
#207=ORIENTED_EDGE('',*,*,#492,.F.);
#208=ORIENTED_EDGE('',*,*,#439,.T.);
#209=ORIENTED_EDGE('',*,*,#494,.T.);
#210=ORIENTED_EDGE('',*,*,#495,.T.);
#211=ORIENTED_EDGE('',*,*,#459,.F.);
#212=ORIENTED_EDGE('',*,*,#418,.F.);
#213=ORIENTED_EDGE('',*,*,#454,.T.);
#214=ORIENTED_EDGE('',*,*,#496,.T.);
#215=ORIENTED_EDGE('',*,*,#466,.F.);
#216=ORIENTED_EDGE('',*,*,#422,.F.);
#217=ORIENTED_EDGE('',*,*,#461,.T.);
#218=ORIENTED_EDGE('',*,*,#497,.T.);
#219=ORIENTED_EDGE('',*,*,#473,.F.);
#220=ORIENTED_EDGE('',*,*,#426,.F.);
#221=ORIENTED_EDGE('',*,*,#468,.T.);
#222=ORIENTED_EDGE('',*,*,#498,.T.);
#223=ORIENTED_EDGE('',*,*,#480,.F.);
#224=ORIENTED_EDGE('',*,*,#430,.F.);
#225=ORIENTED_EDGE('',*,*,#475,.T.);
#226=ORIENTED_EDGE('',*,*,#499,.T.);
#227=ORIENTED_EDGE('',*,*,#487,.F.);
#228=ORIENTED_EDGE('',*,*,#434,.F.);
#229=ORIENTED_EDGE('',*,*,#482,.T.);
#230=ORIENTED_EDGE('',*,*,#500,.T.);
#231=ORIENTED_EDGE('',*,*,#494,.F.);
#232=ORIENTED_EDGE('',*,*,#438,.F.);
#233=ORIENTED_EDGE('',*,*,#489,.T.);
#234=ORIENTED_EDGE('',*,*,#501,.F.);
#235=ORIENTED_EDGE('',*,*,#502,.T.);
#236=ORIENTED_EDGE('',*,*,#503,.T.);
#237=ORIENTED_EDGE('',*,*,#504,.T.);
#238=ORIENTED_EDGE('',*,*,#505,.T.);
#239=ORIENTED_EDGE('',*,*,#506,.T.);
#240=ORIENTED_EDGE('',*,*,#507,.T.);
#241=ORIENTED_EDGE('',*,*,#508,.T.);
#242=ORIENTED_EDGE('',*,*,#488,.F.);
#243=ORIENTED_EDGE('',*,*,#491,.T.);
#244=ORIENTED_EDGE('',*,*,#493,.T.);
#245=ORIENTED_EDGE('',*,*,#500,.F.);
#246=ORIENTED_EDGE('',*,*,#481,.F.);
#247=ORIENTED_EDGE('',*,*,#484,.T.);
#248=ORIENTED_EDGE('',*,*,#486,.T.);
#249=ORIENTED_EDGE('',*,*,#499,.F.);
#250=ORIENTED_EDGE('',*,*,#474,.F.);
#251=ORIENTED_EDGE('',*,*,#477,.T.);
#252=ORIENTED_EDGE('',*,*,#479,.T.);
#253=ORIENTED_EDGE('',*,*,#498,.F.);
#254=ORIENTED_EDGE('',*,*,#467,.F.);
#255=ORIENTED_EDGE('',*,*,#470,.T.);
#256=ORIENTED_EDGE('',*,*,#472,.T.);
#257=ORIENTED_EDGE('',*,*,#497,.F.);
#258=ORIENTED_EDGE('',*,*,#460,.F.);
#259=ORIENTED_EDGE('',*,*,#463,.T.);
#260=ORIENTED_EDGE('',*,*,#465,.T.);
#261=ORIENTED_EDGE('',*,*,#496,.F.);
#262=ORIENTED_EDGE('',*,*,#453,.F.);
#263=ORIENTED_EDGE('',*,*,#456,.T.);
#264=ORIENTED_EDGE('',*,*,#458,.T.);
#265=ORIENTED_EDGE('',*,*,#495,.F.);
#266=ORIENTED_EDGE('',*,*,#509,.T.);
#267=ORIENTED_EDGE('',*,*,#441,.T.);
#268=ORIENTED_EDGE('',*,*,#510,.F.);
#269=ORIENTED_EDGE('',*,*,#511,.F.);
#270=ORIENTED_EDGE('',*,*,#512,.T.);
#271=ORIENTED_EDGE('',*,*,#443,.T.);
#272=ORIENTED_EDGE('',*,*,#406,.F.);
#273=ORIENTED_EDGE('',*,*,#513,.F.);
#274=ORIENTED_EDGE('',*,*,#510,.T.);
#275=ORIENTED_EDGE('',*,*,#442,.F.);
#276=ORIENTED_EDGE('',*,*,#512,.F.);
#277=ORIENTED_EDGE('',*,*,#514,.T.);
#278=ORIENTED_EDGE('',*,*,#404,.T.);
#279=ORIENTED_EDGE('',*,*,#397,.T.);
#280=ORIENTED_EDGE('',*,*,#515,.T.);
#281=ORIENTED_EDGE('',*,*,#501,.T.);
#282=ORIENTED_EDGE('',*,*,#516,.T.);
#283=ORIENTED_EDGE('',*,*,#449,.F.);
#284=ORIENTED_EDGE('',*,*,#517,.T.);
#285=ORIENTED_EDGE('',*,*,#446,.F.);
#286=ORIENTED_EDGE('',*,*,#518,.T.);
#287=ORIENTED_EDGE('',*,*,#511,.T.);
#288=ORIENTED_EDGE('',*,*,#513,.T.);
#289=ORIENTED_EDGE('',*,*,#405,.F.);
#290=ORIENTED_EDGE('',*,*,#514,.F.);
#291=ORIENTED_EDGE('',*,*,#519,.T.);
#292=ORIENTED_EDGE('',*,*,#520,.F.);
#293=ORIENTED_EDGE('',*,*,#521,.F.);
#294=ORIENTED_EDGE('',*,*,#416,.T.);
#295=ORIENTED_EDGE('',*,*,#519,.F.);
#296=ORIENTED_EDGE('',*,*,#521,.T.);
#297=ORIENTED_EDGE('',*,*,#520,.T.);
#298=ORIENTED_EDGE('',*,*,#522,.T.);
#299=ORIENTED_EDGE('',*,*,#523,.F.);
#300=ORIENTED_EDGE('',*,*,#524,.F.);
#301=ORIENTED_EDGE('',*,*,#415,.T.);
#302=ORIENTED_EDGE('',*,*,#522,.F.);
#303=ORIENTED_EDGE('',*,*,#524,.T.);
#304=ORIENTED_EDGE('',*,*,#523,.T.);
#305=ORIENTED_EDGE('',*,*,#525,.T.);
#306=ORIENTED_EDGE('',*,*,#526,.F.);
#307=ORIENTED_EDGE('',*,*,#527,.F.);
#308=ORIENTED_EDGE('',*,*,#414,.T.);
#309=ORIENTED_EDGE('',*,*,#525,.F.);
#310=ORIENTED_EDGE('',*,*,#527,.T.);
#311=ORIENTED_EDGE('',*,*,#526,.T.);
#312=ORIENTED_EDGE('',*,*,#528,.T.);
#313=ORIENTED_EDGE('',*,*,#529,.F.);
#314=ORIENTED_EDGE('',*,*,#530,.F.);
#315=ORIENTED_EDGE('',*,*,#413,.T.);
#316=ORIENTED_EDGE('',*,*,#528,.F.);
#317=ORIENTED_EDGE('',*,*,#530,.T.);
#318=ORIENTED_EDGE('',*,*,#529,.T.);
#319=ORIENTED_EDGE('',*,*,#531,.T.);
#320=ORIENTED_EDGE('',*,*,#532,.F.);
#321=ORIENTED_EDGE('',*,*,#533,.F.);
#322=ORIENTED_EDGE('',*,*,#412,.T.);
#323=ORIENTED_EDGE('',*,*,#531,.F.);
#324=ORIENTED_EDGE('',*,*,#533,.T.);
#325=ORIENTED_EDGE('',*,*,#532,.T.);
#326=ORIENTED_EDGE('',*,*,#534,.T.);
#327=ORIENTED_EDGE('',*,*,#535,.F.);
#328=ORIENTED_EDGE('',*,*,#536,.F.);
#329=ORIENTED_EDGE('',*,*,#411,.T.);
#330=ORIENTED_EDGE('',*,*,#534,.F.);
#331=ORIENTED_EDGE('',*,*,#536,.T.);
#332=ORIENTED_EDGE('',*,*,#535,.T.);
#333=ORIENTED_EDGE('',*,*,#537,.T.);
#334=ORIENTED_EDGE('',*,*,#399,.F.);
#335=ORIENTED_EDGE('',*,*,#538,.F.);
#336=ORIENTED_EDGE('',*,*,#408,.F.);
#337=ORIENTED_EDGE('',*,*,#409,.T.);
#338=ORIENTED_EDGE('',*,*,#538,.T.);
#339=ORIENTED_EDGE('',*,*,#402,.T.);
#340=ORIENTED_EDGE('',*,*,#539,.F.);
#341=ORIENTED_EDGE('',*,*,#410,.T.);
#342=ORIENTED_EDGE('',*,*,#539,.T.);
#343=ORIENTED_EDGE('',*,*,#401,.T.);
#344=ORIENTED_EDGE('',*,*,#540,.F.);
#345=ORIENTED_EDGE('',*,*,#540,.T.);
#346=ORIENTED_EDGE('',*,*,#400,.F.);
#347=ORIENTED_EDGE('',*,*,#537,.F.);
#348=ORIENTED_EDGE('',*,*,#407,.F.);
#349=ORIENTED_EDGE('',*,*,#448,.T.);
#350=ORIENTED_EDGE('',*,*,#509,.F.);
#351=ORIENTED_EDGE('',*,*,#541,.F.);
#352=ORIENTED_EDGE('',*,*,#447,.F.);
#353=ORIENTED_EDGE('',*,*,#517,.F.);
#354=ORIENTED_EDGE('',*,*,#452,.F.);
#355=ORIENTED_EDGE('',*,*,#542,.F.);
#356=ORIENTED_EDGE('',*,*,#541,.T.);
#357=ORIENTED_EDGE('',*,*,#543,.F.);
#358=ORIENTED_EDGE('',*,*,#516,.F.);
#359=ORIENTED_EDGE('',*,*,#504,.F.);
#360=ORIENTED_EDGE('',*,*,#544,.F.);
#361=ORIENTED_EDGE('',*,*,#450,.F.);
#362=ORIENTED_EDGE('',*,*,#543,.T.);
#363=ORIENTED_EDGE('',*,*,#451,.F.);
#364=ORIENTED_EDGE('',*,*,#545,.F.);
#365=ORIENTED_EDGE('',*,*,#507,.F.);
#366=ORIENTED_EDGE('',*,*,#542,.T.);
#367=ORIENTED_EDGE('',*,*,#506,.F.);
#368=ORIENTED_EDGE('',*,*,#546,.F.);
#369=ORIENTED_EDGE('',*,*,#444,.F.);
#370=ORIENTED_EDGE('',*,*,#518,.F.);
#371=ORIENTED_EDGE('',*,*,#445,.F.);
#372=ORIENTED_EDGE('',*,*,#547,.F.);
#373=ORIENTED_EDGE('',*,*,#398,.F.);
#374=ORIENTED_EDGE('',*,*,#545,.T.);
#375=ORIENTED_EDGE('',*,*,#544,.T.);
#376=ORIENTED_EDGE('',*,*,#548,.F.);
#377=ORIENTED_EDGE('',*,*,#547,.T.);
#378=ORIENTED_EDGE('',*,*,#546,.T.);
#379=ORIENTED_EDGE('',*,*,#549,.F.);
#380=ORIENTED_EDGE('',*,*,#548,.T.);
#381=ORIENTED_EDGE('',*,*,#503,.F.);
#382=ORIENTED_EDGE('',*,*,#550,.F.);
#383=ORIENTED_EDGE('',*,*,#508,.F.);
#384=ORIENTED_EDGE('',*,*,#549,.T.);
#385=ORIENTED_EDGE('',*,*,#505,.F.);
#386=ORIENTED_EDGE('',*,*,#551,.F.);
#387=ORIENTED_EDGE('',*,*,#395,.F.);
#388=ORIENTED_EDGE('',*,*,#551,.T.);
#389=ORIENTED_EDGE('',*,*,#550,.T.);
#390=ORIENTED_EDGE('',*,*,#552,.F.);
#391=ORIENTED_EDGE('',*,*,#515,.F.);
#392=ORIENTED_EDGE('',*,*,#396,.F.);
#393=ORIENTED_EDGE('',*,*,#552,.T.);
#394=ORIENTED_EDGE('',*,*,#502,.F.);
#395=EDGE_CURVE('',#553,#554,#663,.T.);
#396=EDGE_CURVE('',#554,#555,#664,.F.);
#397=EDGE_CURVE('',#556,#555,#665,.T.);
#398=EDGE_CURVE('',#556,#553,#666,.T.);
#399=EDGE_CURVE('',#557,#558,#667,.T.);
#400=EDGE_CURVE('',#558,#559,#668,.T.);
#401=EDGE_CURVE('',#560,#559,#669,.T.);
#402=EDGE_CURVE('',#557,#560,#670,.T.);
#403=EDGE_CURVE('',#561,#562,#671,.T.);
#404=EDGE_CURVE('',#563,#561,#672,.T.);
#405=EDGE_CURVE('',#563,#564,#673,.T.);
#406=EDGE_CURVE('',#564,#562,#674,.T.);
#407=EDGE_CURVE('',#565,#566,#675,.T.);
#408=EDGE_CURVE('',#566,#567,#676,.T.);
#409=EDGE_CURVE('',#568,#567,#677,.T.);
#410=EDGE_CURVE('',#565,#568,#678,.T.);
#411=EDGE_CURVE('',#569,#569,#37,.F.);
#412=EDGE_CURVE('',#570,#570,#38,.F.);
#413=EDGE_CURVE('',#571,#571,#39,.F.);
#414=EDGE_CURVE('',#572,#572,#40,.F.);
#415=EDGE_CURVE('',#573,#573,#41,.F.);
#416=EDGE_CURVE('',#574,#574,#42,.F.);
#417=EDGE_CURVE('',#575,#576,#679,.T.);
#418=EDGE_CURVE('',#576,#577,#680,.T.);
#419=EDGE_CURVE('',#578,#577,#681,.T.);
#420=EDGE_CURVE('',#575,#578,#682,.T.);
#421=EDGE_CURVE('',#579,#580,#683,.T.);
#422=EDGE_CURVE('',#580,#581,#684,.T.);
#423=EDGE_CURVE('',#582,#581,#685,.T.);
#424=EDGE_CURVE('',#579,#582,#686,.T.);
#425=EDGE_CURVE('',#583,#584,#687,.T.);
#426=EDGE_CURVE('',#584,#585,#688,.T.);
#427=EDGE_CURVE('',#586,#585,#689,.T.);
#428=EDGE_CURVE('',#583,#586,#690,.T.);
#429=EDGE_CURVE('',#587,#588,#691,.T.);
#430=EDGE_CURVE('',#588,#589,#692,.T.);
#431=EDGE_CURVE('',#590,#589,#693,.T.);
#432=EDGE_CURVE('',#587,#590,#694,.T.);
#433=EDGE_CURVE('',#591,#592,#695,.T.);
#434=EDGE_CURVE('',#592,#593,#696,.T.);
#435=EDGE_CURVE('',#594,#593,#697,.T.);
#436=EDGE_CURVE('',#591,#594,#698,.T.);
#437=EDGE_CURVE('',#595,#596,#699,.T.);
#438=EDGE_CURVE('',#596,#597,#700,.T.);
#439=EDGE_CURVE('',#598,#597,#701,.T.);
#440=EDGE_CURVE('',#595,#598,#702,.T.);
#441=EDGE_CURVE('',#599,#600,#703,.T.);
#442=EDGE_CURVE('',#599,#561,#704,.T.);
#443=EDGE_CURVE('',#600,#562,#705,.T.);
#444=EDGE_CURVE('',#601,#602,#706,.F.);
#445=EDGE_CURVE('',#602,#603,#707,.F.);
#446=EDGE_CURVE('',#603,#604,#708,.T.);
#447=EDGE_CURVE('',#604,#601,#709,.T.);
#448=EDGE_CURVE('',#605,#605,#43,.T.);
#449=EDGE_CURVE('',#606,#607,#710,.T.);
#450=EDGE_CURVE('',#607,#608,#711,.T.);
#451=EDGE_CURVE('',#608,#609,#712,.F.);
#452=EDGE_CURVE('',#609,#606,#713,.F.);
#453=EDGE_CURVE('',#610,#611,#714,.T.);
#454=EDGE_CURVE('',#576,#611,#715,.T.);
#455=EDGE_CURVE('',#575,#610,#716,.T.);
#456=EDGE_CURVE('',#610,#612,#717,.T.);
#457=EDGE_CURVE('',#578,#612,#718,.T.);
#458=EDGE_CURVE('',#612,#613,#719,.T.);
#459=EDGE_CURVE('',#577,#613,#720,.T.);
#460=EDGE_CURVE('',#614,#615,#721,.T.);
#461=EDGE_CURVE('',#580,#615,#722,.T.);
#462=EDGE_CURVE('',#579,#614,#723,.T.);
#463=EDGE_CURVE('',#614,#616,#724,.T.);
#464=EDGE_CURVE('',#582,#616,#725,.T.);
#465=EDGE_CURVE('',#616,#617,#726,.T.);
#466=EDGE_CURVE('',#581,#617,#727,.T.);
#467=EDGE_CURVE('',#618,#619,#728,.T.);
#468=EDGE_CURVE('',#584,#619,#729,.T.);
#469=EDGE_CURVE('',#583,#618,#730,.T.);
#470=EDGE_CURVE('',#618,#620,#731,.T.);
#471=EDGE_CURVE('',#586,#620,#732,.T.);
#472=EDGE_CURVE('',#620,#621,#733,.T.);
#473=EDGE_CURVE('',#585,#621,#734,.T.);
#474=EDGE_CURVE('',#622,#623,#735,.T.);
#475=EDGE_CURVE('',#588,#623,#736,.T.);
#476=EDGE_CURVE('',#587,#622,#737,.T.);
#477=EDGE_CURVE('',#622,#624,#738,.T.);
#478=EDGE_CURVE('',#590,#624,#739,.T.);
#479=EDGE_CURVE('',#624,#625,#740,.T.);
#480=EDGE_CURVE('',#589,#625,#741,.T.);
#481=EDGE_CURVE('',#626,#627,#742,.T.);
#482=EDGE_CURVE('',#592,#627,#743,.T.);
#483=EDGE_CURVE('',#591,#626,#744,.T.);
#484=EDGE_CURVE('',#626,#628,#745,.T.);
#485=EDGE_CURVE('',#594,#628,#746,.T.);
#486=EDGE_CURVE('',#628,#629,#747,.T.);
#487=EDGE_CURVE('',#593,#629,#748,.T.);
#488=EDGE_CURVE('',#630,#631,#749,.T.);
#489=EDGE_CURVE('',#596,#631,#750,.T.);
#490=EDGE_CURVE('',#595,#630,#751,.T.);
#491=EDGE_CURVE('',#630,#632,#752,.T.);
#492=EDGE_CURVE('',#598,#632,#753,.T.);
#493=EDGE_CURVE('',#632,#633,#754,.T.);
#494=EDGE_CURVE('',#597,#633,#755,.T.);
#495=EDGE_CURVE('',#611,#613,#756,.T.);
#496=EDGE_CURVE('',#615,#617,#757,.T.);
#497=EDGE_CURVE('',#619,#621,#758,.T.);
#498=EDGE_CURVE('',#623,#625,#759,.T.);
#499=EDGE_CURVE('',#627,#629,#760,.T.);
#500=EDGE_CURVE('',#631,#633,#761,.T.);
#501=EDGE_CURVE('',#634,#635,#762,.T.);
#502=EDGE_CURVE('',#634,#636,#763,.T.);
#503=EDGE_CURVE('',#636,#637,#764,.T.);
#504=EDGE_CURVE('',#637,#635,#765,.F.);
#505=EDGE_CURVE('',#638,#639,#766,.F.);
#506=EDGE_CURVE('',#639,#640,#767,.T.);
#507=EDGE_CURVE('',#640,#641,#768,.T.);
#508=EDGE_CURVE('',#641,#638,#769,.F.);
#509=EDGE_CURVE('',#642,#642,#44,.T.);
#510=EDGE_CURVE('',#643,#600,#770,.T.);
#511=EDGE_CURVE('',#644,#643,#771,.T.);
#512=EDGE_CURVE('',#644,#599,#772,.T.);
#513=EDGE_CURVE('',#643,#564,#773,.T.);
#514=EDGE_CURVE('',#644,#563,#774,.T.);
#515=EDGE_CURVE('',#555,#634,#45,.T.);
#516=EDGE_CURVE('',#635,#607,#46,.T.);
#517=EDGE_CURVE('',#606,#604,#47,.T.);
#518=EDGE_CURVE('',#603,#556,#48,.T.);
#519=EDGE_CURVE('',#645,#645,#49,.T.);
#520=EDGE_CURVE('',#646,#646,#50,.T.);
#521=EDGE_CURVE('',#647,#647,#51,.T.);
#522=EDGE_CURVE('',#648,#648,#52,.T.);
#523=EDGE_CURVE('',#649,#649,#53,.T.);
#524=EDGE_CURVE('',#650,#650,#54,.T.);
#525=EDGE_CURVE('',#651,#651,#55,.T.);
#526=EDGE_CURVE('',#652,#652,#56,.T.);
#527=EDGE_CURVE('',#653,#653,#57,.T.);
#528=EDGE_CURVE('',#654,#654,#58,.T.);
#529=EDGE_CURVE('',#655,#655,#59,.T.);
#530=EDGE_CURVE('',#656,#656,#60,.T.);
#531=EDGE_CURVE('',#657,#657,#61,.T.);
#532=EDGE_CURVE('',#658,#658,#62,.T.);
#533=EDGE_CURVE('',#659,#659,#63,.T.);
#534=EDGE_CURVE('',#660,#660,#64,.T.);
#535=EDGE_CURVE('',#661,#661,#65,.T.);
#536=EDGE_CURVE('',#662,#662,#66,.T.);
#537=EDGE_CURVE('',#566,#558,#775,.T.);
#538=EDGE_CURVE('',#567,#557,#776,.T.);
#539=EDGE_CURVE('',#568,#560,#777,.T.);
#540=EDGE_CURVE('',#565,#559,#778,.T.);
#541=EDGE_CURVE('',#601,#609,#67,.T.);
#542=EDGE_CURVE('',#601,#640,#68,.F.);
#543=EDGE_CURVE('',#640,#609,#69,.F.);
#544=EDGE_CURVE('',#608,#637,#70,.T.);
#545=EDGE_CURVE('',#641,#608,#71,.T.);
#546=EDGE_CURVE('',#602,#639,#72,.T.);
#547=EDGE_CURVE('',#553,#602,#73,.T.);
#548=EDGE_CURVE('',#641,#637,#74,.F.);
#549=EDGE_CURVE('',#553,#639,#75,.F.);
#550=EDGE_CURVE('',#638,#636,#76,.T.);
#551=EDGE_CURVE('',#554,#638,#77,.T.);
#552=EDGE_CURVE('',#554,#636,#78,.F.);
#553=VERTEX_POINT('',#1746);
#554=VERTEX_POINT('',#1747);
#555=VERTEX_POINT('',#1749);
#556=VERTEX_POINT('',#1751);
#557=VERTEX_POINT('',#1754);
#558=VERTEX_POINT('',#1755);
#559=VERTEX_POINT('',#1757);
#560=VERTEX_POINT('',#1759);
#561=VERTEX_POINT('',#1763);
#562=VERTEX_POINT('',#1764);
#563=VERTEX_POINT('',#1766);
#564=VERTEX_POINT('',#1768);
#565=VERTEX_POINT('',#1771);
#566=VERTEX_POINT('',#1772);
#567=VERTEX_POINT('',#1774);
#568=VERTEX_POINT('',#1776);
#569=VERTEX_POINT('',#1780);
#570=VERTEX_POINT('',#1782);
#571=VERTEX_POINT('',#1784);
#572=VERTEX_POINT('',#1786);
#573=VERTEX_POINT('',#1788);
#574=VERTEX_POINT('',#1790);
#575=VERTEX_POINT('',#1792);
#576=VERTEX_POINT('',#1793);
#577=VERTEX_POINT('',#1795);
#578=VERTEX_POINT('',#1797);
#579=VERTEX_POINT('',#1800);
#580=VERTEX_POINT('',#1801);
#581=VERTEX_POINT('',#1803);
#582=VERTEX_POINT('',#1805);
#583=VERTEX_POINT('',#1808);
#584=VERTEX_POINT('',#1809);
#585=VERTEX_POINT('',#1811);
#586=VERTEX_POINT('',#1813);
#587=VERTEX_POINT('',#1816);
#588=VERTEX_POINT('',#1817);
#589=VERTEX_POINT('',#1819);
#590=VERTEX_POINT('',#1821);
#591=VERTEX_POINT('',#1824);
#592=VERTEX_POINT('',#1825);
#593=VERTEX_POINT('',#1827);
#594=VERTEX_POINT('',#1829);
#595=VERTEX_POINT('',#1832);
#596=VERTEX_POINT('',#1833);
#597=VERTEX_POINT('',#1835);
#598=VERTEX_POINT('',#1837);
#599=VERTEX_POINT('',#1840);
#600=VERTEX_POINT('',#1841);
#601=VERTEX_POINT('',#1846);
#602=VERTEX_POINT('',#1847);
#603=VERTEX_POINT('',#1849);
#604=VERTEX_POINT('',#1851);
#605=VERTEX_POINT('',#1855);
#606=VERTEX_POINT('',#1857);
#607=VERTEX_POINT('',#1858);
#608=VERTEX_POINT('',#1860);
#609=VERTEX_POINT('',#1862);
#610=VERTEX_POINT('',#1866);
#611=VERTEX_POINT('',#1867);
#612=VERTEX_POINT('',#1872);
#613=VERTEX_POINT('',#1876);
#614=VERTEX_POINT('',#1880);
#615=VERTEX_POINT('',#1881);
#616=VERTEX_POINT('',#1886);
#617=VERTEX_POINT('',#1890);
#618=VERTEX_POINT('',#1894);
#619=VERTEX_POINT('',#1895);
#620=VERTEX_POINT('',#1900);
#621=VERTEX_POINT('',#1904);
#622=VERTEX_POINT('',#1908);
#623=VERTEX_POINT('',#1909);
#624=VERTEX_POINT('',#1914);
#625=VERTEX_POINT('',#1918);
#626=VERTEX_POINT('',#1922);
#627=VERTEX_POINT('',#1923);
#628=VERTEX_POINT('',#1928);
#629=VERTEX_POINT('',#1932);
#630=VERTEX_POINT('',#1936);
#631=VERTEX_POINT('',#1937);
#632=VERTEX_POINT('',#1942);
#633=VERTEX_POINT('',#1946);
#634=VERTEX_POINT('',#1962);
#635=VERTEX_POINT('',#1963);
#636=VERTEX_POINT('',#1965);
#637=VERTEX_POINT('',#1967);
#638=VERTEX_POINT('',#1971);
#639=VERTEX_POINT('',#1972);
#640=VERTEX_POINT('',#1974);
#641=VERTEX_POINT('',#1976);
#642=VERTEX_POINT('',#1980);
#643=VERTEX_POINT('',#1982);
#644=VERTEX_POINT('',#1984);
#645=VERTEX_POINT('',#1997);
#646=VERTEX_POINT('',#1999);
#647=VERTEX_POINT('',#2002);
#648=VERTEX_POINT('',#2007);
#649=VERTEX_POINT('',#2009);
#650=VERTEX_POINT('',#2012);
#651=VERTEX_POINT('',#2017);
#652=VERTEX_POINT('',#2019);
#653=VERTEX_POINT('',#2022);
#654=VERTEX_POINT('',#2027);
#655=VERTEX_POINT('',#2029);
#656=VERTEX_POINT('',#2032);
#657=VERTEX_POINT('',#2037);
#658=VERTEX_POINT('',#2039);
#659=VERTEX_POINT('',#2042);
#660=VERTEX_POINT('',#2047);
#661=VERTEX_POINT('',#2049);
#662=VERTEX_POINT('',#2052);
#663=LINE('',#1745,#779);
#664=LINE('',#1748,#780);
#665=LINE('',#1750,#781);
#666=LINE('',#1752,#782);
#667=LINE('',#1753,#783);
#668=LINE('',#1756,#784);
#669=LINE('',#1758,#785);
#670=LINE('',#1760,#786);
#671=LINE('',#1762,#787);
#672=LINE('',#1765,#788);
#673=LINE('',#1767,#789);
#674=LINE('',#1769,#790);
#675=LINE('',#1770,#791);
#676=LINE('',#1773,#792);
#677=LINE('',#1775,#793);
#678=LINE('',#1777,#794);
#679=LINE('',#1791,#795);
#680=LINE('',#1794,#796);
#681=LINE('',#1796,#797);
#682=LINE('',#1798,#798);
#683=LINE('',#1799,#799);
#684=LINE('',#1802,#800);
#685=LINE('',#1804,#801);
#686=LINE('',#1806,#802);
#687=LINE('',#1807,#803);
#688=LINE('',#1810,#804);
#689=LINE('',#1812,#805);
#690=LINE('',#1814,#806);
#691=LINE('',#1815,#807);
#692=LINE('',#1818,#808);
#693=LINE('',#1820,#809);
#694=LINE('',#1822,#810);
#695=LINE('',#1823,#811);
#696=LINE('',#1826,#812);
#697=LINE('',#1828,#813);
#698=LINE('',#1830,#814);
#699=LINE('',#1831,#815);
#700=LINE('',#1834,#816);
#701=LINE('',#1836,#817);
#702=LINE('',#1838,#818);
#703=LINE('',#1839,#819);
#704=LINE('',#1842,#820);
#705=LINE('',#1843,#821);
#706=LINE('',#1845,#822);
#707=LINE('',#1848,#823);
#708=LINE('',#1850,#824);
#709=LINE('',#1852,#825);
#710=LINE('',#1856,#826);
#711=LINE('',#1859,#827);
#712=LINE('',#1861,#828);
#713=LINE('',#1863,#829);
#714=LINE('',#1865,#830);
#715=LINE('',#1868,#831);
#716=LINE('',#1869,#832);
#717=LINE('',#1871,#833);
#718=LINE('',#1873,#834);
#719=LINE('',#1875,#835);
#720=LINE('',#1877,#836);
#721=LINE('',#1879,#837);
#722=LINE('',#1882,#838);
#723=LINE('',#1883,#839);
#724=LINE('',#1885,#840);
#725=LINE('',#1887,#841);
#726=LINE('',#1889,#842);
#727=LINE('',#1891,#843);
#728=LINE('',#1893,#844);
#729=LINE('',#1896,#845);
#730=LINE('',#1897,#846);
#731=LINE('',#1899,#847);
#732=LINE('',#1901,#848);
#733=LINE('',#1903,#849);
#734=LINE('',#1905,#850);
#735=LINE('',#1907,#851);
#736=LINE('',#1910,#852);
#737=LINE('',#1911,#853);
#738=LINE('',#1913,#854);
#739=LINE('',#1915,#855);
#740=LINE('',#1917,#856);
#741=LINE('',#1919,#857);
#742=LINE('',#1921,#858);
#743=LINE('',#1924,#859);
#744=LINE('',#1925,#860);
#745=LINE('',#1927,#861);
#746=LINE('',#1929,#862);
#747=LINE('',#1931,#863);
#748=LINE('',#1933,#864);
#749=LINE('',#1935,#865);
#750=LINE('',#1938,#866);
#751=LINE('',#1939,#867);
#752=LINE('',#1941,#868);
#753=LINE('',#1943,#869);
#754=LINE('',#1945,#870);
#755=LINE('',#1947,#871);
#756=LINE('',#1949,#872);
#757=LINE('',#1951,#873);
#758=LINE('',#1953,#874);
#759=LINE('',#1955,#875);
#760=LINE('',#1957,#876);
#761=LINE('',#1959,#877);
#762=LINE('',#1961,#878);
#763=LINE('',#1964,#879);
#764=LINE('',#1966,#880);
#765=LINE('',#1968,#881);
#766=LINE('',#1970,#882);
#767=LINE('',#1973,#883);
#768=LINE('',#1975,#884);
#769=LINE('',#1977,#885);
#770=LINE('',#1981,#886);
#771=LINE('',#1983,#887);
#772=LINE('',#1985,#888);
#773=LINE('',#1987,#889);
#774=LINE('',#1989,#890);
#775=LINE('',#2056,#891);
#776=LINE('',#2057,#892);
#777=LINE('',#2059,#893);
#778=LINE('',#2061,#894);
#779=VECTOR('',#1393,1.);
#780=VECTOR('',#1394,1.);
#781=VECTOR('',#1395,1.);
#782=VECTOR('',#1396,1.);
#783=VECTOR('',#1397,1.);
#784=VECTOR('',#1398,1.);
#785=VECTOR('',#1399,1.);
#786=VECTOR('',#1400,1.);
#787=VECTOR('',#1403,1.);
#788=VECTOR('',#1404,1.);
#789=VECTOR('',#1405,1.);
#790=VECTOR('',#1406,1.);
#791=VECTOR('',#1407,1.);
#792=VECTOR('',#1408,1.);
#793=VECTOR('',#1409,1.);
#794=VECTOR('',#1410,1.);
#795=VECTOR('',#1425,1.);
#796=VECTOR('',#1426,1.);
#797=VECTOR('',#1427,1.);
#798=VECTOR('',#1428,1.);
#799=VECTOR('',#1429,1.);
#800=VECTOR('',#1430,1.);
#801=VECTOR('',#1431,1.);
#802=VECTOR('',#1432,1.);
#803=VECTOR('',#1433,1.);
#804=VECTOR('',#1434,1.);
#805=VECTOR('',#1435,1.);
#806=VECTOR('',#1436,1.);
#807=VECTOR('',#1437,1.);
#808=VECTOR('',#1438,1.);
#809=VECTOR('',#1439,1.);
#810=VECTOR('',#1440,1.);
#811=VECTOR('',#1441,1.);
#812=VECTOR('',#1442,1.);
#813=VECTOR('',#1443,1.);
#814=VECTOR('',#1444,1.);
#815=VECTOR('',#1445,1.);
#816=VECTOR('',#1446,1.);
#817=VECTOR('',#1447,1.);
#818=VECTOR('',#1448,1.);
#819=VECTOR('',#1449,1.);
#820=VECTOR('',#1450,1.);
#821=VECTOR('',#1451,1.);
#822=VECTOR('',#1454,1.);
#823=VECTOR('',#1455,1.);
#824=VECTOR('',#1456,1.);
#825=VECTOR('',#1457,1.);
#826=VECTOR('',#1462,1.);
#827=VECTOR('',#1463,1.);
#828=VECTOR('',#1464,1.);
#829=VECTOR('',#1465,1.);
#830=VECTOR('',#1468,1.);
#831=VECTOR('',#1469,1.);
#832=VECTOR('',#1470,1.);
#833=VECTOR('',#1473,1.);
#834=VECTOR('',#1474,1.);
#835=VECTOR('',#1477,1.);
#836=VECTOR('',#1478,1.);
#837=VECTOR('',#1481,1.);
#838=VECTOR('',#1482,1.);
#839=VECTOR('',#1483,1.);
#840=VECTOR('',#1486,1.);
#841=VECTOR('',#1487,1.);
#842=VECTOR('',#1490,1.);
#843=VECTOR('',#1491,1.);
#844=VECTOR('',#1494,1.);
#845=VECTOR('',#1495,1.);
#846=VECTOR('',#1496,1.);
#847=VECTOR('',#1499,1.);
#848=VECTOR('',#1500,1.);
#849=VECTOR('',#1503,1.);
#850=VECTOR('',#1504,1.);
#851=VECTOR('',#1507,1.);
#852=VECTOR('',#1508,1.);
#853=VECTOR('',#1509,1.);
#854=VECTOR('',#1512,1.);
#855=VECTOR('',#1513,1.);
#856=VECTOR('',#1516,1.);
#857=VECTOR('',#1517,1.);
#858=VECTOR('',#1520,1.);
#859=VECTOR('',#1521,1.);
#860=VECTOR('',#1522,1.);
#861=VECTOR('',#1525,1.);
#862=VECTOR('',#1526,1.);
#863=VECTOR('',#1529,1.);
#864=VECTOR('',#1530,1.);
#865=VECTOR('',#1533,1.);
#866=VECTOR('',#1534,1.);
#867=VECTOR('',#1535,1.);
#868=VECTOR('',#1538,1.);
#869=VECTOR('',#1539,1.);
#870=VECTOR('',#1542,1.);
#871=VECTOR('',#1543,1.);
#872=VECTOR('',#1546,1.);
#873=VECTOR('',#1549,1.);
#874=VECTOR('',#1552,1.);
#875=VECTOR('',#1555,1.);
#876=VECTOR('',#1558,1.);
#877=VECTOR('',#1561,1.);
#878=VECTOR('',#1564,1.);
#879=VECTOR('',#1565,1.);
#880=VECTOR('',#1566,1.);
#881=VECTOR('',#1567,1.);
#882=VECTOR('',#1570,1.);
#883=VECTOR('',#1571,1.);
#884=VECTOR('',#1572,1.);
#885=VECTOR('',#1573,1.);
#886=VECTOR('',#1578,1.);
#887=VECTOR('',#1579,1.);
#888=VECTOR('',#1580,1.);
#889=VECTOR('',#1583,1.);
#890=VECTOR('',#1586,1.);
#891=VECTOR('',#1683,1.);
#892=VECTOR('',#1684,1.);
#893=VECTOR('',#1687,1.);
#894=VECTOR('',#1690,1.);
#895=EDGE_LOOP('',(#79,#80,#81,#82));
#896=EDGE_LOOP('',(#83,#84,#85,#86));
#897=EDGE_LOOP('',(#87,#88,#89,#90));
#898=EDGE_LOOP('',(#91,#92,#93,#94));
#899=EDGE_LOOP('',(#95));
#900=EDGE_LOOP('',(#96));
#901=EDGE_LOOP('',(#97));
#902=EDGE_LOOP('',(#98));
#903=EDGE_LOOP('',(#99));
#904=EDGE_LOOP('',(#100));
#905=EDGE_LOOP('',(#101,#102,#103,#104));
#906=EDGE_LOOP('',(#105,#106,#107,#108));
#907=EDGE_LOOP('',(#109,#110,#111,#112));
#908=EDGE_LOOP('',(#113,#114,#115,#116));
#909=EDGE_LOOP('',(#117,#118,#119,#120));
#910=EDGE_LOOP('',(#121,#122,#123,#124));
#911=EDGE_LOOP('',(#125,#126,#127,#128));
#912=EDGE_LOOP('',(#129,#130,#131,#132));
#913=EDGE_LOOP('',(#133));
#914=EDGE_LOOP('',(#134,#135,#136,#137));
#915=EDGE_LOOP('',(#138,#139,#140,#141));
#916=EDGE_LOOP('',(#142,#143,#144,#145));
#917=EDGE_LOOP('',(#146,#147,#148,#149));
#918=EDGE_LOOP('',(#150,#151,#152,#153));
#919=EDGE_LOOP('',(#154,#155,#156,#157));
#920=EDGE_LOOP('',(#158,#159,#160,#161));
#921=EDGE_LOOP('',(#162,#163,#164,#165));
#922=EDGE_LOOP('',(#166,#167,#168,#169));
#923=EDGE_LOOP('',(#170,#171,#172,#173));
#924=EDGE_LOOP('',(#174,#175,#176,#177));
#925=EDGE_LOOP('',(#178,#179,#180,#181));
#926=EDGE_LOOP('',(#182,#183,#184,#185));
#927=EDGE_LOOP('',(#186,#187,#188,#189));
#928=EDGE_LOOP('',(#190,#191,#192,#193));
#929=EDGE_LOOP('',(#194,#195,#196,#197));
#930=EDGE_LOOP('',(#198,#199,#200,#201));
#931=EDGE_LOOP('',(#202,#203,#204,#205));
#932=EDGE_LOOP('',(#206,#207,#208,#209));
#933=EDGE_LOOP('',(#210,#211,#212,#213));
#934=EDGE_LOOP('',(#214,#215,#216,#217));
#935=EDGE_LOOP('',(#218,#219,#220,#221));
#936=EDGE_LOOP('',(#222,#223,#224,#225));
#937=EDGE_LOOP('',(#226,#227,#228,#229));
#938=EDGE_LOOP('',(#230,#231,#232,#233));
#939=EDGE_LOOP('',(#234,#235,#236,#237));
#940=EDGE_LOOP('',(#238,#239,#240,#241));
#941=EDGE_LOOP('',(#242,#243,#244,#245));
#942=EDGE_LOOP('',(#246,#247,#248,#249));
#943=EDGE_LOOP('',(#250,#251,#252,#253));
#944=EDGE_LOOP('',(#254,#255,#256,#257));
#945=EDGE_LOOP('',(#258,#259,#260,#261));
#946=EDGE_LOOP('',(#262,#263,#264,#265));
#947=EDGE_LOOP('',(#266));
#948=EDGE_LOOP('',(#267,#268,#269,#270));
#949=EDGE_LOOP('',(#271,#272,#273,#274));
#950=EDGE_LOOP('',(#275,#276,#277,#278));
#951=EDGE_LOOP('',(#279,#280,#281,#282,#283,#284,#285,#286));
#952=EDGE_LOOP('',(#287,#288,#289,#290));
#953=EDGE_LOOP('',(#291));
#954=EDGE_LOOP('',(#292));
#955=EDGE_LOOP('',(#293));
#956=EDGE_LOOP('',(#294));
#957=EDGE_LOOP('',(#295));
#958=EDGE_LOOP('',(#296));
#959=EDGE_LOOP('',(#297));
#960=EDGE_LOOP('',(#298));
#961=EDGE_LOOP('',(#299));
#962=EDGE_LOOP('',(#300));
#963=EDGE_LOOP('',(#301));
#964=EDGE_LOOP('',(#302));
#965=EDGE_LOOP('',(#303));
#966=EDGE_LOOP('',(#304));
#967=EDGE_LOOP('',(#305));
#968=EDGE_LOOP('',(#306));
#969=EDGE_LOOP('',(#307));
#970=EDGE_LOOP('',(#308));
#971=EDGE_LOOP('',(#309));
#972=EDGE_LOOP('',(#310));
#973=EDGE_LOOP('',(#311));
#974=EDGE_LOOP('',(#312));
#975=EDGE_LOOP('',(#313));
#976=EDGE_LOOP('',(#314));
#977=EDGE_LOOP('',(#315));
#978=EDGE_LOOP('',(#316));
#979=EDGE_LOOP('',(#317));
#980=EDGE_LOOP('',(#318));
#981=EDGE_LOOP('',(#319));
#982=EDGE_LOOP('',(#320));
#983=EDGE_LOOP('',(#321));
#984=EDGE_LOOP('',(#322));
#985=EDGE_LOOP('',(#323));
#986=EDGE_LOOP('',(#324));
#987=EDGE_LOOP('',(#325));
#988=EDGE_LOOP('',(#326));
#989=EDGE_LOOP('',(#327));
#990=EDGE_LOOP('',(#328));
#991=EDGE_LOOP('',(#329));
#992=EDGE_LOOP('',(#330));
#993=EDGE_LOOP('',(#331));
#994=EDGE_LOOP('',(#332));
#995=EDGE_LOOP('',(#333,#334,#335,#336));
#996=EDGE_LOOP('',(#337,#338,#339,#340));
#997=EDGE_LOOP('',(#341,#342,#343,#344));
#998=EDGE_LOOP('',(#345,#346,#347,#348));
#999=EDGE_LOOP('',(#349));
#1000=EDGE_LOOP('',(#350));
#1001=EDGE_LOOP('',(#351,#352,#353,#354));
#1002=EDGE_LOOP('',(#355,#356,#357));
#1003=EDGE_LOOP('',(#358,#359,#360,#361));
#1004=EDGE_LOOP('',(#362,#363,#364,#365));
#1005=EDGE_LOOP('',(#366,#367,#368,#369));
#1006=EDGE_LOOP('',(#370,#371,#372,#373));
#1007=EDGE_LOOP('',(#374,#375,#376));
#1008=EDGE_LOOP('',(#377,#378,#379));
#1009=EDGE_LOOP('',(#380,#381,#382,#383));
#1010=EDGE_LOOP('',(#384,#385,#386,#387));
#1011=EDGE_LOOP('',(#388,#389,#390));
#1012=EDGE_LOOP('',(#391,#392,#393,#394));
#1013=FACE_BOUND('',#895,.T.);
#1014=FACE_BOUND('',#896,.T.);
#1015=FACE_BOUND('',#897,.T.);
#1016=FACE_BOUND('',#898,.T.);
#1017=FACE_BOUND('',#899,.T.);
#1018=FACE_BOUND('',#900,.T.);
#1019=FACE_BOUND('',#901,.T.);
#1020=FACE_BOUND('',#902,.T.);
#1021=FACE_BOUND('',#903,.T.);
#1022=FACE_BOUND('',#904,.T.);
#1023=FACE_BOUND('',#905,.T.);
#1024=FACE_BOUND('',#906,.T.);
#1025=FACE_BOUND('',#907,.T.);
#1026=FACE_BOUND('',#908,.T.);
#1027=FACE_BOUND('',#909,.T.);
#1028=FACE_BOUND('',#910,.T.);
#1029=FACE_BOUND('',#911,.T.);
#1030=FACE_BOUND('',#912,.T.);
#1031=FACE_BOUND('',#913,.T.);
#1032=FACE_BOUND('',#914,.T.);
#1033=FACE_BOUND('',#915,.T.);
#1034=FACE_BOUND('',#916,.T.);
#1035=FACE_BOUND('',#917,.T.);
#1036=FACE_BOUND('',#918,.T.);
#1037=FACE_BOUND('',#919,.T.);
#1038=FACE_BOUND('',#920,.T.);
#1039=FACE_BOUND('',#921,.T.);
#1040=FACE_BOUND('',#922,.T.);
#1041=FACE_BOUND('',#923,.T.);
#1042=FACE_BOUND('',#924,.T.);
#1043=FACE_BOUND('',#925,.T.);
#1044=FACE_BOUND('',#926,.T.);
#1045=FACE_BOUND('',#927,.T.);
#1046=FACE_BOUND('',#928,.T.);
#1047=FACE_BOUND('',#929,.T.);
#1048=FACE_BOUND('',#930,.T.);
#1049=FACE_BOUND('',#931,.T.);
#1050=FACE_BOUND('',#932,.T.);
#1051=FACE_BOUND('',#933,.T.);
#1052=FACE_BOUND('',#934,.T.);
#1053=FACE_BOUND('',#935,.T.);
#1054=FACE_BOUND('',#936,.T.);
#1055=FACE_BOUND('',#937,.T.);
#1056=FACE_BOUND('',#938,.T.);
#1057=FACE_BOUND('',#939,.T.);
#1058=FACE_BOUND('',#940,.T.);
#1059=FACE_BOUND('',#941,.T.);
#1060=FACE_BOUND('',#942,.T.);
#1061=FACE_BOUND('',#943,.T.);
#1062=FACE_BOUND('',#944,.T.);
#1063=FACE_BOUND('',#945,.T.);
#1064=FACE_BOUND('',#946,.T.);
#1065=FACE_BOUND('',#947,.T.);
#1066=FACE_BOUND('',#948,.T.);
#1067=FACE_BOUND('',#949,.T.);
#1068=FACE_BOUND('',#950,.T.);
#1069=FACE_BOUND('',#951,.T.);
#1070=FACE_BOUND('',#952,.T.);
#1071=FACE_BOUND('',#953,.T.);
#1072=FACE_BOUND('',#954,.T.);
#1073=FACE_BOUND('',#955,.T.);
#1074=FACE_BOUND('',#956,.T.);
#1075=FACE_BOUND('',#957,.T.);
#1076=FACE_BOUND('',#958,.T.);
#1077=FACE_BOUND('',#959,.T.);
#1078=FACE_BOUND('',#960,.T.);
#1079=FACE_BOUND('',#961,.T.);
#1080=FACE_BOUND('',#962,.T.);
#1081=FACE_BOUND('',#963,.T.);
#1082=FACE_BOUND('',#964,.T.);
#1083=FACE_BOUND('',#965,.T.);
#1084=FACE_BOUND('',#966,.T.);
#1085=FACE_BOUND('',#967,.T.);
#1086=FACE_BOUND('',#968,.T.);
#1087=FACE_BOUND('',#969,.T.);
#1088=FACE_BOUND('',#970,.T.);
#1089=FACE_BOUND('',#971,.T.);
#1090=FACE_BOUND('',#972,.T.);
#1091=FACE_BOUND('',#973,.T.);
#1092=FACE_BOUND('',#974,.T.);
#1093=FACE_BOUND('',#975,.T.);
#1094=FACE_BOUND('',#976,.T.);
#1095=FACE_BOUND('',#977,.T.);
#1096=FACE_BOUND('',#978,.T.);
#1097=FACE_BOUND('',#979,.T.);
#1098=FACE_BOUND('',#980,.T.);
#1099=FACE_BOUND('',#981,.T.);
#1100=FACE_BOUND('',#982,.T.);
#1101=FACE_BOUND('',#983,.T.);
#1102=FACE_BOUND('',#984,.T.);
#1103=FACE_BOUND('',#985,.T.);
#1104=FACE_BOUND('',#986,.T.);
#1105=FACE_BOUND('',#987,.T.);
#1106=FACE_BOUND('',#988,.T.);
#1107=FACE_BOUND('',#989,.T.);
#1108=FACE_BOUND('',#990,.T.);
#1109=FACE_BOUND('',#991,.T.);
#1110=FACE_BOUND('',#992,.T.);
#1111=FACE_BOUND('',#993,.T.);
#1112=FACE_BOUND('',#994,.T.);
#1113=FACE_BOUND('',#995,.T.);
#1114=FACE_BOUND('',#996,.T.);
#1115=FACE_BOUND('',#997,.T.);
#1116=FACE_BOUND('',#998,.T.);
#1117=FACE_BOUND('',#999,.T.);
#1118=FACE_BOUND('',#1000,.T.);
#1119=FACE_BOUND('',#1001,.T.);
#1120=FACE_BOUND('',#1002,.T.);
#1121=FACE_BOUND('',#1003,.T.);
#1122=FACE_BOUND('',#1004,.T.);
#1123=FACE_BOUND('',#1005,.T.);
#1124=FACE_BOUND('',#1006,.T.);
#1125=FACE_BOUND('',#1007,.T.);
#1126=FACE_BOUND('',#1008,.T.);
#1127=FACE_BOUND('',#1009,.T.);
#1128=FACE_BOUND('',#1010,.T.);
#1129=FACE_BOUND('',#1011,.T.);
#1130=FACE_BOUND('',#1012,.T.);
#1131=PLANE('',#1271);
#1132=PLANE('',#1272);
#1133=PLANE('',#1273);
#1134=PLANE('',#1280);
#1135=PLANE('',#1281);
#1136=PLANE('',#1283);
#1137=PLANE('',#1284);
#1138=PLANE('',#1285);
#1139=PLANE('',#1286);
#1140=PLANE('',#1287);
#1141=PLANE('',#1288);
#1142=PLANE('',#1289);
#1143=PLANE('',#1290);
#1144=PLANE('',#1291);
#1145=PLANE('',#1292);
#1146=PLANE('',#1293);
#1147=PLANE('',#1294);
#1148=PLANE('',#1295);
#1149=PLANE('',#1296);
#1150=PLANE('',#1297);
#1151=PLANE('',#1298);
#1152=PLANE('',#1299);
#1153=PLANE('',#1300);
#1154=PLANE('',#1301);
#1155=PLANE('',#1302);
#1156=PLANE('',#1303);
#1157=PLANE('',#1304);
#1158=PLANE('',#1305);
#1159=PLANE('',#1306);
#1160=PLANE('',#1307);
#1161=PLANE('',#1308);
#1162=PLANE('',#1309);
#1163=PLANE('',#1311);
#1164=PLANE('',#1312);
#1165=PLANE('',#1313);
#1166=PLANE('',#1323);
#1167=PLANE('',#1324);
#1168=PLANE('',#1330);
#1169=PLANE('',#1331);
#1170=PLANE('',#1337);
#1171=PLANE('',#1338);
#1172=PLANE('',#1344);
#1173=PLANE('',#1345);
#1174=PLANE('',#1351);
#1175=PLANE('',#1352);
#1176=PLANE('',#1358);
#1177=PLANE('',#1359);
#1178=PLANE('',#1360);
#1179=PLANE('',#1361);
#1180=PLANE('',#1362);
#1181=PLANE('',#1363);
#1182=ADVANCED_FACE('',(#1013,#1014),#1131,.F.);
#1183=ADVANCED_FACE('',(#1015,#1016),#1132,.T.);
#1184=ADVANCED_FACE('',(#1017,#1018,#1019,#1020,#1021,#1022,#1023,#1024,
#1025,#1026,#1027,#1028,#1029),#1133,.F.);
#1185=ADVANCED_FACE('',(#1030),#1134,.T.);
#1186=ADVANCED_FACE('',(#1031,#1032),#1135,.T.);
#1187=ADVANCED_FACE('',(#1033),#1136,.F.);
#1188=ADVANCED_FACE('',(#1034),#1137,.T.);
#1189=ADVANCED_FACE('',(#1035),#1138,.T.);
#1190=ADVANCED_FACE('',(#1036),#1139,.F.);
#1191=ADVANCED_FACE('',(#1037),#1140,.T.);
#1192=ADVANCED_FACE('',(#1038),#1141,.T.);
#1193=ADVANCED_FACE('',(#1039),#1142,.F.);
#1194=ADVANCED_FACE('',(#1040),#1143,.T.);
#1195=ADVANCED_FACE('',(#1041),#1144,.T.);
#1196=ADVANCED_FACE('',(#1042),#1145,.F.);
#1197=ADVANCED_FACE('',(#1043),#1146,.T.);
#1198=ADVANCED_FACE('',(#1044),#1147,.T.);
#1199=ADVANCED_FACE('',(#1045),#1148,.F.);
#1200=ADVANCED_FACE('',(#1046),#1149,.T.);
#1201=ADVANCED_FACE('',(#1047),#1150,.T.);
#1202=ADVANCED_FACE('',(#1048),#1151,.F.);
#1203=ADVANCED_FACE('',(#1049),#1152,.T.);
#1204=ADVANCED_FACE('',(#1050),#1153,.T.);
#1205=ADVANCED_FACE('',(#1051),#1154,.F.);
#1206=ADVANCED_FACE('',(#1052),#1155,.F.);
#1207=ADVANCED_FACE('',(#1053),#1156,.F.);
#1208=ADVANCED_FACE('',(#1054),#1157,.F.);
#1209=ADVANCED_FACE('',(#1055),#1158,.F.);
#1210=ADVANCED_FACE('',(#1056),#1159,.F.);
#1211=ADVANCED_FACE('',(#1057),#1160,.F.);
#1212=ADVANCED_FACE('',(#1058,#1059,#1060,#1061,#1062,#1063,#1064),#1161,
 .T.);
#1213=ADVANCED_FACE('',(#1065,#1066),#1162,.F.);
#1214=ADVANCED_FACE('',(#1067),#1163,.F.);
#1215=ADVANCED_FACE('',(#1068),#1164,.T.);
#1216=ADVANCED_FACE('',(#1069,#1070),#1165,.T.);
#1217=ADVANCED_FACE('',(#1071,#1072),#16,.F.);
#1218=ADVANCED_FACE('',(#1073,#1074),#17,.T.);
#1219=ADVANCED_FACE('',(#1075,#1076),#1166,.T.);
#1220=ADVANCED_FACE('',(#1077),#1167,.F.);
#1221=ADVANCED_FACE('',(#1078,#1079),#18,.F.);
#1222=ADVANCED_FACE('',(#1080,#1081),#19,.T.);
#1223=ADVANCED_FACE('',(#1082,#1083),#1168,.T.);
#1224=ADVANCED_FACE('',(#1084),#1169,.F.);
#1225=ADVANCED_FACE('',(#1085,#1086),#20,.F.);
#1226=ADVANCED_FACE('',(#1087,#1088),#21,.T.);
#1227=ADVANCED_FACE('',(#1089,#1090),#1170,.T.);
#1228=ADVANCED_FACE('',(#1091),#1171,.F.);
#1229=ADVANCED_FACE('',(#1092,#1093),#22,.F.);
#1230=ADVANCED_FACE('',(#1094,#1095),#23,.T.);
#1231=ADVANCED_FACE('',(#1096,#1097),#1172,.T.);
#1232=ADVANCED_FACE('',(#1098),#1173,.F.);
#1233=ADVANCED_FACE('',(#1099,#1100),#24,.F.);
#1234=ADVANCED_FACE('',(#1101,#1102),#25,.T.);
#1235=ADVANCED_FACE('',(#1103,#1104),#1174,.T.);
#1236=ADVANCED_FACE('',(#1105),#1175,.F.);
#1237=ADVANCED_FACE('',(#1106,#1107),#26,.F.);
#1238=ADVANCED_FACE('',(#1108,#1109),#27,.T.);
#1239=ADVANCED_FACE('',(#1110,#1111),#1176,.T.);
#1240=ADVANCED_FACE('',(#1112),#1177,.F.);
#1241=ADVANCED_FACE('',(#1113),#1178,.T.);
#1242=ADVANCED_FACE('',(#1114),#1179,.F.);
#1243=ADVANCED_FACE('',(#1115),#1180,.F.);
#1244=ADVANCED_FACE('',(#1116),#1181,.T.);
#1245=ADVANCED_FACE('',(#1117,#1118),#28,.F.);
#1246=ADVANCED_FACE('',(#1119),#29,.T.);
#1247=ADVANCED_FACE('',(#1120),#12,.T.);
#1248=ADVANCED_FACE('',(#1121),#30,.T.);
#1249=ADVANCED_FACE('',(#1122),#31,.T.);
#1250=ADVANCED_FACE('',(#1123),#32,.T.);
#1251=ADVANCED_FACE('',(#1124),#33,.T.);
#1252=ADVANCED_FACE('',(#1125),#13,.T.);
#1253=ADVANCED_FACE('',(#1126),#14,.T.);
#1254=ADVANCED_FACE('',(#1127),#34,.T.);
#1255=ADVANCED_FACE('',(#1128),#35,.T.);
#1256=ADVANCED_FACE('',(#1129),#15,.T.);
#1257=ADVANCED_FACE('',(#1130),#36,.T.);
#1258=CLOSED_SHELL('',(#1182,#1183,#1184,#1185,#1186,#1187,#1188,#1189,
#1190,#1191,#1192,#1193,#1194,#1195,#1196,#1197,#1198,#1199,#1200,#1201,
#1202,#1203,#1204,#1205,#1206,#1207,#1208,#1209,#1210,#1211,#1212,#1213,
#1214,#1215,#1216,#1217,#1218,#1219,#1220,#1221,#1222,#1223,#1224,#1225,
#1226,#1227,#1228,#1229,#1230,#1231,#1232,#1233,#1234,#1235,#1236,#1237,
#1238,#1239,#1240,#1241,#1242,#1243,#1244,#1245,#1246,#1247,#1248,#1249,
#1250,#1251,#1252,#1253,#1254,#1255,#1256,#1257));
#1259=STYLED_ITEM('',(#1260),#1267);
#1260=PRESENTATION_STYLE_ASSIGNMENT((#1261));
#1261=SURFACE_STYLE_USAGE(.BOTH.,#1262);
#1262=SURFACE_SIDE_STYLE('',(#1263));
#1263=SURFACE_STYLE_FILL_AREA(#1264);
#1264=FILL_AREA_STYLE('',(#1265));
#1265=FILL_AREA_STYLE_COLOUR('',#1266);
#1266=COLOUR_RGB('',0.231372549019608,0.380392156862745,0.705882352941177);
#1267=MANIFOLD_SOLID_BREP('Part 5',#1258);
#1268=SHAPE_DEFINITION_REPRESENTATION(#2094,#1269);
#1269=SHAPE_REPRESENTATION('Part 5',(#1270),#2089);
#1270=AXIS2_PLACEMENT_3D('',#1743,#1389,#1390);
#1271=AXIS2_PLACEMENT_3D('',#1744,#1391,#1392);
#1272=AXIS2_PLACEMENT_3D('',#1761,#1401,#1402);
#1273=AXIS2_PLACEMENT_3D('',#1778,#1411,#1412);
#1274=AXIS2_PLACEMENT_3D('',#1779,#1413,#1414);
#1275=AXIS2_PLACEMENT_3D('',#1781,#1415,#1416);
#1276=AXIS2_PLACEMENT_3D('',#1783,#1417,#1418);
#1277=AXIS2_PLACEMENT_3D('',#1785,#1419,#1420);
#1278=AXIS2_PLACEMENT_3D('',#1787,#1421,#1422);
#1279=AXIS2_PLACEMENT_3D('',#1789,#1423,#1424);
#1280=AXIS2_PLACEMENT_3D('',#1844,#1452,#1453);
#1281=AXIS2_PLACEMENT_3D('',#1853,#1458,#1459);
#1282=AXIS2_PLACEMENT_3D('',#1854,#1460,#1461);
#1283=AXIS2_PLACEMENT_3D('',#1864,#1466,#1467);
#1284=AXIS2_PLACEMENT_3D('',#1870,#1471,#1472);
#1285=AXIS2_PLACEMENT_3D('',#1874,#1475,#1476);
#1286=AXIS2_PLACEMENT_3D('',#1878,#1479,#1480);
#1287=AXIS2_PLACEMENT_3D('',#1884,#1484,#1485);
#1288=AXIS2_PLACEMENT_3D('',#1888,#1488,#1489);
#1289=AXIS2_PLACEMENT_3D('',#1892,#1492,#1493);
#1290=AXIS2_PLACEMENT_3D('',#1898,#1497,#1498);
#1291=AXIS2_PLACEMENT_3D('',#1902,#1501,#1502);
#1292=AXIS2_PLACEMENT_3D('',#1906,#1505,#1506);
#1293=AXIS2_PLACEMENT_3D('',#1912,#1510,#1511);
#1294=AXIS2_PLACEMENT_3D('',#1916,#1514,#1515);
#1295=AXIS2_PLACEMENT_3D('',#1920,#1518,#1519);
#1296=AXIS2_PLACEMENT_3D('',#1926,#1523,#1524);
#1297=AXIS2_PLACEMENT_3D('',#1930,#1527,#1528);
#1298=AXIS2_PLACEMENT_3D('',#1934,#1531,#1532);
#1299=AXIS2_PLACEMENT_3D('',#1940,#1536,#1537);
#1300=AXIS2_PLACEMENT_3D('',#1944,#1540,#1541);
#1301=AXIS2_PLACEMENT_3D('',#1948,#1544,#1545);
#1302=AXIS2_PLACEMENT_3D('',#1950,#1547,#1548);
#1303=AXIS2_PLACEMENT_3D('',#1952,#1550,#1551);
#1304=AXIS2_PLACEMENT_3D('',#1954,#1553,#1554);
#1305=AXIS2_PLACEMENT_3D('',#1956,#1556,#1557);
#1306=AXIS2_PLACEMENT_3D('',#1958,#1559,#1560);
#1307=AXIS2_PLACEMENT_3D('',#1960,#1562,#1563);
#1308=AXIS2_PLACEMENT_3D('',#1969,#1568,#1569);
#1309=AXIS2_PLACEMENT_3D('',#1978,#1574,#1575);
#1310=AXIS2_PLACEMENT_3D('',#1979,#1576,#1577);
#1311=AXIS2_PLACEMENT_3D('',#1986,#1581,#1582);
#1312=AXIS2_PLACEMENT_3D('',#1988,#1584,#1585);
#1313=AXIS2_PLACEMENT_3D('',#1990,#1587,#1588);
#1314=AXIS2_PLACEMENT_3D('',#1991,#1589,#1590);
#1315=AXIS2_PLACEMENT_3D('',#1992,#1591,#1592);
#1316=AXIS2_PLACEMENT_3D('',#1993,#1593,#1594);
#1317=AXIS2_PLACEMENT_3D('',#1994,#1595,#1596);
#1318=AXIS2_PLACEMENT_3D('',#1995,#1597,#1598);
#1319=AXIS2_PLACEMENT_3D('',#1996,#1599,#1600);
#1320=AXIS2_PLACEMENT_3D('',#1998,#1601,#1602);
#1321=AXIS2_PLACEMENT_3D('',#2000,#1603,#1604);
#1322=AXIS2_PLACEMENT_3D('',#2001,#1605,#1606);
#1323=AXIS2_PLACEMENT_3D('',#2003,#1607,#1608);
#1324=AXIS2_PLACEMENT_3D('',#2004,#1609,#1610);
#1325=AXIS2_PLACEMENT_3D('',#2005,#1611,#1612);
#1326=AXIS2_PLACEMENT_3D('',#2006,#1613,#1614);
#1327=AXIS2_PLACEMENT_3D('',#2008,#1615,#1616);
#1328=AXIS2_PLACEMENT_3D('',#2010,#1617,#1618);
#1329=AXIS2_PLACEMENT_3D('',#2011,#1619,#1620);
#1330=AXIS2_PLACEMENT_3D('',#2013,#1621,#1622);
#1331=AXIS2_PLACEMENT_3D('',#2014,#1623,#1624);
#1332=AXIS2_PLACEMENT_3D('',#2015,#1625,#1626);
#1333=AXIS2_PLACEMENT_3D('',#2016,#1627,#1628);
#1334=AXIS2_PLACEMENT_3D('',#2018,#1629,#1630);
#1335=AXIS2_PLACEMENT_3D('',#2020,#1631,#1632);
#1336=AXIS2_PLACEMENT_3D('',#2021,#1633,#1634);
#1337=AXIS2_PLACEMENT_3D('',#2023,#1635,#1636);
#1338=AXIS2_PLACEMENT_3D('',#2024,#1637,#1638);
#1339=AXIS2_PLACEMENT_3D('',#2025,#1639,#1640);
#1340=AXIS2_PLACEMENT_3D('',#2026,#1641,#1642);
#1341=AXIS2_PLACEMENT_3D('',#2028,#1643,#1644);
#1342=AXIS2_PLACEMENT_3D('',#2030,#1645,#1646);
#1343=AXIS2_PLACEMENT_3D('',#2031,#1647,#1648);
#1344=AXIS2_PLACEMENT_3D('',#2033,#1649,#1650);
#1345=AXIS2_PLACEMENT_3D('',#2034,#1651,#1652);
#1346=AXIS2_PLACEMENT_3D('',#2035,#1653,#1654);
#1347=AXIS2_PLACEMENT_3D('',#2036,#1655,#1656);
#1348=AXIS2_PLACEMENT_3D('',#2038,#1657,#1658);
#1349=AXIS2_PLACEMENT_3D('',#2040,#1659,#1660);
#1350=AXIS2_PLACEMENT_3D('',#2041,#1661,#1662);
#1351=AXIS2_PLACEMENT_3D('',#2043,#1663,#1664);
#1352=AXIS2_PLACEMENT_3D('',#2044,#1665,#1666);
#1353=AXIS2_PLACEMENT_3D('',#2045,#1667,#1668);
#1354=AXIS2_PLACEMENT_3D('',#2046,#1669,#1670);
#1355=AXIS2_PLACEMENT_3D('',#2048,#1671,#1672);
#1356=AXIS2_PLACEMENT_3D('',#2050,#1673,#1674);
#1357=AXIS2_PLACEMENT_3D('',#2051,#1675,#1676);
#1358=AXIS2_PLACEMENT_3D('',#2053,#1677,#1678);
#1359=AXIS2_PLACEMENT_3D('',#2054,#1679,#1680);
#1360=AXIS2_PLACEMENT_3D('',#2055,#1681,#1682);
#1361=AXIS2_PLACEMENT_3D('',#2058,#1685,#1686);
#1362=AXIS2_PLACEMENT_3D('',#2060,#1688,#1689);
#1363=AXIS2_PLACEMENT_3D('',#2062,#1691,#1692);
#1364=AXIS2_PLACEMENT_3D('',#2063,#1693,#1694);
#1365=AXIS2_PLACEMENT_3D('',#2064,#1695,#1696);
#1366=AXIS2_PLACEMENT_3D('',#2065,#1697,#1698);
#1367=AXIS2_PLACEMENT_3D('',#2066,#1699,#1700);
#1368=AXIS2_PLACEMENT_3D('',#2067,#1701,#1702);
#1369=AXIS2_PLACEMENT_3D('',#2068,#1703,#1704);
#1370=AXIS2_PLACEMENT_3D('',#2069,#1705,#1706);
#1371=AXIS2_PLACEMENT_3D('',#2070,#1707,#1708);
#1372=AXIS2_PLACEMENT_3D('',#2071,#1709,#1710);
#1373=AXIS2_PLACEMENT_3D('',#2072,#1711,#1712);
#1374=AXIS2_PLACEMENT_3D('',#2073,#1713,#1714);
#1375=AXIS2_PLACEMENT_3D('',#2074,#1715,#1716);
#1376=AXIS2_PLACEMENT_3D('',#2075,#1717,#1718);
#1377=AXIS2_PLACEMENT_3D('',#2076,#1719,#1720);
#1378=AXIS2_PLACEMENT_3D('',#2077,#1721,#1722);
#1379=AXIS2_PLACEMENT_3D('',#2078,#1723,#1724);
#1380=AXIS2_PLACEMENT_3D('',#2079,#1725,#1726);
#1381=AXIS2_PLACEMENT_3D('',#2080,#1727,#1728);
#1382=AXIS2_PLACEMENT_3D('',#2081,#1729,#1730);
#1383=AXIS2_PLACEMENT_3D('',#2082,#1731,#1732);
#1384=AXIS2_PLACEMENT_3D('',#2083,#1733,#1734);
#1385=AXIS2_PLACEMENT_3D('',#2084,#1735,#1736);
#1386=AXIS2_PLACEMENT_3D('',#2085,#1737,#1738);
#1387=AXIS2_PLACEMENT_3D('',#2086,#1739,#1740);
#1388=AXIS2_PLACEMENT_3D('',#2087,#1741,#1742);
#1389=DIRECTION('',(0.,0.,1.));
#1390=DIRECTION('',(1.,0.,0.));
#1391=DIRECTION('',(0.,-1.,0.));
#1392=DIRECTION('',(0.,0.,-1.));
#1393=DIRECTION('',(1.,0.,0.));
#1394=DIRECTION('',(0.,0.,1.));
#1395=DIRECTION('',(1.,0.,0.));
#1396=DIRECTION('',(0.,0.,1.));
#1397=DIRECTION('',(-1.,0.,4.33680868994202E-16));
#1398=DIRECTION('',(0.,0.,-1.));
#1399=DIRECTION('',(-1.,0.,4.33680868994202E-16));
#1400=DIRECTION('',(0.,0.,-1.));
#1401=DIRECTION('',(0.,-1.,0.));
#1402=DIRECTION('',(0.,0.,-1.));
#1403=DIRECTION('',(1.,0.,0.));
#1404=DIRECTION('',(0.,0.,1.));
#1405=DIRECTION('',(1.,0.,0.));
#1406=DIRECTION('',(0.,0.,1.));
#1407=DIRECTION('',(0.,0.,1.));
#1408=DIRECTION('',(1.,0.,-4.33680868994202E-16));
#1409=DIRECTION('',(0.,0.,1.));
#1410=DIRECTION('',(1.,0.,-4.33680868994202E-16));
#1411=DIRECTION('',(0.,0.,1.));
#1412=DIRECTION('',(1.,0.,0.));
#1413=DIRECTION('',(0.,0.,1.));
#1414=DIRECTION('',(1.,0.,0.));
#1415=DIRECTION('',(0.,0.,1.));
#1416=DIRECTION('',(1.,0.,0.));
#1417=DIRECTION('',(0.,0.,1.));
#1418=DIRECTION('',(1.,0.,0.));
#1419=DIRECTION('',(0.,0.,1.));
#1420=DIRECTION('',(1.,0.,0.));
#1421=DIRECTION('',(0.,0.,1.));
#1422=DIRECTION('',(1.,0.,0.));
#1423=DIRECTION('',(0.,0.,1.));
#1424=DIRECTION('',(1.,0.,0.));
#1425=DIRECTION('',(0.,-1.,0.));
#1426=DIRECTION('',(1.,0.,0.));
#1427=DIRECTION('',(0.,-1.,0.));
#1428=DIRECTION('',(1.,0.,0.));
#1429=DIRECTION('',(0.,-1.,0.));
#1430=DIRECTION('',(1.,0.,0.));
#1431=DIRECTION('',(0.,-1.,0.));
#1432=DIRECTION('',(1.,0.,0.));
#1433=DIRECTION('',(0.,-1.,0.));
#1434=DIRECTION('',(1.,0.,0.));
#1435=DIRECTION('',(0.,-1.,0.));
#1436=DIRECTION('',(1.,0.,0.));
#1437=DIRECTION('',(0.,-1.,0.));
#1438=DIRECTION('',(1.,0.,0.));
#1439=DIRECTION('',(0.,-1.,0.));
#1440=DIRECTION('',(1.,0.,0.));
#1441=DIRECTION('',(0.,-1.,0.));
#1442=DIRECTION('',(1.,0.,0.));
#1443=DIRECTION('',(0.,-1.,0.));
#1444=DIRECTION('',(1.,0.,0.));
#1445=DIRECTION('',(0.,-1.,0.));
#1446=DIRECTION('',(1.,0.,0.));
#1447=DIRECTION('',(0.,-1.,0.));
#1448=DIRECTION('',(1.,0.,0.));
#1449=DIRECTION('',(1.,0.,0.));
#1450=DIRECTION('',(0.,1.,0.));
#1451=DIRECTION('',(0.,1.,0.));
#1452=DIRECTION('',(-1.,-4.08170229641602E-17,0.));
#1453=DIRECTION('',(4.08170229641602E-17,-1.,0.));
#1454=DIRECTION('',(4.08170229641602E-17,-1.,0.));
#1455=DIRECTION('',(0.,0.,1.));
#1456=DIRECTION('',(4.08170229641602E-17,-1.,0.));
#1457=DIRECTION('',(0.,0.,1.));
#1458=DIRECTION('',(0.,-1.,0.));
#1459=DIRECTION('',(0.,0.,-1.));
#1460=DIRECTION('',(0.,-1.,0.));
#1461=DIRECTION('',(0.,0.,-1.));
#1462=DIRECTION('',(1.,0.,0.));
#1463=DIRECTION('',(0.,0.,1.));
#1464=DIRECTION('',(1.,0.,0.));
#1465=DIRECTION('',(0.,0.,1.));
#1466=DIRECTION('',(-1.,0.,0.));
#1467=DIRECTION('',(0.,0.,1.));
#1468=DIRECTION('',(0.,-1.,0.));
#1469=DIRECTION('',(0.,0.,1.));
#1470=DIRECTION('',(0.,0.,1.));
#1471=DIRECTION('',(0.,-1.,0.));
#1472=DIRECTION('',(0.,0.,-1.));
#1473=DIRECTION('',(1.,0.,0.));
#1474=DIRECTION('',(0.,0.,1.));
#1475=DIRECTION('',(-1.,0.,0.));
#1476=DIRECTION('',(0.,0.,1.));
#1477=DIRECTION('',(0.,-1.,0.));
#1478=DIRECTION('',(0.,0.,1.));
#1479=DIRECTION('',(-1.,0.,0.));
#1480=DIRECTION('',(0.,0.,1.));
#1481=DIRECTION('',(0.,-1.,0.));
#1482=DIRECTION('',(0.,0.,1.));
#1483=DIRECTION('',(0.,0.,1.));
#1484=DIRECTION('',(0.,-1.,0.));
#1485=DIRECTION('',(0.,0.,-1.));
#1486=DIRECTION('',(1.,0.,0.));
#1487=DIRECTION('',(0.,0.,1.));
#1488=DIRECTION('',(-1.,0.,0.));
#1489=DIRECTION('',(0.,0.,1.));
#1490=DIRECTION('',(0.,-1.,0.));
#1491=DIRECTION('',(0.,0.,1.));
#1492=DIRECTION('',(-1.,0.,0.));
#1493=DIRECTION('',(0.,0.,1.));
#1494=DIRECTION('',(0.,-1.,0.));
#1495=DIRECTION('',(0.,0.,1.));
#1496=DIRECTION('',(0.,0.,1.));
#1497=DIRECTION('',(0.,-1.,0.));
#1498=DIRECTION('',(0.,0.,-1.));
#1499=DIRECTION('',(1.,0.,0.));
#1500=DIRECTION('',(0.,0.,1.));
#1501=DIRECTION('',(-1.,0.,0.));
#1502=DIRECTION('',(0.,0.,1.));
#1503=DIRECTION('',(0.,-1.,0.));
#1504=DIRECTION('',(0.,0.,1.));
#1505=DIRECTION('',(-1.,0.,0.));
#1506=DIRECTION('',(0.,0.,1.));
#1507=DIRECTION('',(0.,-1.,0.));
#1508=DIRECTION('',(0.,0.,1.));
#1509=DIRECTION('',(0.,0.,1.));
#1510=DIRECTION('',(0.,-1.,0.));
#1511=DIRECTION('',(0.,0.,-1.));
#1512=DIRECTION('',(1.,0.,0.));
#1513=DIRECTION('',(0.,0.,1.));
#1514=DIRECTION('',(-1.,0.,0.));
#1515=DIRECTION('',(0.,0.,1.));
#1516=DIRECTION('',(0.,-1.,0.));
#1517=DIRECTION('',(0.,0.,1.));
#1518=DIRECTION('',(-1.,0.,0.));
#1519=DIRECTION('',(0.,0.,1.));
#1520=DIRECTION('',(0.,-1.,0.));
#1521=DIRECTION('',(0.,0.,1.));
#1522=DIRECTION('',(0.,0.,1.));
#1523=DIRECTION('',(0.,-1.,0.));
#1524=DIRECTION('',(0.,0.,-1.));
#1525=DIRECTION('',(1.,0.,0.));
#1526=DIRECTION('',(0.,0.,1.));
#1527=DIRECTION('',(-1.,0.,0.));
#1528=DIRECTION('',(0.,0.,1.));
#1529=DIRECTION('',(0.,-1.,0.));
#1530=DIRECTION('',(0.,0.,1.));
#1531=DIRECTION('',(-1.,0.,0.));
#1532=DIRECTION('',(0.,0.,1.));
#1533=DIRECTION('',(0.,-1.,0.));
#1534=DIRECTION('',(0.,0.,1.));
#1535=DIRECTION('',(0.,0.,1.));
#1536=DIRECTION('',(0.,-1.,0.));
#1537=DIRECTION('',(0.,0.,-1.));
#1538=DIRECTION('',(1.,0.,0.));
#1539=DIRECTION('',(0.,0.,1.));
#1540=DIRECTION('',(-1.,0.,0.));
#1541=DIRECTION('',(0.,0.,1.));
#1542=DIRECTION('',(0.,-1.,0.));
#1543=DIRECTION('',(0.,0.,1.));
#1544=DIRECTION('',(0.,-1.,0.));
#1545=DIRECTION('',(0.,0.,-1.));
#1546=DIRECTION('',(1.,0.,0.));
#1547=DIRECTION('',(0.,-1.,0.));
#1548=DIRECTION('',(0.,0.,-1.));
#1549=DIRECTION('',(1.,0.,0.));
#1550=DIRECTION('',(0.,-1.,0.));
#1551=DIRECTION('',(0.,0.,-1.));
#1552=DIRECTION('',(1.,0.,0.));
#1553=DIRECTION('',(0.,-1.,0.));
#1554=DIRECTION('',(0.,0.,-1.));
#1555=DIRECTION('',(1.,0.,0.));
#1556=DIRECTION('',(0.,-1.,0.));
#1557=DIRECTION('',(0.,0.,-1.));
#1558=DIRECTION('',(1.,0.,0.));
#1559=DIRECTION('',(0.,-1.,0.));
#1560=DIRECTION('',(0.,0.,-1.));
#1561=DIRECTION('',(1.,0.,0.));
#1562=DIRECTION('',(-1.,0.,0.));
#1563=DIRECTION('',(0.,0.,1.));
#1564=DIRECTION('',(0.,-1.,0.));
#1565=DIRECTION('',(0.,0.,1.));
#1566=DIRECTION('',(0.,-1.,0.));
#1567=DIRECTION('',(0.,0.,1.));
#1568=DIRECTION('',(0.,0.,1.));
#1569=DIRECTION('',(1.,0.,0.));
#1570=DIRECTION('',(1.,0.,0.));
#1571=DIRECTION('',(4.08170229641602E-17,-1.,0.));
#1572=DIRECTION('',(1.,0.,0.));
#1573=DIRECTION('',(0.,-1.,0.));
#1574=DIRECTION('',(0.,-1.,0.));
#1575=DIRECTION('',(0.,0.,-1.));
#1576=DIRECTION('',(0.,-1.,0.));
#1577=DIRECTION('',(0.,0.,-1.));
#1578=DIRECTION('',(0.,0.,1.));
#1579=DIRECTION('',(1.,0.,0.));
#1580=DIRECTION('',(0.,0.,1.));
#1581=DIRECTION('',(1.,0.,0.));
#1582=DIRECTION('',(0.,0.,-1.));
#1583=DIRECTION('',(0.,1.,0.));
#1584=DIRECTION('',(1.,0.,0.));
#1585=DIRECTION('',(0.,0.,-1.));
#1586=DIRECTION('',(0.,1.,0.));
#1587=DIRECTION('',(0.,0.,-1.));
#1588=DIRECTION('',(1.,0.,0.));
#1589=DIRECTION('',(0.,0.,-1.));
#1590=DIRECTION('',(-1.,0.,0.));
#1591=DIRECTION('',(0.,0.,-1.));
#1592=DIRECTION('',(-1.,0.,0.));
#1593=DIRECTION('',(0.,0.,-1.));
#1594=DIRECTION('',(-1.,0.,0.));
#1595=DIRECTION('',(0.,0.,-1.));
#1596=DIRECTION('',(-1.,0.,0.));
#1597=DIRECTION('',(0.,0.,1.));
#1598=DIRECTION('',(1.,0.,0.));
#1599=DIRECTION('',(0.,0.,-1.));
#1600=DIRECTION('',(-1.,0.,0.));
#1601=DIRECTION('',(0.,0.,-1.));
#1602=DIRECTION('',(-1.,0.,0.));
#1603=DIRECTION('',(0.,0.,1.));
#1604=DIRECTION('',(1.,0.,0.));
#1605=DIRECTION('',(0.,0.,-1.));
#1606=DIRECTION('',(-1.,0.,0.));
#1607=DIRECTION('',(0.,0.,-1.));
#1608=DIRECTION('',(1.,0.,0.));
#1609=DIRECTION('',(0.,0.,1.));
#1610=DIRECTION('',(1.,0.,0.));
#1611=DIRECTION('',(0.,0.,1.));
#1612=DIRECTION('',(1.,0.,0.));
#1613=DIRECTION('',(0.,0.,-1.));
#1614=DIRECTION('',(-1.,0.,0.));
#1615=DIRECTION('',(0.,0.,-1.));
#1616=DIRECTION('',(-1.,0.,0.));
#1617=DIRECTION('',(0.,0.,1.));
#1618=DIRECTION('',(1.,0.,0.));
#1619=DIRECTION('',(0.,0.,-1.));
#1620=DIRECTION('',(-1.,0.,0.));
#1621=DIRECTION('',(0.,0.,-1.));
#1622=DIRECTION('',(1.,0.,0.));
#1623=DIRECTION('',(0.,0.,1.));
#1624=DIRECTION('',(1.,0.,0.));
#1625=DIRECTION('',(0.,0.,1.));
#1626=DIRECTION('',(1.,0.,0.));
#1627=DIRECTION('',(0.,0.,-1.));
#1628=DIRECTION('',(-1.,0.,0.));
#1629=DIRECTION('',(0.,0.,-1.));
#1630=DIRECTION('',(-1.,0.,0.));
#1631=DIRECTION('',(0.,0.,1.));
#1632=DIRECTION('',(1.,0.,0.));
#1633=DIRECTION('',(0.,0.,-1.));
#1634=DIRECTION('',(-1.,0.,0.));
#1635=DIRECTION('',(0.,0.,-1.));
#1636=DIRECTION('',(1.,0.,0.));
#1637=DIRECTION('',(0.,0.,1.));
#1638=DIRECTION('',(1.,0.,0.));
#1639=DIRECTION('',(0.,0.,1.));
#1640=DIRECTION('',(1.,0.,0.));
#1641=DIRECTION('',(0.,0.,-1.));
#1642=DIRECTION('',(-1.,0.,0.));
#1643=DIRECTION('',(0.,0.,-1.));
#1644=DIRECTION('',(-1.,0.,0.));
#1645=DIRECTION('',(0.,0.,1.));
#1646=DIRECTION('',(1.,0.,0.));
#1647=DIRECTION('',(0.,0.,-1.));
#1648=DIRECTION('',(-1.,0.,0.));
#1649=DIRECTION('',(0.,0.,-1.));
#1650=DIRECTION('',(1.,0.,0.));
#1651=DIRECTION('',(0.,0.,1.));
#1652=DIRECTION('',(1.,0.,0.));
#1653=DIRECTION('',(0.,0.,1.));
#1654=DIRECTION('',(1.,0.,0.));
#1655=DIRECTION('',(0.,0.,-1.));
#1656=DIRECTION('',(-1.,0.,0.));
#1657=DIRECTION('',(0.,0.,-1.));
#1658=DIRECTION('',(-1.,0.,0.));
#1659=DIRECTION('',(0.,0.,1.));
#1660=DIRECTION('',(1.,0.,0.));
#1661=DIRECTION('',(0.,0.,-1.));
#1662=DIRECTION('',(-1.,0.,0.));
#1663=DIRECTION('',(0.,0.,-1.));
#1664=DIRECTION('',(1.,0.,0.));
#1665=DIRECTION('',(0.,0.,1.));
#1666=DIRECTION('',(1.,0.,0.));
#1667=DIRECTION('',(0.,0.,1.));
#1668=DIRECTION('',(1.,0.,0.));
#1669=DIRECTION('',(0.,0.,-1.));
#1670=DIRECTION('',(-1.,0.,0.));
#1671=DIRECTION('',(0.,0.,-1.));
#1672=DIRECTION('',(-1.,0.,0.));
#1673=DIRECTION('',(0.,0.,1.));
#1674=DIRECTION('',(1.,0.,0.));
#1675=DIRECTION('',(0.,0.,-1.));
#1676=DIRECTION('',(-1.,0.,0.));
#1677=DIRECTION('',(0.,0.,-1.));
#1678=DIRECTION('',(1.,0.,0.));
#1679=DIRECTION('',(0.,0.,1.));
#1680=DIRECTION('',(1.,0.,0.));
#1681=DIRECTION('',(-4.33680868994202E-16,0.,-1.));
#1682=DIRECTION('',(-1.,0.,4.33680868994202E-16));
#1683=DIRECTION('',(0.,1.,0.));
#1684=DIRECTION('',(0.,1.,0.));
#1685=DIRECTION('',(1.,0.,0.));
#1686=DIRECTION('',(0.,0.,-1.));
#1687=DIRECTION('',(0.,1.,0.));
#1688=DIRECTION('',(-4.33680868994202E-16,0.,-1.));
#1689=DIRECTION('',(-1.,0.,4.33680868994202E-16));
#1690=DIRECTION('',(0.,1.,0.));
#1691=DIRECTION('',(1.,0.,0.));
#1692=DIRECTION('',(0.,0.,-1.));
#1693=DIRECTION('',(0.,-1.,0.));
#1694=DIRECTION('',(0.,0.,-1.));
#1695=DIRECTION('',(0.,0.,1.));
#1696=DIRECTION('',(1.,0.,0.));
#1697=DIRECTION('',(0.,0.,1.));
#1698=DIRECTION('',(1.,0.,0.));
#1699=DIRECTION('',(0.,-1.,0.));
#1700=DIRECTION('',(0.,0.,-1.));
#1701=DIRECTION('',(0.,-1.,0.));
#1702=DIRECTION('',(0.,0.,-1.));
#1703=DIRECTION('',(-1.,0.,0.));
#1704=DIRECTION('',(0.,0.,1.));
#1705=DIRECTION('',(0.,0.,-1.));
#1706=DIRECTION('',(-1.,0.,0.));
#1707=DIRECTION('',(0.,0.,1.));
#1708=DIRECTION('',(1.,0.,0.));
#1709=DIRECTION('',(1.,0.,0.));
#1710=DIRECTION('',(0.,0.,-1.));
#1711=DIRECTION('',(1.,0.,0.));
#1712=DIRECTION('',(0.,0.,-1.));
#1713=DIRECTION('',(4.08170229641602E-17,-1.,0.));
#1714=DIRECTION('',(1.,4.08170229641602E-17,0.));
#1715=DIRECTION('',(0.,1.,0.));
#1716=DIRECTION('',(0.,0.,1.));
#1717=DIRECTION('',(0.,0.,-1.));
#1718=DIRECTION('',(-1.,0.,0.));
#1719=DIRECTION('',(0.,0.,1.));
#1720=DIRECTION('',(1.,0.,0.));
#1721=DIRECTION('',(0.,-1.,0.));
#1722=DIRECTION('',(0.,0.,-1.));
#1723=DIRECTION('',(0.,-1.,0.));
#1724=DIRECTION('',(0.,0.,-1.));
#1725=DIRECTION('',(-1.,0.,0.));
#1726=DIRECTION('',(0.,0.,1.));
#1727=DIRECTION('',(-1.,1.73472347597681E-15,0.));
#1728=DIRECTION('',(-1.73472347597681E-15,-1.,0.));
#1729=DIRECTION('',(0.,1.,0.));
#1730=DIRECTION('',(0.,0.,1.));
#1731=DIRECTION('',(0.,1.,0.));
#1732=DIRECTION('',(0.,0.,1.));
#1733=DIRECTION('',(-1.,0.,0.));
#1734=DIRECTION('',(0.,0.,1.));
#1735=DIRECTION('',(1.,0.,0.));
#1736=DIRECTION('',(0.,0.,-1.));
#1737=DIRECTION('',(0.,0.,1.));
#1738=DIRECTION('',(1.,0.,0.));
#1739=DIRECTION('',(0.,0.,1.));
#1740=DIRECTION('',(1.,0.,0.));
#1741=DIRECTION('',(0.,0.,1.));
#1742=DIRECTION('',(1.,0.,0.));
#1743=CARTESIAN_POINT('',(0.,0.,0.));
#1744=CARTESIAN_POINT('',(0.0579276171326638,0.0327201783657074,-0.002));
#1745=CARTESIAN_POINT('',(0.0879276171326637,0.0327201783657074,-0.002));
#1746=CARTESIAN_POINT('',(0.029927617132664,0.0327201783657074,-0.002));
#1747=CARTESIAN_POINT('',(0.0859276171326637,0.0327201783657074,-0.002));
#1748=CARTESIAN_POINT('',(0.0859276171326637,0.0327201783657074,-0.002));
#1749=CARTESIAN_POINT('',(0.0859276171326637,0.0327201783657074,-0.015));
#1750=CARTESIAN_POINT('',(0.0579276171326638,0.0327201783657074,-0.015));
#1751=CARTESIAN_POINT('',(0.029927617132664,0.0327201783657074,-0.015));
#1752=CARTESIAN_POINT('',(0.029927617132664,0.0327201783657074,0.));
#1753=CARTESIAN_POINT('',(0.0729276171326637,0.0327201783657074,-0.01));
#1754=CARTESIAN_POINT('',(0.0769276171326637,0.0327201783657074,-0.01));
#1755=CARTESIAN_POINT('',(0.0689276171326637,0.0327201783657074,-0.01));
#1756=CARTESIAN_POINT('',(0.0689276171326637,0.0327201783657074,-0.0115));
#1757=CARTESIAN_POINT('',(0.0689276171326637,0.0327201783657074,-0.013));
#1758=CARTESIAN_POINT('',(0.0729276171326637,0.0327201783657074,-0.013));
#1759=CARTESIAN_POINT('',(0.0769276171326637,0.0327201783657074,-0.013));
#1760=CARTESIAN_POINT('',(0.0769276171326637,0.0327201783657074,-0.0115));
#1761=CARTESIAN_POINT('',(0.0579276171326638,0.0307201783657074,-0.015));
#1762=CARTESIAN_POINT('',(0.0579276171326638,0.0307201783657074,-0.002));
#1763=CARTESIAN_POINT('',(0.029927617132664,0.0307201783657074,-0.002));
#1764=CARTESIAN_POINT('',(0.0859276171326637,0.0307201783657074,-0.002));
#1765=CARTESIAN_POINT('',(0.029927617132664,0.0307201783657074,-0.015));
#1766=CARTESIAN_POINT('',(0.029927617132664,0.0307201783657074,-0.015));
#1767=CARTESIAN_POINT('',(0.0579276171326638,0.0307201783657074,-0.015));
#1768=CARTESIAN_POINT('',(0.0859276171326637,0.0307201783657074,-0.015));
#1769=CARTESIAN_POINT('',(0.0859276171326637,0.0307201783657074,-0.015));
#1770=CARTESIAN_POINT('',(0.0689276171326637,0.0307201783657074,-0.015));
#1771=CARTESIAN_POINT('',(0.0689276171326637,0.0307201783657074,-0.013));
#1772=CARTESIAN_POINT('',(0.0689276171326637,0.0307201783657074,-0.01));
#1773=CARTESIAN_POINT('',(0.0579276171326638,0.0307201783657074,-0.01));
#1774=CARTESIAN_POINT('',(0.0769276171326637,0.0307201783657074,-0.01));
#1775=CARTESIAN_POINT('',(0.0769276171326637,0.0307201783657074,-0.015));
#1776=CARTESIAN_POINT('',(0.0769276171326637,0.0307201783657074,-0.013));
#1777=CARTESIAN_POINT('',(0.0579276171326638,0.0307201783657074,-0.013));
#1778=CARTESIAN_POINT('',(0.0579276171326638,-0.0097798216342926,-0.002));
#1779=CARTESIAN_POINT('',(0.032527617132664,-0.0464798216342926,-0.002));
#1780=CARTESIAN_POINT('',(0.035027617132664,-0.0464798216342926,-0.002));
#1781=CARTESIAN_POINT('',(0.032527617132664,0.0269201783657074,-0.002));
#1782=CARTESIAN_POINT('',(0.035027617132664,0.0269201783657074,-0.002));
#1783=CARTESIAN_POINT('',(0.0815276171326637,0.0229671783657074,-0.002));
#1784=CARTESIAN_POINT('',(0.0840276171326637,0.0229671783657074,-0.002));
#1785=CARTESIAN_POINT('',(0.044592617132664,0.0229671783657074,-0.002));
#1786=CARTESIAN_POINT('',(0.047092617132664,0.0229671783657074,-0.002));
#1787=CARTESIAN_POINT('',(0.044592617132664,-0.0447798216342926,-0.002));
#1788=CARTESIAN_POINT('',(0.047092617132664,-0.0447798216342926,-0.002));
#1789=CARTESIAN_POINT('',(0.0815276171326637,-0.0447798216342926,-0.002));
#1790=CARTESIAN_POINT('',(0.0840276171326637,-0.0447798216342926,-0.002));
#1791=CARTESIAN_POINT('',(0.030927617132664,0.0187201783657074,-0.002));
#1792=CARTESIAN_POINT('',(0.030927617132664,0.0227201783657074,-0.002));
#1793=CARTESIAN_POINT('',(0.030927617132664,0.0147201783657074,-0.002));
#1794=CARTESIAN_POINT('',(0.034927617132664,0.0147201783657074,-0.002));
#1795=CARTESIAN_POINT('',(0.0389276171326639,0.0147201783657074,-0.002));
#1796=CARTESIAN_POINT('',(0.0389276171326639,0.0187201783657074,-0.002));
#1797=CARTESIAN_POINT('',(0.0389276171326639,0.0227201783657074,-0.002));
#1798=CARTESIAN_POINT('',(0.034927617132664,0.0227201783657074,-0.002));
#1799=CARTESIAN_POINT('',(0.0308475596804645,0.00472040726742342,-0.002));
#1800=CARTESIAN_POINT('',(0.0308475596804645,0.00872040726742342,-0.002));
#1801=CARTESIAN_POINT('',(0.0308475596804645,0.000720407267423421,-0.002));
#1802=CARTESIAN_POINT('',(0.0348475596804644,0.000720407267423421,-0.002));
#1803=CARTESIAN_POINT('',(0.0388475596804645,0.000720407267423425,-0.002));
#1804=CARTESIAN_POINT('',(0.0388475596804645,0.00472040726742343,-0.002));
#1805=CARTESIAN_POINT('',(0.0388475596804645,0.00872040726742343,-0.002));
#1806=CARTESIAN_POINT('',(0.0348475596804644,0.00872040726742342,-0.002));
#1807=CARTESIAN_POINT('',(0.030767502228265,-0.00927936383086055,-0.002));
#1808=CARTESIAN_POINT('',(0.030767502228265,-0.00527936383086055,-0.002));
#1809=CARTESIAN_POINT('',(0.030767502228265,-0.0132793638308605,-0.002));
#1810=CARTESIAN_POINT('',(0.034767502228265,-0.0132793638308605,-0.002));
#1811=CARTESIAN_POINT('',(0.038767502228265,-0.0132793638308605,-0.002));
#1812=CARTESIAN_POINT('',(0.038767502228265,-0.00927936383086055,-0.002));
#1813=CARTESIAN_POINT('',(0.038767502228265,-0.00527936383086055,-0.002));
#1814=CARTESIAN_POINT('',(0.034767502228265,-0.00527936383086055,-0.002));
#1815=CARTESIAN_POINT('',(0.0306874447760654,-0.0232791349291445,-0.002));
#1816=CARTESIAN_POINT('',(0.0306874447760655,-0.0192791349291445,-0.002));
#1817=CARTESIAN_POINT('',(0.0306874447760655,-0.0272791349291446,-0.002));
#1818=CARTESIAN_POINT('',(0.0346874447760655,-0.0272791349291446,-0.002));
#1819=CARTESIAN_POINT('',(0.0386874447760655,-0.0272791349291445,-0.002));
#1820=CARTESIAN_POINT('',(0.0386874447760655,-0.0232791349291445,-0.002));
#1821=CARTESIAN_POINT('',(0.0386874447760655,-0.0192791349291445,-0.002));
#1822=CARTESIAN_POINT('',(0.0346874447760655,-0.0192791349291445,-0.002));
#1823=CARTESIAN_POINT('',(0.030607387323866,-0.0372789060274285,-0.002));
#1824=CARTESIAN_POINT('',(0.030607387323866,-0.0332789060274285,-0.002));
#1825=CARTESIAN_POINT('',(0.030607387323866,-0.0412789060274285,-0.002));
#1826=CARTESIAN_POINT('',(0.034607387323866,-0.0412789060274285,-0.002));
#1827=CARTESIAN_POINT('',(0.038607387323866,-0.0412789060274285,-0.002));
#1828=CARTESIAN_POINT('',(0.038607387323866,-0.0372789060274285,-0.002));
#1829=CARTESIAN_POINT('',(0.038607387323866,-0.0332789060274285,-0.002));
#1830=CARTESIAN_POINT('',(0.034607387323866,-0.0332789060274285,-0.002));
#1831=CARTESIAN_POINT('',(0.042927617132664,-0.0147798216342936,-0.002));
#1832=CARTESIAN_POINT('',(0.042927617132664,0.0117201783657064,-0.002));
#1833=CARTESIAN_POINT('',(0.042927617132664,-0.0412798216342935,-0.002));
#1834=CARTESIAN_POINT('',(0.0634276171326639,-0.0412798216342935,-0.002));
#1835=CARTESIAN_POINT('',(0.0839276171326639,-0.0412798216342935,-0.002));
#1836=CARTESIAN_POINT('',(0.0839276171326639,-0.0147798216342936,-0.002));
#1837=CARTESIAN_POINT('',(0.0839276171326639,0.0117201783657064,-0.002));
#1838=CARTESIAN_POINT('',(0.0634276171326639,0.0117201783657064,-0.002));
#1839=CARTESIAN_POINT('',(0.0579276171326638,-0.0502798216342926,-0.002));
#1840=CARTESIAN_POINT('',(0.029927617132664,-0.0502798216342926,-0.002));
#1841=CARTESIAN_POINT('',(0.0859276171326637,-0.0502798216342926,-0.002));
#1842=CARTESIAN_POINT('',(0.029927617132664,-0.00977982163429261,-0.002));
#1843=CARTESIAN_POINT('',(0.0859276171326637,-0.00977982163429261,-0.002));
#1844=CARTESIAN_POINT('',(0.027927617132664,-0.00977982163429261,-0.002));
#1845=CARTESIAN_POINT('',(0.027927617132664,-0.00977982163429261,-0.002));
#1846=CARTESIAN_POINT('',(0.027927617132664,-0.0502798216342926,-0.002));
#1847=CARTESIAN_POINT('',(0.027927617132664,0.0307201783657074,-0.002));
#1848=CARTESIAN_POINT('',(0.027927617132664,0.0307201783657074,-0.015));
#1849=CARTESIAN_POINT('',(0.027927617132664,0.0307201783657074,-0.015));
#1850=CARTESIAN_POINT('',(0.027927617132664,-0.00977982163429261,-0.015));
#1851=CARTESIAN_POINT('',(0.027927617132664,-0.0502798216342926,-0.015));
#1852=CARTESIAN_POINT('',(0.027927617132664,-0.0502798216342926,-0.002));
#1853=CARTESIAN_POINT('',(0.0579276171326638,-0.0522798216342926,-0.002));
#1854=CARTESIAN_POINT('',(0.0613476171326637,-0.0522798216342926,-0.0085));
#1855=CARTESIAN_POINT('',(0.0613476171326637,-0.0522798216342926,-0.011));
#1856=CARTESIAN_POINT('',(0.0579276171326638,-0.0522798216342926,-0.015));
#1857=CARTESIAN_POINT('',(0.029927617132664,-0.0522798216342926,-0.015));
#1858=CARTESIAN_POINT('',(0.0859276171326637,-0.0522798216342926,-0.015));
#1859=CARTESIAN_POINT('',(0.0859276171326637,-0.0522798216342926,0.));
#1860=CARTESIAN_POINT('',(0.0859276171326637,-0.0522798216342926,-0.002));
#1861=CARTESIAN_POINT('',(0.0579276171326638,-0.0522798216342926,-0.002));
#1862=CARTESIAN_POINT('',(0.029927617132664,-0.0522798216342926,-0.002));
#1863=CARTESIAN_POINT('',(0.029927617132664,-0.0522798216342926,-0.002));
#1864=CARTESIAN_POINT('',(0.030927617132664,0.0187201783657074,-0.002));
#1865=CARTESIAN_POINT('',(0.030927617132664,0.0187201783657074,0.));
#1866=CARTESIAN_POINT('',(0.030927617132664,0.0227201783657074,0.));
#1867=CARTESIAN_POINT('',(0.030927617132664,0.0147201783657074,0.));
#1868=CARTESIAN_POINT('',(0.030927617132664,0.0147201783657074,-0.002));
#1869=CARTESIAN_POINT('',(0.030927617132664,0.0227201783657074,-0.002));
#1870=CARTESIAN_POINT('',(0.034927617132664,0.0227201783657074,-0.002));
#1871=CARTESIAN_POINT('',(0.034927617132664,0.0227201783657074,0.));
#1872=CARTESIAN_POINT('',(0.0389276171326639,0.0227201783657074,0.));
#1873=CARTESIAN_POINT('',(0.0389276171326639,0.0227201783657074,-0.002));
#1874=CARTESIAN_POINT('',(0.0389276171326639,0.0187201783657074,-0.002));
#1875=CARTESIAN_POINT('',(0.0389276171326639,0.0187201783657074,0.));
#1876=CARTESIAN_POINT('',(0.0389276171326639,0.0147201783657074,0.));
#1877=CARTESIAN_POINT('',(0.0389276171326639,0.0147201783657074,-0.002));
#1878=CARTESIAN_POINT('',(0.0308475596804645,0.00472040726742342,-0.002));
#1879=CARTESIAN_POINT('',(0.0308475596804645,0.00472040726742342,0.));
#1880=CARTESIAN_POINT('',(0.0308475596804645,0.00872040726742342,0.));
#1881=CARTESIAN_POINT('',(0.0308475596804645,0.000720407267423421,0.));
#1882=CARTESIAN_POINT('',(0.0308475596804645,0.000720407267423421,-0.002));
#1883=CARTESIAN_POINT('',(0.0308475596804645,0.00872040726742342,-0.002));
#1884=CARTESIAN_POINT('',(0.0348475596804644,0.00872040726742342,-0.002));
#1885=CARTESIAN_POINT('',(0.0348475596804644,0.00872040726742342,0.));
#1886=CARTESIAN_POINT('',(0.0388475596804645,0.00872040726742343,0.));
#1887=CARTESIAN_POINT('',(0.0388475596804645,0.00872040726742343,-0.002));
#1888=CARTESIAN_POINT('',(0.0388475596804645,0.00472040726742343,-0.002));
#1889=CARTESIAN_POINT('',(0.0388475596804645,0.00472040726742343,0.));
#1890=CARTESIAN_POINT('',(0.0388475596804645,0.000720407267423425,0.));
#1891=CARTESIAN_POINT('',(0.0388475596804645,0.000720407267423425,-0.002));
#1892=CARTESIAN_POINT('',(0.030767502228265,-0.00927936383086055,-0.002));
#1893=CARTESIAN_POINT('',(0.030767502228265,-0.00927936383086055,0.));
#1894=CARTESIAN_POINT('',(0.030767502228265,-0.00527936383086055,0.));
#1895=CARTESIAN_POINT('',(0.030767502228265,-0.0132793638308605,0.));
#1896=CARTESIAN_POINT('',(0.030767502228265,-0.0132793638308605,-0.002));
#1897=CARTESIAN_POINT('',(0.030767502228265,-0.00527936383086055,-0.002));
#1898=CARTESIAN_POINT('',(0.034767502228265,-0.00527936383086055,-0.002));
#1899=CARTESIAN_POINT('',(0.034767502228265,-0.00527936383086055,0.));
#1900=CARTESIAN_POINT('',(0.038767502228265,-0.00527936383086055,0.));
#1901=CARTESIAN_POINT('',(0.038767502228265,-0.00527936383086055,-0.002));
#1902=CARTESIAN_POINT('',(0.038767502228265,-0.00927936383086055,-0.002));
#1903=CARTESIAN_POINT('',(0.038767502228265,-0.00927936383086055,0.));
#1904=CARTESIAN_POINT('',(0.038767502228265,-0.0132793638308605,0.));
#1905=CARTESIAN_POINT('',(0.038767502228265,-0.0132793638308605,-0.002));
#1906=CARTESIAN_POINT('',(0.0306874447760654,-0.0232791349291445,-0.002));
#1907=CARTESIAN_POINT('',(0.0306874447760654,-0.0232791349291445,0.));
#1908=CARTESIAN_POINT('',(0.0306874447760655,-0.0192791349291445,0.));
#1909=CARTESIAN_POINT('',(0.0306874447760655,-0.0272791349291446,0.));
#1910=CARTESIAN_POINT('',(0.0306874447760655,-0.0272791349291446,-0.002));
#1911=CARTESIAN_POINT('',(0.0306874447760655,-0.0192791349291445,-0.002));
#1912=CARTESIAN_POINT('',(0.0346874447760655,-0.0192791349291445,-0.002));
#1913=CARTESIAN_POINT('',(0.0346874447760655,-0.0192791349291445,0.));
#1914=CARTESIAN_POINT('',(0.0386874447760655,-0.0192791349291445,0.));
#1915=CARTESIAN_POINT('',(0.0386874447760655,-0.0192791349291445,-0.002));
#1916=CARTESIAN_POINT('',(0.0386874447760655,-0.0232791349291445,-0.002));
#1917=CARTESIAN_POINT('',(0.0386874447760655,-0.0232791349291445,0.));
#1918=CARTESIAN_POINT('',(0.0386874447760655,-0.0272791349291445,0.));
#1919=CARTESIAN_POINT('',(0.0386874447760655,-0.0272791349291445,-0.002));
#1920=CARTESIAN_POINT('',(0.030607387323866,-0.0372789060274285,-0.002));
#1921=CARTESIAN_POINT('',(0.030607387323866,-0.0372789060274285,0.));
#1922=CARTESIAN_POINT('',(0.030607387323866,-0.0332789060274285,0.));
#1923=CARTESIAN_POINT('',(0.030607387323866,-0.0412789060274285,0.));
#1924=CARTESIAN_POINT('',(0.030607387323866,-0.0412789060274285,-0.002));
#1925=CARTESIAN_POINT('',(0.030607387323866,-0.0332789060274285,-0.002));
#1926=CARTESIAN_POINT('',(0.034607387323866,-0.0332789060274285,-0.002));
#1927=CARTESIAN_POINT('',(0.034607387323866,-0.0332789060274285,0.));
#1928=CARTESIAN_POINT('',(0.038607387323866,-0.0332789060274285,0.));
#1929=CARTESIAN_POINT('',(0.038607387323866,-0.0332789060274285,-0.002));
#1930=CARTESIAN_POINT('',(0.038607387323866,-0.0372789060274285,-0.002));
#1931=CARTESIAN_POINT('',(0.038607387323866,-0.0372789060274285,0.));
#1932=CARTESIAN_POINT('',(0.038607387323866,-0.0412789060274285,0.));
#1933=CARTESIAN_POINT('',(0.038607387323866,-0.0412789060274285,-0.002));
#1934=CARTESIAN_POINT('',(0.042927617132664,-0.0147798216342936,-0.002));
#1935=CARTESIAN_POINT('',(0.042927617132664,-0.0147798216342936,0.));
#1936=CARTESIAN_POINT('',(0.042927617132664,0.0117201783657064,0.));
#1937=CARTESIAN_POINT('',(0.042927617132664,-0.0412798216342935,0.));
#1938=CARTESIAN_POINT('',(0.042927617132664,-0.0412798216342935,-0.002));
#1939=CARTESIAN_POINT('',(0.042927617132664,0.0117201783657064,-0.002));
#1940=CARTESIAN_POINT('',(0.0634276171326639,0.0117201783657064,-0.002));
#1941=CARTESIAN_POINT('',(0.0634276171326639,0.0117201783657064,0.));
#1942=CARTESIAN_POINT('',(0.0839276171326639,0.0117201783657064,0.));
#1943=CARTESIAN_POINT('',(0.0839276171326639,0.0117201783657064,-0.002));
#1944=CARTESIAN_POINT('',(0.0839276171326639,-0.0147798216342936,-0.002));
#1945=CARTESIAN_POINT('',(0.0839276171326639,-0.0147798216342936,0.));
#1946=CARTESIAN_POINT('',(0.0839276171326639,-0.0412798216342935,0.));
#1947=CARTESIAN_POINT('',(0.0839276171326639,-0.0412798216342935,-0.002));
#1948=CARTESIAN_POINT('',(0.034927617132664,0.0147201783657074,-0.002));
#1949=CARTESIAN_POINT('',(0.034927617132664,0.0147201783657074,0.));
#1950=CARTESIAN_POINT('',(0.0348475596804644,0.000720407267423421,-0.002));
#1951=CARTESIAN_POINT('',(0.0348475596804644,0.000720407267423421,0.));
#1952=CARTESIAN_POINT('',(0.034767502228265,-0.0132793638308605,-0.002));
#1953=CARTESIAN_POINT('',(0.034767502228265,-0.0132793638308605,0.));
#1954=CARTESIAN_POINT('',(0.0346874447760655,-0.0272791349291446,-0.002));
#1955=CARTESIAN_POINT('',(0.0346874447760655,-0.0272791349291446,0.));
#1956=CARTESIAN_POINT('',(0.034607387323866,-0.0412789060274285,-0.002));
#1957=CARTESIAN_POINT('',(0.034607387323866,-0.0412789060274285,0.));
#1958=CARTESIAN_POINT('',(0.0634276171326639,-0.0412798216342935,-0.002));
#1959=CARTESIAN_POINT('',(0.0634276171326639,-0.0412798216342935,0.));
#1960=CARTESIAN_POINT('',(0.0879276171326637,-0.00977982163429261,-0.002));
#1961=CARTESIAN_POINT('',(0.0879276171326637,-0.00977982163429261,-0.015));
#1962=CARTESIAN_POINT('',(0.0879276171326637,0.0307201783657074,-0.015));
#1963=CARTESIAN_POINT('',(0.0879276171326637,-0.0502798216342926,-0.015));
#1964=CARTESIAN_POINT('',(0.0879276171326637,0.0307201783657074,-0.002));
#1965=CARTESIAN_POINT('',(0.0879276171326637,0.0307201783657074,-0.002));
#1966=CARTESIAN_POINT('',(0.0879276171326637,-0.0522798216342926,-0.002));
#1967=CARTESIAN_POINT('',(0.0879276171326637,-0.0502798216342926,-0.002));
#1968=CARTESIAN_POINT('',(0.0879276171326637,-0.0502798216342926,-0.015));
#1969=CARTESIAN_POINT('',(0.0579276171326638,-0.0097798216342926,0.));
#1970=CARTESIAN_POINT('',(0.027927617132664,0.0307201783657074,0.));
#1971=CARTESIAN_POINT('',(0.0859276171326637,0.0307201783657074,0.));
#1972=CARTESIAN_POINT('',(0.029927617132664,0.0307201783657074,0.));
#1973=CARTESIAN_POINT('',(0.029927617132664,-0.0097798216342926,0.));
#1974=CARTESIAN_POINT('',(0.029927617132664,-0.0502798216342926,0.));
#1975=CARTESIAN_POINT('',(0.0579276171326638,-0.0502798216342926,0.));
#1976=CARTESIAN_POINT('',(0.0859276171326637,-0.0502798216342926,0.));
#1977=CARTESIAN_POINT('',(0.0859276171326637,0.0327201783657074,0.));
#1978=CARTESIAN_POINT('',(0.0579276171326638,-0.0502798216342926,-0.015));
#1979=CARTESIAN_POINT('',(0.0613476171326637,-0.0502798216342926,-0.0085));
#1980=CARTESIAN_POINT('',(0.0613476171326637,-0.0502798216342926,-0.011));
#1981=CARTESIAN_POINT('',(0.0859276171326637,-0.0502798216342926,-0.015));
#1982=CARTESIAN_POINT('',(0.0859276171326637,-0.0502798216342926,-0.015));
#1983=CARTESIAN_POINT('',(0.0579276171326638,-0.0502798216342926,-0.015));
#1984=CARTESIAN_POINT('',(0.029927617132664,-0.0502798216342926,-0.015));
#1985=CARTESIAN_POINT('',(0.029927617132664,-0.0502798216342926,-0.015));
#1986=CARTESIAN_POINT('',(0.0859276171326637,-0.00977982163429261,-0.015));
#1987=CARTESIAN_POINT('',(0.0859276171326637,-0.00977982163429261,-0.015));
#1988=CARTESIAN_POINT('',(0.029927617132664,-0.00977982163429261,-0.015));
#1989=CARTESIAN_POINT('',(0.029927617132664,-0.00977982163429261,-0.015));
#1990=CARTESIAN_POINT('',(0.0579276171326638,-0.0097798216342926,-0.015));
#1991=CARTESIAN_POINT('',(0.0859276171326637,0.0307201783657074,-0.015));
#1992=CARTESIAN_POINT('',(0.0859276171326637,-0.0502798216342926,-0.015));
#1993=CARTESIAN_POINT('',(0.029927617132664,-0.0502798216342926,-0.015));
#1994=CARTESIAN_POINT('',(0.029927617132664,0.0307201783657074,-0.015));
#1995=CARTESIAN_POINT('',(0.0815276171326637,-0.0447798216342926,-0.0045));
#1996=CARTESIAN_POINT('',(0.0815276171326637,-0.0447798216342926,-0.0045));
#1997=CARTESIAN_POINT('',(0.0800276171326637,-0.0447798216342926,-0.0045));
#1998=CARTESIAN_POINT('',(0.0815276171326637,-0.0447798216342926,-0.002));
#1999=CARTESIAN_POINT('',(0.0800276171326637,-0.0447798216342926,-0.002));
#2000=CARTESIAN_POINT('',(0.0815276171326637,-0.0447798216342926,-0.0045));
#2001=CARTESIAN_POINT('',(0.0815276171326637,-0.0447798216342926,-0.0045));
#2002=CARTESIAN_POINT('',(0.0790276171326637,-0.0447798216342926,-0.0045));
#2003=CARTESIAN_POINT('',(0.0579276171326638,-0.00977982163429261,-0.0045));
#2004=CARTESIAN_POINT('',(0.0579276171326638,-0.0097798216342926,-0.002));
#2005=CARTESIAN_POINT('',(0.044592617132664,-0.0447798216342926,-0.0045));
#2006=CARTESIAN_POINT('',(0.044592617132664,-0.0447798216342926,-0.0045));
#2007=CARTESIAN_POINT('',(0.0430926171326639,-0.0447798216342926,-0.0045));
#2008=CARTESIAN_POINT('',(0.044592617132664,-0.0447798216342926,-0.002));
#2009=CARTESIAN_POINT('',(0.0430926171326639,-0.0447798216342926,-0.002));
#2010=CARTESIAN_POINT('',(0.044592617132664,-0.0447798216342926,-0.0045));
#2011=CARTESIAN_POINT('',(0.044592617132664,-0.0447798216342926,-0.0045));
#2012=CARTESIAN_POINT('',(0.0420926171326639,-0.0447798216342926,-0.0045));
#2013=CARTESIAN_POINT('',(0.0579276171326638,-0.00977982163429261,-0.0045));
#2014=CARTESIAN_POINT('',(0.0579276171326638,-0.0097798216342926,-0.002));
#2015=CARTESIAN_POINT('',(0.044592617132664,0.0229671783657074,-0.0045));
#2016=CARTESIAN_POINT('',(0.044592617132664,0.0229671783657074,-0.0045));
#2017=CARTESIAN_POINT('',(0.0430926171326639,0.0229671783657074,-0.0045));
#2018=CARTESIAN_POINT('',(0.044592617132664,0.0229671783657074,-0.002));
#2019=CARTESIAN_POINT('',(0.0430926171326639,0.0229671783657074,-0.002));
#2020=CARTESIAN_POINT('',(0.044592617132664,0.0229671783657074,-0.0045));
#2021=CARTESIAN_POINT('',(0.044592617132664,0.0229671783657074,-0.0045));
#2022=CARTESIAN_POINT('',(0.0420926171326639,0.0229671783657074,-0.0045));
#2023=CARTESIAN_POINT('',(0.0579276171326638,-0.00977982163429261,-0.0045));
#2024=CARTESIAN_POINT('',(0.0579276171326638,-0.0097798216342926,-0.002));
#2025=CARTESIAN_POINT('',(0.0815276171326637,0.0229671783657074,-0.0045));
#2026=CARTESIAN_POINT('',(0.0815276171326637,0.0229671783657074,-0.0045));
#2027=CARTESIAN_POINT('',(0.0800276171326637,0.0229671783657074,-0.0045));
#2028=CARTESIAN_POINT('',(0.0815276171326637,0.0229671783657074,-0.002));
#2029=CARTESIAN_POINT('',(0.0800276171326637,0.0229671783657074,-0.002));
#2030=CARTESIAN_POINT('',(0.0815276171326637,0.0229671783657074,-0.0045));
#2031=CARTESIAN_POINT('',(0.0815276171326637,0.0229671783657074,-0.0045));
#2032=CARTESIAN_POINT('',(0.0790276171326637,0.0229671783657074,-0.0045));
#2033=CARTESIAN_POINT('',(0.0579276171326638,-0.00977982163429261,-0.0045));
#2034=CARTESIAN_POINT('',(0.0579276171326638,-0.0097798216342926,-0.002));
#2035=CARTESIAN_POINT('',(0.032527617132664,0.0269201783657074,-0.007));
#2036=CARTESIAN_POINT('',(0.032527617132664,0.0269201783657074,-0.007));
#2037=CARTESIAN_POINT('',(0.0312776171326639,0.0269201783657074,-0.007));
#2038=CARTESIAN_POINT('',(0.032527617132664,0.0269201783657074,-0.002));
#2039=CARTESIAN_POINT('',(0.0312776171326639,0.0269201783657074,-0.002));
#2040=CARTESIAN_POINT('',(0.032527617132664,0.0269201783657074,-0.007));
#2041=CARTESIAN_POINT('',(0.032527617132664,0.0269201783657074,-0.007));
#2042=CARTESIAN_POINT('',(0.030027617132664,0.0269201783657074,-0.007));
#2043=CARTESIAN_POINT('',(0.0579276171326638,-0.00977982163429261,-0.007));
#2044=CARTESIAN_POINT('',(0.0579276171326638,-0.0097798216342926,-0.002));
#2045=CARTESIAN_POINT('',(0.032527617132664,-0.0464798216342926,-0.007));
#2046=CARTESIAN_POINT('',(0.032527617132664,-0.0464798216342926,-0.007));
#2047=CARTESIAN_POINT('',(0.0312776171326639,-0.0464798216342926,-0.007));
#2048=CARTESIAN_POINT('',(0.032527617132664,-0.0464798216342926,-0.002));
#2049=CARTESIAN_POINT('',(0.0312776171326639,-0.0464798216342926,-0.002));
#2050=CARTESIAN_POINT('',(0.032527617132664,-0.0464798216342926,-0.007));
#2051=CARTESIAN_POINT('',(0.032527617132664,-0.0464798216342926,-0.007));
#2052=CARTESIAN_POINT('',(0.030027617132664,-0.0464798216342926,-0.007));
#2053=CARTESIAN_POINT('',(0.0579276171326638,-0.00977982163429261,-0.007));
#2054=CARTESIAN_POINT('',(0.0579276171326638,-0.0097798216342926,-0.002));
#2055=CARTESIAN_POINT('',(0.0729276171326637,0.0077201783657074,-0.01));
#2056=CARTESIAN_POINT('',(0.0689276171326637,0.0077201783657074,-0.01));
#2057=CARTESIAN_POINT('',(0.0769276171326637,0.0077201783657074,-0.01));
#2058=CARTESIAN_POINT('',(0.0769276171326637,0.0077201783657074,-0.0115));
#2059=CARTESIAN_POINT('',(0.0769276171326637,0.0077201783657074,-0.013));
#2060=CARTESIAN_POINT('',(0.0729276171326637,0.0077201783657074,-0.013));
#2061=CARTESIAN_POINT('',(0.0689276171326637,0.0077201783657074,-0.013));
#2062=CARTESIAN_POINT('',(0.0689276171326637,0.0077201783657074,-0.0115));
#2063=CARTESIAN_POINT('',(0.0613476171326637,-0.0272798216342926,-0.0085));
#2064=CARTESIAN_POINT('',(0.029927617132664,-0.0502798216342926,-0.002));
#2065=CARTESIAN_POINT('',(0.029927617132664,-0.0502798216342926,-0.002));
#2066=CARTESIAN_POINT('',(0.029927617132664,-0.0502798216342926,-0.002));
#2067=CARTESIAN_POINT('',(0.029927617132664,-0.0502798216342926,-0.002));
#2068=CARTESIAN_POINT('',(0.029927617132664,-0.0502798216342926,-0.002));
#2069=CARTESIAN_POINT('',(0.0859276171326637,-0.0502798216342926,-0.002));
#2070=CARTESIAN_POINT('',(0.0859276171326637,-0.0502798216342926,-0.002));
#2071=CARTESIAN_POINT('',(0.0579276171326638,-0.0502798216342926,-0.002));
#2072=CARTESIAN_POINT('',(0.0859276171326637,-0.0502798216342926,-0.002));
#2073=CARTESIAN_POINT('',(0.029927617132664,-0.0097798216342926,-0.002));
#2074=CARTESIAN_POINT('',(0.029927617132664,0.0307201783657074,-0.002));
#2075=CARTESIAN_POINT('',(0.029927617132664,0.0307201783657074,-0.002));
#2076=CARTESIAN_POINT('',(0.029927617132664,0.0307201783657074,-0.002));
#2077=CARTESIAN_POINT('',(0.0859276171326637,-0.0502798216342926,-0.002));
#2078=CARTESIAN_POINT('',(0.0859276171326637,-0.0502798216342926,-0.002));
#2079=CARTESIAN_POINT('',(0.029927617132664,0.0307201783657074,-0.002));
#2080=CARTESIAN_POINT('',(0.029927617132664,0.0307201783657074,-0.002));
#2081=CARTESIAN_POINT('',(0.0859276171326637,-0.00977982163429261,-0.002));
#2082=CARTESIAN_POINT('',(0.0859276171326637,0.0307201783657074,-0.002));
#2083=CARTESIAN_POINT('',(0.0579276171326638,0.0307201783657074,-0.002));
#2084=CARTESIAN_POINT('',(0.0859276171326637,0.0307201783657074,-0.002));
#2085=CARTESIAN_POINT('',(0.0859276171326637,0.0307201783657074,-0.002));
#2086=CARTESIAN_POINT('',(0.0859276171326637,0.0307201783657074,-0.002));
#2087=CARTESIAN_POINT('',(0.0859276171326637,0.0307201783657074,-0.002));
#2088=MECHANICAL_DESIGN_GEOMETRIC_PRESENTATION_REPRESENTATION('',(#1259),
#2089);
#2089=(
GEOMETRIC_REPRESENTATION_CONTEXT(3)
GLOBAL_UNCERTAINTY_ASSIGNED_CONTEXT((#2090))
GLOBAL_UNIT_ASSIGNED_CONTEXT((#2093,#2092,#2091))
REPRESENTATION_CONTEXT('Part 5','TOP_LEVEL_ASSEMBLY_PART')
);
#2090=UNCERTAINTY_MEASURE_WITH_UNIT(LENGTH_MEASURE(1.E-8),#2093,
'DISTANCE_ACCURACY_VALUE','Maximum Tolerance applied to model');
#2091=(
NAMED_UNIT(*)
SI_UNIT($,.STERADIAN.)
SOLID_ANGLE_UNIT()
);
#2092=(
NAMED_UNIT(*)
PLANE_ANGLE_UNIT()
SI_UNIT($,.RADIAN.)
);
#2093=(
LENGTH_UNIT()
NAMED_UNIT(*)
SI_UNIT($,.METRE.)
);
#2094=PRODUCT_DEFINITION_SHAPE('','',#2095);
#2095=PRODUCT_DEFINITION('','',#2097,#2096);
#2096=PRODUCT_DEFINITION_CONTEXT('',#2103,'design');
#2097=PRODUCT_DEFINITION_FORMATION_WITH_SPECIFIED_SOURCE('','',#2099,
 .NOT_KNOWN.);
#2098=PRODUCT_RELATED_PRODUCT_CATEGORY('','',(#2099));
#2099=PRODUCT('Part 5','Part 5','Part 5',(#2101));
#2100=PRODUCT_CATEGORY('','');
#2101=PRODUCT_CONTEXT('',#2103,'mechanical');
#2102=APPLICATION_PROTOCOL_DEFINITION('international standard',
'ap242_managed_model_based_3d_engineering',2020,#2103);
#2103=APPLICATION_CONTEXT('managed model based 3d engineering');
ENDSEC;
END-ISO-10303-21;
